<svg width="100" height="63" viewBox="0 0 100 63" fill="none" xmlns="http://www.w3.org/2000/svg">
<g clip-path="url(#clip0_239_471)">
<path d="M96.1099 47.6998C96.8799 47.6998 97.6399 47.7098 98.4099 47.7298H99.2699V44.7298C99.2599 44.6898 99.2399 44.6498 99.2299 44.6098C99.1799 44.4798 99.1299 44.3398 99.0999 44.1798C98.2099 37.7298 94.9099 32.7698 89.3099 29.4298C88.6099 29.0098 87.8899 28.6798 87.1199 28.3198C86.7699 28.1598 86.4199 27.9898 86.0699 27.8198L85.7099 27.6398L86.0199 27.3898C89.4699 24.6798 90.3999 21.4298 90.5699 19.1798C90.8099 16.0898 89.7099 12.9198 87.6499 10.7098C83.5899 6.3598 76.6799 5.9698 72.2399 9.8498C69.9299 11.8698 68.6399 14.3698 68.4099 17.2698C68.0799 21.3498 69.5799 24.7198 72.8599 27.2798L73.1499 27.5098L65.9799 31.7298L65.8499 31.6198C63.3799 29.5298 60.3899 27.9098 56.9499 26.8098L56.4599 26.6498L56.8899 26.3598C60.5999 23.8898 62.9599 20.2498 63.5299 16.0898C64.0899 12.0698 62.9199 8.0298 60.3299 5.0198C57.7499 1.9998 54.1699 0.229797 50.2499 0.0197971C46.3899 -0.180203 42.7199 1.1398 39.8999 3.7698C36.8799 6.5898 35.3499 10.0498 35.3499 14.0498C35.3499 19.2198 37.5799 23.2498 42.1599 26.3498L42.5899 26.6398L42.0999 26.7998C38.8199 27.8398 35.8499 29.4398 33.2599 31.5498L33.1299 31.6598L26.0399 27.5298L26.3299 27.2998C28.9999 25.2398 30.4999 22.5698 30.7999 19.3598C31.1099 15.9898 30.0699 13.0298 27.7099 10.5698C23.6499 6.3398 16.9799 6.0198 12.5099 9.8498C10.1699 11.8498 8.86988 14.3698 8.63988 17.3498C8.31988 21.3898 9.87988 24.7798 13.2599 27.4498L13.6099 27.7198L13.1899 27.8798C2.43988 31.9198 -0.530117 41.8598 0.0698832 47.7098H23.9499V49.3198C23.9499 50.2898 23.9499 51.2198 23.9499 52.1498C23.9699 58.3798 28.2399 62.7698 34.3299 62.8298C43.1099 62.9098 52.7599 62.9098 64.7299 62.8298C69.4599 62.7998 73.2099 60.0998 74.5199 55.7998C74.8899 54.5798 74.9499 53.2398 75.0199 51.9298C75.0399 51.5998 75.0499 51.2798 75.0699 50.9598C75.1099 50.3098 75.0599 49.6498 74.9999 48.9498C74.9699 48.6198 74.9499 48.2898 74.9299 47.9498V47.6898H81.3399C86.2599 47.6898 91.1799 47.6898 96.0999 47.6898L96.1099 47.6998ZM73.0799 23.8298C71.5999 22.1598 70.8699 20.0498 71.0199 17.8998C71.3999 12.7798 75.5599 9.8298 79.4799 9.8298C79.5899 9.8298 79.6899 9.8298 79.7999 9.8298C82.1299 9.9298 84.2599 10.9198 85.7799 12.6198C87.2899 14.2998 88.0699 16.5298 87.9199 18.7098C87.8299 20.9498 86.8599 23.0198 85.1999 24.5398C83.6399 25.9698 81.6699 26.7398 79.6099 26.7398C79.4799 26.7398 79.3599 26.7398 79.2299 26.7398C76.8399 26.6298 74.6499 25.5998 73.0899 23.8298H73.0799ZM37.9499 14.2298C37.9299 11.1798 39.1099 8.2898 41.2699 6.0998C43.4499 3.8998 46.3499 2.6798 49.4399 2.6698H49.4699C52.5499 2.6698 55.4399 3.8598 57.6099 6.0298C59.7799 8.1998 60.9799 11.0898 60.9799 14.1698C60.9799 17.2498 59.7799 20.1498 57.6099 22.3098C55.4399 24.4698 52.5399 25.6698 49.4599 25.6698C43.1599 25.6698 37.9999 20.5398 37.9499 14.2298ZM11.2099 18.6898C11.0799 16.4798 11.8699 14.2698 13.3699 12.5998C14.8899 10.9198 17.0199 9.9398 19.3799 9.8398C19.4999 9.8398 19.6199 9.8398 19.7399 9.8398C24.1799 9.8398 27.8899 13.3598 28.0799 17.8498C28.2599 19.9998 27.5699 22.0998 26.1399 23.7498C24.6099 25.5298 22.4199 26.5898 19.9799 26.7398C19.8199 26.7398 19.6499 26.7498 19.4899 26.7498C17.4999 26.7498 15.5399 26.0098 14.0299 24.6698C12.3499 23.1798 11.3399 21.0498 11.1999 18.6898H11.2099ZM24.9699 44.0498C24.7499 44.5598 24.5599 44.9998 23.7699 44.9998C18.9899 44.9798 14.2199 44.9798 9.43988 44.9798H3.69988C3.54988 44.9798 3.39988 44.9598 3.19988 44.9398C3.09988 44.9298 2.98988 44.9098 2.86988 44.8998L2.60988 44.8698L2.64988 44.6098C3.64988 38.2298 6.89988 33.7098 12.3099 31.1498C18.5999 28.1798 24.7699 28.9398 30.6499 33.3998L30.8499 33.5498L30.7099 33.7498C30.4199 34.1498 30.1199 34.5298 29.8199 34.9098C29.1699 35.7398 28.5599 36.5298 28.0899 37.3998C27.0099 39.4298 26.0599 41.5798 25.1499 43.6598L24.9799 44.0498H24.9699ZM72.2899 53.4998C72.0099 56.9698 68.8999 59.9898 65.4999 60.0998C62.6599 60.1898 59.7699 60.1898 56.9799 60.1798C55.7899 60.1798 54.5999 60.1798 53.4199 60.1798C52.4999 60.1798 51.5799 60.1798 50.6499 60.1798H49.4199H44.7599C43.3599 60.1798 41.9599 60.1798 40.5499 60.1798C38.5699 60.1798 36.5899 60.1798 34.6099 60.1698C30.5599 60.1498 27.5199 57.8598 26.8699 54.3198C26.5299 52.4898 26.5199 50.4198 26.8299 48.3398C28.1699 39.4198 33.0799 33.1998 41.4299 29.8498C50.5399 26.1898 61.5199 29.2698 67.5299 37.1798C71.1799 41.9698 72.7799 47.4598 72.2799 53.4898L72.2899 53.4998ZM75.4499 44.9998C74.5999 44.9998 74.1899 44.6898 73.9599 43.8798C73.0199 40.6198 71.7999 38.4698 68.3199 33.8798L68.1699 33.6798L68.3599 33.5298C73.7799 29.2898 79.5599 28.3098 85.5299 30.5898C91.6499 32.9298 95.3499 37.6698 96.5299 44.6898L96.5799 44.9798H90.6699C85.6899 44.9798 80.5299 44.9798 75.4599 44.9998H75.4399H75.4499Z" fill="#756F6F"/>
</g>
<defs>
<clipPath id="clip0_239_471">
<rect width="99.2733" height="62.8898" fill="white" transform="translate(-0.00341797)"/>
</clipPath>
</defs>
</svg>
