<?xml version="1.0" encoding="utf-8"?>
<!-- Generator: Adobe Illustrator 28.0.0, SVG Export Plug-In . SVG Version: 6.00 Build 0)  -->
<svg version="1.1" id="Capa_1" xmlns="http://www.w3.org/2000/svg" xmlns:xlink="http://www.w3.org/1999/xlink" x="0px" y="0px"
	 viewBox="0 0 252.7 159.9" style="enable-background:new 0 0 252.7 159.9;" xml:space="preserve">
<style type="text/css">
	.st0{fill:#FAFAF8;stroke:#FFFFFF;stroke-miterlimit:10;}
	.st1{fill:#FFFFFF;stroke:#FFFFFF;stroke-miterlimit:10;}
	.st2{fill:#FFFFFF;}
	.st3{fill:#020203;stroke:#FFFFFF;stroke-miterlimit:10;}
</style>
<g>
	<g>
		<path class="st0" d="M27.1,121.7c-0.2,1-1.5,1.7-2.5,1.4c-0.8-0.2-1.6-0.4-2.4-0.6c-0.1,0-0.5-0.1-0.4-0.1l-0.3,0
			c-0.4,0-0.8-0.1-1.2-0.1c-0.8,0-1.5,0-2.3,0.1c-0.2,0-0.3,0-0.5,0.1c-0.1,0-0.2,0-0.3,0.1c-0.4,0.1-0.8,0.1-1.1,0.2
			c-0.7,0.1-1.3,0.3-2,0.6c-0.3,0.1-0.6,0.2-1,0.4c0.1,0,0,0-0.2,0.1c0,0,0,0,0,0h0c-0.1,0.1-0.3,0.1-0.4,0.2
			c-0.6,0.3-1.2,0.6-1.8,1c-0.3,0.2-0.6,0.4-0.9,0.6c-0.1,0.1-0.3,0.2-0.4,0.3c-0.1,0.1-0.5,0.4-0.2,0.1c-0.5,0.4-1,0.9-1.5,1.3
			c-0.5,0.5-1,1-1.4,1.5l-0.1,0.1c0,0,0,0-0.1,0.1l-0.3,0.4c-0.2,0.3-0.4,0.6-0.5,0.8L4.9,131c0,0.1,0,0.1-0.1,0.2
			c-0.1,0.1-0.1,0.3-0.1,0.5c-0.1,0.2-0.1,0.4-0.1,0.6c0,0,0,0,0,0.1v0.1c0,0.1,0,0.3,0,0.4c0,0,0,0.1,0,0.1l0,0c0,0,0,0,0,0.1
			c0,0,0,0.1,0,0.1c0.1,0.1,0.1,0.3,0.2,0.4l0.1,0.1c0.1,0.1,0.2,0.2,0.3,0.3c0,0.1,0.1,0.1,0.1,0.1c0.1,0,0.4,0.3,0.5,0.3
			c0.1,0.1,0.3,0.2,0.4,0.2c-0.1-0.1,0-0.1,0.2,0.1h0c0,0,0,0,0.1,0c0,0,0,0,0,0c0.3,0.1,0.6,0.2,0.9,0.3c0.1,0,0.1,0,0.1,0
			c0.1,0,0.1,0,0.1,0c0.2,0,0.4,0,0.6,0c0.9,0.1,1.8,0.1,2.7,0c0.5,0,1-0.1,1.5-0.1h0.2c0,0,0,0,0.1,0c0.2-0.1,0.4-0.1,0.7-0.1
			c1.8-0.3,3.6-0.8,5.3-1.5c1.1-0.4,2.2,0.4,2.5,1.4c0.1,0.5,0,1.1-0.2,1.5c-0.3,0.5-0.7,0.7-1.2,0.9c-2.2,0.9-4.5,1.5-6.9,1.8
			c-1.1,0.1-2.2,0.2-3.4,0.2s-2.3,0-3.4-0.3c-1.9-0.4-3.6-1.6-4.6-3.1c-1.1-1.6-1-3.7-0.4-5.5c0.6-1.7,1.6-3.1,2.8-4.5
			c1-1.3,2.3-2.3,3.6-3.3c5.2-3.8,12.3-5.2,18.4-3.2C26.8,119.6,27.4,120.6,27.1,121.7z M4.5,133c0,0,0-0.1,0-0.1
			C4.5,132.9,4.5,132.9,4.5,133z M4.5,133L4.5,133L4.5,133z M6.2,134.7C6.2,134.7,6.3,134.7,6.2,134.7l0.1,0
			C6.3,134.7,6.2,134.7,6.2,134.7z M7.4,135C7.4,135,7.4,135,7.4,135L7.4,135L7.4,135z M7.5,135C7.5,135,7.4,135,7.5,135
			C7.5,135,7.5,135,7.5,135z M13.1,123.7C13.1,123.7,13.1,123.7,13.1,123.7L13.1,123.7z"/>
		<path class="st0" d="M57.1,131.6c-0.2,1.2-1.5,1.7-2.5,1.5c-3-0.6-5.4-2.6-7.8-4.5c-0.6-0.4-1.2-0.9-1.9-1.3
			c-0.3-0.2-0.7-0.4-1-0.6c-0.1-0.1-0.3-0.2-0.4-0.2c-0.1,0-0.3-0.1-0.3-0.1c-0.3-0.1-0.6-0.2-1-0.3c-0.1,0-0.1-0.1-0.1-0.1
			c-1.9,2.5-3.9,5-5.9,7.3c-0.7,0.8-1.9,0.8-2.6,0.2c-0.8-0.7-1-1.8-0.5-2.7l0.4-0.8c0.2-0.5,0.6-0.8,1.1-0.9
			c1.1-1.2,2.1-2.5,3.1-3.7c-0.1-0.2-0.2-0.4-0.3-0.7c-0.3-1.1,0.4-2.3,1.4-2.6c0.5-0.1,1-0.2,1.6-0.3l0.3-0.5
			c0.4-0.7,0.9-1.3,1.3-2c0.9-1.3,1.7-2.7,2.5-4.1c0.5-0.8,1.4-1.2,2.2-1c0.1-0.5,0.4-0.9,0.9-1.2c0.9-0.6,2.2-0.2,2.7,0.8
			c0.8,1.6,1.7,3.1,2.1,4.8c0.4,1.5,0.6,3.1,1.1,4.6c0.1,0.3,0.3,0.6,0.3,0.9c0-0.1,0-0.1,0-0.1c0,0.1,0.1,0.3,0.1,0.3
			c0.1,0.2,0.1,0.4,0.3,0.5c0.3,0.6,0.6,1.2,1,1.8l0.1,0.2c0.1,0.2,0.3,0.3,0.4,0.4l0.8,1.1C57.1,129.4,57.3,130.4,57.1,131.6z
			 M43.5,126.5l-0.1,0C43.4,126.5,43.4,126.5,43.5,126.5z M50.1,125.9c-0.2-0.6-0.4-1.1-0.6-1.7c-0.4-1.5-0.6-3-1.1-4.5
			c-0.1-0.4-0.2-0.8-0.4-1.1c0,0,0-0.1,0-0.1c-0.1-0.2-0.2-0.4-0.3-0.6c-0.1-0.1-0.1-0.2-0.1-0.3c-1,1.6-2,3.2-3,4.8
			C46.6,123.2,48.3,124.5,50.1,125.9L50.1,125.9z"/>
		<path class="st0" d="M77.8,135.4c-1.7,0.9-3.6,0.8-5.4,0.4s-3.6-0.9-5.4-1.4c-1.9-0.5-3.9-1-5.8-1.6c-1.1-0.3-1.7-1.4-1.4-2.5
			c0.3-1.1,1.5-1.7,2.5-1.4c2.2,0.6,4.5,1.2,6.7,1.8c1.1,0.3,2.2,0.6,3.3,0.9c0.4,0.1,0.8,0.2,1.2,0.3c0.2,0,0.4,0,0.6,0.1
			c0.1,0,0.2,0,0.3,0c0.2,0,0.4,0,0.6,0h0.2c0.1,0,0.1,0,0.1,0c0.1,0,0.1,0,0.1-0.1c0.1,0,0.1,0,0.1,0c0.1,0,0.1,0,0.2-0.1
			c0.1,0,0.1-0.1,0.1-0.1v0c0,0,0,0,0,0h0c0.1-0.1,0.1-0.1,0.1-0.1l-0.1,0.1c0,0,0,0,0,0c0.2-0.1,0.1-0.1,0.1-0.1
			c0.1,0,0.1-0.1,0.1-0.1c0,0,0.1-0.1,0.1-0.1l0.1-0.1c0,0,0,0,0-0.1l0.1-0.1c0,0,0,0,0-0.1v-0.1c0,0,0-0.1,0-0.1c0,0,0,0.1,0,0.1
			V131c0-0.1,0-0.3,0-0.4c0,0,0,0,0-0.1c0-0.2-0.1-0.4-0.1-0.5c0,0-0.1-0.1-0.1-0.1l-0.5-0.8c0,0-0.1-0.1-0.1-0.1l-0.3-0.4
			c-0.1-0.1-0.2-0.2-0.3-0.3l-0.1-0.1c0,0,0,0,0,0c-0.7-0.5-1.4-0.8-2.2-1.2c-1.5-0.7-3.1-1.2-4.4-2.2c-1.5-1-2.5-2.3-3.1-4
			c-0.6-1.5-0.5-3.3,0.2-4.8c0.3-0.7,1-1.5,1.7-1.8c0.1-0.1,0.2-0.1,0.3-0.2l0.2-0.1c0.1-0.1,0.3-0.1,0.4-0.2
			c0.4-0.2,0.8-0.3,1.2-0.4c0.9-0.1,1.9-0.1,2.8,0.2c1,0.4,1.8,1,2.5,1.9c0.6,0.9,0.1,2.2-0.7,2.7c-0.4,0.3-1.1,0.3-1.5,0.2
			c-0.5-0.1-0.9-0.5-1.2-0.9c0.3,0.4,0.1,0.1-0.1,0l-0.2-0.1c0,0-0.1,0-0.1,0c-0.1,0-0.1,0-0.2,0h-0.4c0,0-0.1,0-0.1,0c0,0,0,0,0,0
			h-0.1c-0.1,0-0.1,0.1-0.1,0.1l-0.4,0.3c0,0-0.1,0-0.1,0.1c-0.1,0-0.1,0.1-0.1,0.1h0c0,0,0.1-0.1,0.2-0.1l-0.2,0.2c0,0,0,0,0,0.1v0
			c0,0,0,0.1,0,0.1l0,0c0,0.1,0,0.1-0.1,0.2c0,0,0-0.1,0-0.1c0,0-0.1,0.1-0.1,0.1c0,0,0,0.1,0,0.2v0.1c0,0.1,0,0.1,0,0.1
			c0,0.1,0,0.3,0,0.4l0,0.1c0,0.2,0.1,0.3,0.1,0.5c0,0.1,0.1,0.2,0.1,0.3c0,0.1,0.1,0.1,0.1,0.2c0.1,0.1,0.1,0.2,0.2,0.4l0.3,0.4
			c-0.1-0.1-0.1-0.2-0.1-0.2l0.2,0.3c0.1,0.1,0.2,0.2,0.3,0.3l0.1,0.1c1.3,0.9,2.8,1.5,4.3,2.2c1.5,0.7,3,1.5,4,2.7
			c1.1,1.3,1.9,2.9,2,4.7C80.4,132.7,79.4,134.5,77.8,135.4z M68.7,118.3c0-0.1,0-0.1,0-0.2C68.7,118.2,68.7,118.3,68.7,118.3z
			 M68.8,118.1C68.8,118.1,68.7,118.1,68.8,118.1L68.8,118.1C68.7,118.1,68.8,118.1,68.8,118.1z M70,121.2
			C70,121.2,70.1,121.2,70,121.2C70,121.2,69.8,121,70,121.2z M75.4,132c-0.1,0-0.2,0-0.3,0.1C75.2,132,75.3,132,75.4,132z
			 M76.3,131.3C76.3,131.3,76.3,131.3,76.3,131.3C76.3,131.3,76.3,131.3,76.3,131.3z M76.3,131.1L76.3,131.1c0,0.1,0,0.1,0,0.2
			C76.3,131.2,76.3,131.2,76.3,131.1z M76.3,131.4C76.3,131.4,76.3,131.4,76.3,131.4C76.3,131.3,76.3,131.4,76.3,131.4z"/>
		<path class="st0" d="M107.6,131.6c-0.2,1.2-1.5,1.7-2.5,1.5c-3-0.6-5.4-2.6-7.8-4.5c-0.6-0.4-1.2-0.9-1.9-1.3
			c-0.3-0.2-0.7-0.4-1-0.6c-0.1-0.1-0.3-0.2-0.4-0.2c-0.1,0-0.3-0.1-0.3-0.1c-0.3-0.1-0.6-0.2-1-0.3c-0.1,0-0.1-0.1-0.1-0.1
			c-1.9,2.5-3.9,5-5.9,7.3c-0.7,0.8-1.9,0.8-2.6,0.2c-0.8-0.7-1-1.8-0.5-2.7l0.4-0.8c0.2-0.5,0.6-0.8,1.1-0.9
			c1.1-1.2,2.1-2.5,3.1-3.7c-0.1-0.2-0.2-0.4-0.3-0.7c-0.3-1.1,0.4-2.3,1.4-2.6c0.5-0.1,1-0.2,1.6-0.3l0.3-0.5
			c0.4-0.7,0.9-1.3,1.3-2c0.9-1.3,1.7-2.7,2.5-4.1c0.5-0.8,1.4-1.2,2.2-1c0.1-0.5,0.4-0.9,0.9-1.2c0.9-0.6,2.2-0.2,2.7,0.8
			c0.8,1.6,1.7,3.1,2.1,4.8c0.4,1.5,0.6,3.1,1.1,4.6c0.1,0.3,0.3,0.6,0.3,0.9c0-0.1,0-0.1,0-0.1c0,0.1,0.1,0.3,0.1,0.3
			c0.1,0.2,0.1,0.4,0.3,0.5c0.3,0.6,0.6,1.2,1,1.8l0.1,0.2c0.1,0.2,0.3,0.3,0.4,0.4l0.8,1.1C107.6,129.4,107.7,130.4,107.6,131.6z
			 M93.9,126.5l-0.1,0C93.9,126.5,93.9,126.5,93.9,126.5z M100.6,125.9c-0.2-0.6-0.4-1.1-0.6-1.7c-0.4-1.5-0.6-3-1.1-4.5
			c-0.1-0.4-0.2-0.8-0.4-1.1c0,0,0-0.1,0-0.1c-0.1-0.2-0.2-0.4-0.3-0.6c-0.1-0.1-0.1-0.2-0.1-0.3c-1,1.6-2,3.2-3,4.8
			C97,123.2,98.8,124.5,100.6,125.9L100.6,125.9z"/>
		<path class="st0" d="M137.6,135.5c-0.3,0.2-0.6,0.3-1,0.4c-0.5,0.1-1-0.1-1.4-0.3c-1.8,0.1-3.8,0.1-5.4-1c-1-0.6-1.3-1.7-0.7-2.7
			c0.5-0.9,1.9-1.3,2.7-0.7c0.1,0.1,0.2,0.1,0.3,0.2c0.2,0.1,0.4,0.1,0.6,0.2l0.3,0.1c0.2,0,0.4,0,0.6,0h0c-1.3-5.1-2-10.4-2.3-15.6
			c-0.1-1,0.8-1.8,1.7-2c0-0.2,0-0.5,0.1-0.8c0.2-1,1.5-1.7,2.5-1.4c4.1,1.2,8.2,2.9,12,5.1c3,1.7,5.8,3.7,7.7,6.6
			c1,1.6,1.9,3.6,1.7,5.5c-0.2,2.1-1.5,3.9-3.5,4.9c-1.8,0.9-3.9,1.1-6,1.2c-2,0.1-3.9,0.2-5.9,0.3
			C140.3,135.4,139,135.5,137.6,135.5z M135.4,116c0.1,1.5,0.2,3,0.3,4.5c0.1,0.4,0.1,0.8,0.1,1.1l0.1,0.6c0,0,0,0.1,0,0.1v0.1
			c0.1,0.8,0.2,1.5,0.3,2.2c0.4,2.3,0.9,4.6,1.5,6.9c1.7-0.1,3.3-0.1,5-0.1c1.8-0.1,3.7-0.1,5.5-0.3c0.4,0,0.8-0.1,1.2-0.1
			c0.1,0,0.2,0,0.3-0.1c0.2,0,0.4-0.1,0.6-0.1c0.2-0.1,0.5-0.1,0.7-0.2l0.3-0.1c0.3-0.1,0.5-0.3,0.8-0.5c0,0,0.1-0.1,0.1-0.1
			c0.1-0.1,0.2-0.2,0.3-0.3l0.1-0.2c0.1-0.1,0.1-0.1,0.1-0.2c0-0.1,0.1-0.2,0.1-0.3v-0.1c0-0.1,0-0.2,0-0.3v-0.2
			c-0.1-0.1-0.1-0.5-0.1-0.6c-0.1-0.3-0.1-0.5-0.2-0.7l-0.1-0.2c-0.1-0.3-0.3-0.6-0.4-0.9c-0.2-0.3-0.4-0.6-0.6-1c0,0,0,0,0-0.1
			l-0.1-0.1c-0.1-0.1-0.2-0.3-0.3-0.4c-0.5-0.6-1-1.1-1.6-1.5l-0.5-0.4l0,0l-0.1-0.1c-0.3-0.2-0.6-0.4-0.9-0.6
			c-1.3-0.9-2.7-1.7-4.1-2.4c-0.8-0.4-1.5-0.8-2.3-1.1c-0.4-0.2-0.8-0.4-1.3-0.6l-0.2-0.1c0,0,0,0-0.1,0c-0.2-0.1-0.4-0.2-0.6-0.2
			C138.1,116.9,136.8,116.4,135.4,116z M152.9,128.3L152.9,128.3C152.9,127.9,152.9,128.2,152.9,128.3z"/>
		<path class="st0" d="M168,117.9c-0.1,1.3-0.2,2.5-0.4,3.8c-0.6,5.7-0.6,4.8-1,10.5c-0.1,1.1-0.9,2-2,2c-1,0.1-2.1-1-2-2
			c0.1-1.3,0.3-2.5,0.4-3.8l1-10.5c0.1-1.1,0.8-1.9,2-2C167,115.9,168.1,116.9,168,117.9z"/>
		<path class="st0" d="M195.5,110.1c0.6,1,0.1,2.2-0.7,2.7c-2.2,1.6-4.6,2.9-7.3,3.8c-2.1,0.7-4.3,1-6.5,1.4c-0.1,0-0.1,0-0.2,0
			c-0.1,1.2-0.3,2.4-0.4,3.6c2.3-0.5,4.6-0.9,6.9-1.1c1.1-0.1,2,1,2,2c0.1,1.1-1,1.9-2,2c-0.7,0.1-1.3,0.1-2,0.2h-0.1
			c0,0-0.1,0-0.1,0l-0.5,0.1c-0.3,0.1-0.6,0.1-1,0.2c-1.3,0.2-2.5,0.5-3.7,0.9c-0.3,2.1-0.5,4.3-0.8,6.4c1.2-0.4,2.5-0.8,3.7-1.3
			c0.3-0.1,0.6-0.2,0.9-0.4c0.1-0.1,0.3-0.1,0.4-0.2c0.4-0.2,0.8-0.4,1.2-0.6c-0.2-0.3-0.4-0.6-0.6-1c-0.6-1-0.2-2.2,0.7-2.7
			c0.9-0.6,2.2-0.2,2.7,0.7c0.4,0.7,0.9,1.5,1.3,2.2c0.4,0.8,0.5,1.7,0.1,2.5c-0.3,0.5-0.8,0.9-1.2,1.2c-1.1,0.7-2.4,1.3-3.7,1.8
			c-2.4,1-5,1.7-7.5,2.5c-0.7,0.2-1.5,0-1.9-0.5c-0.6-0.5-0.6-1.2-0.5-1.9c0.1-0.8,0.2-1.5,0.3-2.3v0.1c0-0.1,0-0.3,0-0.3l0.1-0.6
			c0.1-0.4,0.1-0.8,0.1-1.1c0.2-1.5,0.4-3,0.6-4.5c0.4-3,0.7-6,1-9c0.1-1.1,0.8-2,2-2c0.3-0.3,0.6-0.6,1-0.7
			c2.2-0.4,4.3-0.7,6.4-1.4c0.5-0.2,1-0.3,1.5-0.5c0,0,0,0,0.1,0c0.1-0.1,0.3-0.1,0.4-0.2c0.3-0.1,0.5-0.3,0.8-0.4
			c1.3-0.7,2.5-1.4,3.7-2.3C193.7,108.7,194.9,109.2,195.5,110.1z M186.5,129.2c0.1-0.1,0.1-0.1,0.1-0.1
			C186.5,129.1,186.5,129.2,186.5,129.2z"/>
		<path class="st0" d="M216.5,116.5L216.5,116.5c-0.2,0-0.4,0.1-0.6,0.1c-0.5,0.1-0.9,0.2-1.4,0.3c-0.4,0.1-0.9,0.3-1.3,0.4
			l-0.7,0.3c0,0-0.2,0.1-0.2,0.1c0,0,0,0-0.1,0c-0.8,0.4-1.7,0.8-2.5,1.3c-0.3,0.2-0.6,0.4-0.9,0.6l-0.1,0.1c0,0,0,0,0,0
			c0,0,0,0-0.1,0l-0.1,0.1c-0.1,0.1-0.3,0.2-0.4,0.4c-0.6,0.5-1.1,1-1.6,1.6l-0.7,0.8c0,0.1-0.1,0.1-0.1,0.2
			c-0.1,0.1-0.2,0.3-0.3,0.4c-0.4,0.6-0.8,1.3-1.1,1.9c-0.2,0.3-0.3,0.6-0.5,1v0c0,0,0,0,0,0c0,0,0,0,0,0.1c0,0.1,0,0.1-0.1,0.2
			c-0.1,0.2-0.1,0.3-0.2,0.5c-0.1,0.3-0.2,0.7-0.3,1l-0.1,0.5c0,0.1,0,0.1,0,0.2c0,0.2,0,0.4,0,0.6c0,0.1,0,0.1,0,0.2l0.1,0.4
			c0,0,0,0.1,0,0.1l0.1,0.2c0.1,0.1,0.1,0.2,0.2,0.3c0.1,0,0.1,0.1,0.1,0.1l0.2,0.1c0.3,0.1,0.6,0.2,1,0.3c0.2,0,0.3,0,0.2,0
			c0,0-0.1,0-0.1,0c0,0,0.1,0,0.1,0h0.1c0,0,0,0,0,0c0.2,0,0.4,0,0.5,0c0.3,0,0.7,0,1.1,0c0.2,0,0.3,0,0.5,0c0.1,0,0.6-0.1,0.3,0
			l0,0c0.1,0,0.1,0,0.1,0c0.1,0,0.2,0,0.3-0.1l0.5-0.1c0.3-0.1,0.6-0.2,1-0.3l1-0.3c0,0,0,0,0,0l0,0h0l0,0c0.2-0.1,0.2-0.1,0.2-0.1
			c0.1-0.1,0.3-0.1,0.4-0.2c0.6-0.3,1.3-0.7,1.8-1.1l0.2-0.2c0.1-0.1,0.2-0.2,0.3-0.3c0.3-0.2,0.5-0.4,0.7-0.7l0.7-0.7h0h-0.1h0
			l-0.5,0.1c-0.3,0.1-0.7,0.1-1,0.2c-0.7,0.1-1.3,0.3-2,0.5c-1.1,0.3-2.2-0.4-2.5-1.4c-0.3-1.1,0.4-2.2,1.4-2.5
			c1.7-0.5,3.4-0.8,5.2-1c0.8-0.1,1.5-0.1,2.2,0.1c1,0.2,1.8,0.8,2.4,1.7c0.4,0.6,0.3,1.4,0,2.1c-1.7,3.5-4.8,6.1-8.5,7.5
			c-1.5,0.6-3.2,0.9-4.9,0.9c-2,0.1-4-0.3-5.6-1.7c-1.7-1.4-1.9-3.7-1.7-5.7c0.3-1.7,1-3.4,1.8-4.9c3.7-6.6,11-10.8,18.6-10.4
			c1.2,0.1,2,0.9,2.1,2.1c0,1.1-1,2.1-2.1,2c-0.9-0.1-1.8,0-2.8,0.1C216.8,116.5,216.7,116.5,216.5,116.5L216.5,116.5L216.5,116.5z
			 M203.9,126.2L203.9,126.2L203.9,126.2z M208.8,119.7L208.8,119.7C208.8,119.8,208.7,119.8,208.8,119.7z M210.3,130L210.3,130
			L210.3,130z M214.9,126.5c0.1-0.1,0.1-0.1,0.1-0.1C215,126.4,214.9,126.5,214.9,126.5z"/>
		<path class="st0" d="M252,121.1c-0.5,2.5-1.8,4.7-3.4,6.6c-1.6,1.8-3.6,3.2-5.8,4.2c-2.3,1-4.9,1.7-7.4,1.4
			c-2.6-0.3-5.3-1.3-6.6-3.9c-1.1-2.3-1.1-5-0.3-7.3c0.9-2.4,2.4-4.4,4.5-5.8c1.1-0.7,2.5-1.3,3.9-1.5c0.8-0.6,1.7-1.3,2.6-1.8
			c1-0.5,2.1-1,3.2-1.3c2.6-0.8,5.9-0.9,7.8,1.4C252.3,115.4,252.5,118.5,252,121.1z M248.1,119.9c0.1-0.2,0.1-0.5,0.1-0.7v-0.9
			c0-0.1,0-0.2,0-0.3v0c-0.1-0.4-0.2-1-0.3-1.4c0-0.1,0-0.1,0-0.1c0,0,0,0.1,0,0.1c0,0,0-0.1-0.1-0.1c0,0,0,0,0-0.1
			c0-0.1-0.1-0.1-0.1-0.2c-0.1-0.1-0.1-0.1-0.1-0.2h0c-0.1-0.1-0.1-0.2-0.2-0.2c-0.1-0.1-0.3-0.1-0.4-0.2c0,0-0.1,0-0.1,0l-0.3-0.1
			c0.2,0.1-0.1,0-0.2,0h-0.6c-0.1,0-0.2,0-0.3,0h-0.1c-0.2,0-0.1,0.1,0,0.1c-0.2,0.1-0.5,0.1-0.6,0.1c-0.3,0.1-0.5,0.1-0.7,0.2
			c-0.4,0.1-0.8,0.2-1.2,0.4c-0.1,0.1-0.2,0.1-0.3,0.1l-0.2,0.1c0.1,0.2,0.1,0.3,0.1,0.5c0,0.5-0.3,1.1-0.6,1.5
			c-0.3,0.3-1,0.6-1.4,0.6c-0.6-0.1-1.1-0.1-1.7-0.1h-0.3c0.1,0,0.1,0,0,0c-0.1,0-0.2,0-0.2,0.1c-0.2,0.1-0.4,0.1-0.7,0.1l-0.8,0.3
			c-0.1,0-0.6,0.3-0.3,0.1c0.3-0.2-0.1,0.1-0.1,0.1c-0.3,0.1-0.5,0.3-0.7,0.4c-0.2,0.1-0.6,0.3-0.7,0.4c0.2-0.2,0.3-0.2,0.1-0.1
			l-0.2,0.1c-0.1,0.1-0.2,0.2-0.3,0.3c-0.2,0.2-0.4,0.4-0.6,0.6c-0.1,0.1-0.2,0.2-0.3,0.3c-0.1,0-0.4,0.5-0.4,0.6l-0.4,0.7
			c-0.1,0.1-0.1,0.3-0.2,0.4c-0.1,0.3-0.4,1.3-0.4,1.4c0,0.1,0,0.4-0.1,0.5c0,0.2,0,0.3,0,0.5c0,0.2,0,0.4,0,0.7v0.1
			c0,0.1,0,0.1,0,0.1c0.1,0.3,0.1,0.5,0.2,0.8c0,0,0,0.1,0.1,0.1c0,0,0,0,0,0.1c0,0,0,0.1,0,0.1c0,0,0,0.1,0,0.1c0,0,0,0,0,0
			c0.1,0.2,0.2,0.3,0.3,0.5c0.1,0.1,0.1,0.1,0.2,0.2c0.1,0.1,0.3,0.3,0.3,0.3c-0.2-0.2-0.3-0.2-0.1-0.1c0,0,0,0,0.1,0
			c0.2,0.1,0.4,0.3,0.6,0.3l0.2,0.1c-0.1,0-0.1-0.1-0.2-0.1c0,0,0.1,0.1,0.2,0.1c0.1,0,0.1,0.1,0.2,0.1c0.2,0.1,0.4,0.1,0.7,0.2
			l0.4,0.1c0.1,0,0.2,0,0.3,0.1c-0.1,0-0.2,0-0.3,0c0.2,0.1,0.5,0.1,0.7,0.1c0.5,0,1,0,1.5,0c0.1,0,0.3,0,0.4-0.1h0
			c0.3-0.1,0.5-0.1,0.7-0.1c0.5-0.1,1-0.2,1.4-0.4c0.3-0.1,0.5-0.2,0.8-0.3c0.1,0,0.2-0.1,0.3-0.1c0.4-0.2,0.9-0.4,1.3-0.7
			c0.4-0.3,0.9-0.6,1.3-0.9c0,0,0.1-0.1,0.1-0.1c0,0,0.1-0.1,0.1-0.1c0.2-0.1,0.3-0.3,0.5-0.4c0.4-0.3,0.7-0.7,1.1-1.1l0.4-0.5
			c0,0,0.1-0.1,0.1-0.1c0.1-0.1,0.1-0.1,0.1-0.2c0.3-0.4,0.6-0.8,0.8-1.3c0.1-0.2,0.2-0.4,0.3-0.6l0.1-0.1c0.1-0.1,0.1-0.2,0.1-0.3
			c0.2-0.5,0.3-1,0.4-1.6C248,120.1,248,120,248.1,119.9L248.1,119.9z M232,126.2c0,0,0-0.1,0-0.1L232,126.2z M232.3,127.3
			C232.3,127.2,232.3,127.2,232.3,127.3L232.3,127.3z M232.3,127.3c0,0,0.1,0.1,0.1,0.2l0,0C232.3,127.4,232.3,127.3,232.3,127.3z
			 M238,118.8c0.1,0,0.1,0,0.1,0c0,0,0.1,0,0.1,0C238.1,118.8,238,118.8,238,118.8z M247.7,116.3L247.7,116.3
			C247.7,116.4,247.7,116.4,247.7,116.3L247.7,116.3z M248.1,119.6c0,0.1,0,0.2,0,0.3C248.1,119.8,248.1,119.7,248.1,119.6z"/>
		<g>
			<path class="st1" d="M10,159.3v-8.2l-3.6,6.3H5.8l-3.6-6.3v8.2h-1v-9.9h1l3.9,6.8l3.9-6.8h1v9.9H10z"/>
			<path class="st1" d="M20.4,149.3h0.8l4.1,9.9h-1l-1.3-3.1h-4.5l-1.3,3.1h-1L20.4,149.3z M22.8,155.4l-2-4.9l-2,4.9H22.8z"/>
			<path class="st1" d="M30.7,159.3v-9.9h4.2c0.4,0,0.8,0.1,1.2,0.3s0.7,0.4,0.9,0.7c0.3,0.3,0.5,0.6,0.6,1c0.1,0.4,0.2,0.8,0.2,1.1
				c0,0.4-0.1,0.7-0.2,1c-0.1,0.3-0.3,0.6-0.4,0.9s-0.4,0.5-0.7,0.7c-0.3,0.2-0.6,0.3-0.9,0.4l2.4,3.8H37l-2.3-3.7h-2.9v3.7H30.7z
				 M31.7,154.7H35c0.3,0,0.6-0.1,0.8-0.2s0.4-0.3,0.6-0.5c0.2-0.2,0.3-0.5,0.4-0.7s0.1-0.6,0.1-0.9c0-0.3-0.1-0.6-0.2-0.9
				c-0.1-0.3-0.3-0.5-0.4-0.7c-0.2-0.2-0.4-0.4-0.6-0.5c-0.2-0.1-0.5-0.2-0.8-0.2h-3.2V154.7z"/>
			<path class="st1" d="M46.7,149.3h0.8l4.1,9.9h-1l-1.3-3.1h-4.5l-1.3,3.1h-1L46.7,149.3z M49.1,155.4l-2-4.9l-2,4.9H49.1z"/>
			<path class="st1" d="M57,159.3v-9.9h3.4c0.8,0,1.5,0.1,2.1,0.4c0.6,0.3,1.1,0.6,1.5,1.1c0.4,0.4,0.7,1,0.9,1.6
				c0.2,0.6,0.3,1.2,0.3,1.9c0,0.8-0.1,1.4-0.3,2.1c-0.2,0.6-0.5,1.1-1,1.6c-0.4,0.4-0.9,0.8-1.5,1c-0.6,0.2-1.2,0.4-2,0.4H57z
				 M64.2,154.3c0-0.6-0.1-1.1-0.3-1.6s-0.4-0.9-0.7-1.3c-0.3-0.4-0.7-0.6-1.2-0.8c-0.5-0.2-1-0.3-1.6-0.3H58v8.2h2.4
				c0.6,0,1.2-0.1,1.6-0.3c0.5-0.2,0.9-0.5,1.2-0.9c0.3-0.4,0.6-0.8,0.7-1.3C64.1,155.4,64.2,154.9,64.2,154.3z"/>
			<path class="st1" d="M75,159.4c-0.7,0-1.3-0.1-1.9-0.4c-0.6-0.3-1.1-0.7-1.5-1.1c-0.4-0.5-0.7-1-1-1.6c-0.2-0.6-0.3-1.2-0.3-1.9
				c0-0.7,0.1-1.3,0.4-1.9s0.6-1.1,1-1.6c0.4-0.5,0.9-0.8,1.5-1.1s1.2-0.4,1.8-0.4c0.7,0,1.3,0.1,1.9,0.4s1.1,0.7,1.5,1.2
				c0.4,0.5,0.7,1,0.9,1.6c0.2,0.6,0.3,1.2,0.3,1.8c0,0.7-0.1,1.3-0.4,1.9c-0.2,0.6-0.6,1.1-1,1.6s-0.9,0.8-1.5,1.1
				C76.2,159.2,75.6,159.4,75,159.4z M71.3,154.3c0,0.5,0.1,1.1,0.3,1.6c0.2,0.5,0.4,0.9,0.8,1.3c0.3,0.4,0.7,0.7,1.2,0.9
				c0.4,0.2,0.9,0.3,1.5,0.3c0.6,0,1.1-0.1,1.5-0.4c0.5-0.2,0.8-0.6,1.2-1s0.6-0.8,0.7-1.3c0.2-0.5,0.3-1,0.3-1.5
				c0-0.5-0.1-1.1-0.3-1.6c-0.2-0.5-0.4-0.9-0.8-1.3c-0.3-0.4-0.7-0.7-1.2-0.9c-0.4-0.2-0.9-0.3-1.5-0.3c-0.6,0-1.1,0.1-1.5,0.4
				c-0.5,0.2-0.8,0.6-1.2,0.9c-0.3,0.4-0.6,0.8-0.7,1.3C71.4,153.3,71.3,153.8,71.3,154.3z"/>
			<path class="st1" d="M86.4,151.2v8.1h-1v-9.9h0.8l6.6,8.3v-8.3h1v9.9h-0.9L86.4,151.2z"/>
			<path class="st1" d="M103.2,149.3h0.8l4.1,9.9h-1l-1.3-3.1h-4.5l-1.3,3.1h-1L103.2,149.3z M105.6,155.4l-2-4.9l-2,4.9H105.6z"/>
			<path class="st1" d="M120.6,159.3v-9.9h6.5v0.9h-5.5v3.7h4.7v0.8h-4.7v4.6H120.6z"/>
			<path class="st1" d="M134.7,149.3h0.8l4.1,9.9h-1l-1.3-3.1h-4.5l-1.3,3.1h-1L134.7,149.3z M137.1,155.4l-2-4.9l-2,4.9H137.1z"/>
			<path class="st1" d="M153.8,159.3v-8.2l-3.6,6.3h-0.6l-3.6-6.3v8.2h-1v-9.9h1l3.9,6.8l3.9-6.8h1v9.9H153.8z"/>
			<path class="st1" d="M161.2,159.3v-9.9h1v9.9H161.2z"/>
			<path class="st1" d="M168.6,159.3v-9.9h1v9.1h5.7v0.9H168.6z"/>
			<path class="st1" d="M179.1,149.3l3.2,5.3l3.3-5.3h1.1l-3.9,6.2v3.7h-1v-3.7l-3.8-6.2H179.1z"/>
			<path class="st1" d="M206.9,149.3v9.9h-1v-4.6H200v4.6h-1v-9.9h1v4.4h5.9v-4.4H206.9z"/>
			<path class="st1" d="M217.3,159.4c-0.7,0-1.3-0.1-1.9-0.4c-0.6-0.3-1.1-0.7-1.5-1.1c-0.4-0.5-0.7-1-1-1.6
				c-0.2-0.6-0.3-1.2-0.3-1.9c0-0.7,0.1-1.3,0.4-1.9s0.6-1.1,1-1.6c0.4-0.5,0.9-0.8,1.5-1.1s1.2-0.4,1.8-0.4c0.7,0,1.3,0.1,1.9,0.4
				s1.1,0.7,1.5,1.2c0.4,0.5,0.7,1,0.9,1.6c0.2,0.6,0.3,1.2,0.3,1.8c0,0.7-0.1,1.3-0.4,1.9c-0.2,0.6-0.6,1.1-1,1.6s-0.9,0.8-1.5,1.1
				C218.6,159.2,218,159.4,217.3,159.4z M213.6,154.3c0,0.5,0.1,1.1,0.3,1.6c0.2,0.5,0.4,0.9,0.8,1.3c0.3,0.4,0.7,0.7,1.2,0.9
				c0.4,0.2,0.9,0.3,1.5,0.3c0.6,0,1.1-0.1,1.5-0.4c0.5-0.2,0.8-0.6,1.2-1s0.6-0.8,0.7-1.3c0.2-0.5,0.3-1,0.3-1.5
				c0-0.5-0.1-1.1-0.3-1.6c-0.2-0.5-0.4-0.9-0.8-1.3c-0.3-0.4-0.7-0.7-1.2-0.9c-0.4-0.2-0.9-0.3-1.5-0.3c-0.6,0-1.1,0.1-1.5,0.4
				c-0.5,0.2-0.8,0.6-1.2,0.9c-0.3,0.4-0.6,0.8-0.7,1.3C213.7,153.3,213.6,153.8,213.6,154.3z"/>
			<path class="st1" d="M236.5,159.3v-8.2l-3.6,6.3h-0.6l-3.6-6.3v8.2h-1v-9.9h1l3.9,6.8l3.9-6.8h1v9.9H236.5z"/>
			<path class="st1" d="M250.6,158.4v0.9h-6.7v-9.9h6.6v0.9h-5.6v3.6h4.9v0.8h-4.9v3.8H250.6z"/>
		</g>
	</g>
	<g>
		<path class="st1" d="M150.2,91.2c0.7,0.3,1.4,0.8,2.2,0.9c0.4,0.2,1,0.4,1.3,0.8c0.8,0.3,1.5,0.6,2.4,0.5c0,0,0,0,0,0
			c0-0.6,0-0.7-0.5-0.6c-0.7,0.2-1.2,0-1.4-0.7c-0.1-0.2-0.2-0.3-0.4-0.3c-1.4-0.1-2.6-1-3.8-1.5c-0.5-0.2-1-0.8-1.6-0.3
			c-0.6,0.5,0,1,0.1,1.5c0,0.1,0.1,0.1,0.2,0.2c0.1,0,0.3,0,0.1,0.2c-0.3,0.3-0.5,0.8-0.5,0.9c-0.1,0.4,0.3,0.9,0.5,1
			c0.3,0.1,1-0.8,0.9-1.5c0-0.2-0.1-0.4,0-0.5C149.7,91.4,150,91.3,150.2,91.2z"/>
		<path class="st1" d="M171,59.1"/>
		<path class="st1" d="M170.9,51.2c0.2-0.4,0.2-0.4-0.3-0.6l0,0c-0.3-1.1-0.9-2.1-0.9-3.3c0-0.6-0.1-1.2-0.3-1.7
			c-0.2-0.4-0.4-0.8-0.6-1.1c-0.2-0.3,0-0.4,0.2-0.5c0.3-0.1,0.6-0.2,0.2-0.6c-0.1-0.1-0.3-0.3-0.4-0.5c-0.1-0.2-0.3-0.3-0.4-0.5
			c-0.1-0.2-0.3-0.4,0.1-0.5c0.2,0,0.4,0.2,0.6,0.2c0.3,0,0.6,0,0.3-0.4c-0.4-0.7-1.3-1-1.8-1.6c-0.2-0.3-0.5-0.6-0.4-1
			c0.1-0.7-0.2-0.9-0.8-0.6c-0.5,0.2-1,0.1-1.4-0.1l0,0l0,0c-0.1-0.3,0.2-0.3,0.3-0.4c0.3-0.1,0.7-0.1,0.8-0.5
			c0-0.4-0.5-0.4-0.7-0.6c-0.1-0.1-0.2-0.1-0.2-0.1c-0.3-0.4-0.4-0.8-0.5-1.3c-0.3-1.5-1-2.6-2.7-2.8c-0.3-0.3-0.8-0.1-1.1-0.3
			c0.4-0.3,0.7-0.7,0.9-1.1c0.4-0.2,0.5-0.5,0.4-0.9c-0.1-0.4-0.1-0.9-0.1-1.3c0-0.7-0.1-1.4-0.5-2c-0.2-1-0.9-1.4-1.7-1.8
			c-0.4-0.2-0.5,0.1-0.8,0.3c-0.1,0.1-0.2,0.1-0.3,0.2c-0.1,0.1-0.2,0.2-0.3,0.3c-0.2,0.1-0.4,0.1-0.5-0.1c-0.1-0.2,0.1-0.4,0.2-0.5
			l0,0c0.1-0.1,0.1-0.2,0-0.2c-0.2,0-0.3,0-0.5,0.1c-0.2,0.1-0.5,0.2-0.7,0.2c-0.1,0-0.2,0-0.3,0c-0.3-0.3-0.3-0.9-0.7-1.1
			c0.1,0,0.2-0.1,0.2-0.3c0-1.1-0.7-1.6-1.5-2.1c-0.4-0.3-0.9-0.4-1.4-0.4c-0.7,0-1.6,0.4-1.7-0.9c0,0-0.1-0.1-0.1-0.1
			c-0.9-0.3-1.1-1.2-1.6-1.9c-0.7-1-0.6-2-0.5-3.1c-0.5-1.5-1.5-2.7-2.5-3.9c-0.4-0.7-1-0.9-1.7-1.1c-0.7-0.2-1.5-0.2-2.1-0.6
			c-0.1-0.1-0.2-0.2-0.3-0.4c-0.4-0.4-0.7-0.7-1.1-1.1c-0.2-0.2-0.4-0.4-0.6-0.6c-0.2-0.1-0.4-0.1-0.6-0.2c-0.7-0.3-1.6-0.8-2.4-0.8
			c-0.3,0-0.6,0-0.8,0c-0.5,0.1-0.9,0.2-1.3,0.3c-0.3,0.2-0.7,0.1-1,0.3c-0.7,0-1.1-0.5-1.6-0.8c-0.1,0.1,0.1-0.1,0-0.1
			c-0.1,0-0.1,0,0.1,0c0.1,0,0.2,0.1,0.4,0.1c0.2,0.1,0.4,0.1,0.6,0.1c0.3-0.2,0.7-0.2,0.7-0.6c-0.2-0.3-0.5-0.2-0.8-0.3
			c-0.2-0.1-0.4-0.2-0.5-0.3c0-0.2-0.1-0.4-0.4-0.4c-0.2-0.1-0.3-0.2-0.3-0.4c-0.2-0.6-0.6-0.9-1.3-0.9C131,4,130.2,4,129.6,3.6
			c-0.9-0.7-1.9-0.8-3-0.8c-0.8,0-1.6-0.1-2.4-0.2c-0.2,0-0.3-0.1-0.3-0.3c-0.1-0.5-0.2-1-0.7-1.3c-0.5-0.6-1.2-0.7-1.9-0.5
			c-0.5,0.1-1.1,0.2-1.6,0.3c-1.1,0.1-2.3,0.3-3,1.4c-0.1,0.2-0.3,0.3-0.5,0.3c-1.3,0.2-2.4,0.9-3.3,1.8c-0.2,0.2-0.5,0.3-0.7,0.5
			c-0.8,0.3-1.7,0.1-2.5,0.2c-0.4,0-0.9-0.1-1.2,0.4c-0.2,0.1-0.5,0.2-0.7,0.3l0,0c-0.3,0-0.4,0.3-0.6,0.5c-0.1,0.1-0.3,0.3-0.4,0.4
			c-0.3,0.4-0.9,0.6-1.2,1.1c-0.3,0.7-0.6,1.3-0.9,2c-0.1,0.2-0.2,0.6-0.5,0.6c-1.9,0.3-3.5,1.1-5.3,1.6c-0.7,0.2-1.4,0.4-2,0.9
			c-0.1,0.2,0,0.2,0.2,0.3c0.6,0,1.2-0.1,1.8,0c0.6,0,0.8,0.3,0.3,0.8c-0.4,0.2-0.8,0.3-1.3,0.4c-1,0.3-1.8,0.8-2.6,1.5
			c-0.2,0.2-0.4,0.3-0.6,0.1c-0.1-0.1-0.2-0.2-0.2-0.4c-0.3-0.7-0.6-0.3-0.8,0.1c-0.2,0.6-0.1,1.2,0.1,1.7c0.3,0.9,0.3,1-0.7,1.4
			c-0.4,0.2-0.7,0.5-1.1,0.9c0,0.1-0.1,0.1-0.1,0.2c-0.1,0.3-0.4,0.4-0.7,0.5c-0.2,0-0.4-0.1-0.5,0.1c-0.3,0.4-0.8,0.2-1.1,0.4
			c-0.3,0.2,0.1,0.3,0.2,0.4c0,0,0,0,0,0c0.3,0.1,0.6,0,0.9,0.4l0,0c0.2,0.2,0.5,0.1,0.6,0.4c0.1,0.2,0.3,0.3,0.5,0.5l0,0
			c0.3,0.4,0,0.7-0.2,1.1c0,0,0,0,0,0c-0.1-0.2-0.2-0.3-0.3-0.4c-0.4-0.1-0.3,0.5-0.6,0.5c-0.1,0-0.2-0.1-0.3-0.1
			c-0.2,0-0.5-0.2-0.6,0c-0.2,0.3,0.2,0.4,0.3,0.6c0,0.4,0.7,0.7,0.4,1.2c-0.5,0.3-0.6,0.8-0.5,1.3c0.1,0.6-0.1,1.2-0.4,1.6
			c-0.5,0.7-0.6,1.3-0.3,2.1c0.3,1.1,0,1.5-1.1,1.3c-1.5-0.4-2.4,0.2-3.2,1.3c-0.9,1.1-1.8,2.2-2.7,3.4c-0.6,0.5-0.3,0.9,0,1.4
			c0.2,0.4,0.3,0.7,0.5,1.1c0.1,0.1,0.2,0.3,0.2,0.5c0.2,0.6,0.4,1.5,0.9,1.7c0.7,0.4,0.7,1,1,1.5c0.1,0.3,0.2,0.6,0.6,0.6
			c0.3,0,0.3,0.3,0.3,0.5c-0.1,1.1,0.3,2.1,0.2,3.2c-0.1,0.5,0.2,1,0.7,1.3c0.1,0.1,0.3,0.2,0.4,0.3c0.1,0,0.2,0,0.3,0
			c-0.1,0.1-0.4,0-0.3,0.3c0,0,0,0,0,0c0,0,0,0,0,0c0.6,0.7,0.3,1.3-0.2,2c-0.2,0.3-0.3,0.6,0.2,0.6c0.4,0.1,0.2,0.3,0.2,0.5
			c0,0.2-0.2,0.3-0.4,0.2c-0.5-0.2-0.7,0-0.9,0.4c-0.1,0.1-0.2,0.3-0.4,0.4c-0.7,0.2-0.7,0.2-0.1,0.7c0.1,0.1,0.2,0.3,0.4,0.5
			c-1.5,0-1.9,0.8-1.3,2.2c-0.6-0.1-0.8,0.4-1.1,0.8c-0.1,0.1,0,0.4-0.2,0.4c-0.6,0-0.4,0.4-0.5,0.8c-0.1,0.5,0.3,1,0.2,1.5
			c0,0.2,0.1,0.3,0.3,0.3c0.5,0.2,0.9,0.5,1.2,0.9c0.1,0.2,0.2,0.3,0.4,0.2c0.1,0,0.2-0.1,0.3-0.2c0.2-0.6,0.8-0.5,1.1-0.4
			c0.5,0.1,0.2,0.6,0.2,0.9c0,0.2-0.1,0.3-0.1,0.5c0,1.6,0.7-0.2,0.9,0.2c-0.4,0.1-0.7,0.5-0.3,0.8c0.3,0.3,0.4,0.5,0.4,0.8
			c0.2,0.4,0.5,0.8,0.5,1.3c0.1,0.7,0.3,1.2,1.1,1.3c0.2,0,0.1,0.2,0,0.4c-0.6,0.8-0.7,1.8-1,2.7c-0.5,1-0.1,2.1-0.5,3.1
			c-0.1,0.2,0,0.5,0.3,0.5c0.4,0.1,0.4,0.4,0.3,0.7c-0.1,0.4-0.4,0.5-0.7,0.1c-0.2-0.2-0.4-0.5-0.7-0.4c-0.3,0.5,0.2,0.8,0.1,1.3
			c0.2,0.2,0.5,0.2,0.7,0.4c0.2,0.1,0.5,0,0.5,0.4c-0.1,0.6,0.1,1.3-0.1,1.9c0,0,0,0,0,0c0.1,0.9,0.2,1.9,0.3,2.8
			c0.1,0.7,0,1.4,0.4,1.9c0.8,1.1,1.9,1.9,2.4,3.2c0.1,0.2,0.3,0.4,0.4,0.5c0.3,0.4,0.8,0.6,1.1,1.1c-0.6,0.1-0.8-0.6-1.3-0.6
			c-0.2,0.2-0.1,0.4-0.1,0.6c0.2,0.3,0.4,0.5,0.6,0.8c0,0.1,0.1,0.2,0.2,0.2c0.4,0.2,0.9,0.2,1.4,0.1c0.7,0,0.3,0.8,0.8,1
			c1.1,0.5,2.1,1.1,3.2,1.5l0,0c0.1,0.1,0.1,0.2,0.2,0.3c0.3,0.2,0.5,0.5,0.7,0.8c0.4,0.5,0.9,0.8,1.2,1.4c0.3,0.2,0.5,0.4,0.8,0.6
			c0.2,0.1,0.4,0.2,0.6,0.2c0.7,0.2,0.9,0.1,0.9-0.6c0-0.1,0-0.2,0-0.3c0-3.6,0-7.1,0-10.7c0-0.3-0.2-0.6,0.2-0.8
			c0.7,0.1,0.8-0.1,0.5-0.7c-0.1-0.2-0.3-0.4-0.4-0.7c-0.2-0.3-0.4-0.6-0.6-1c-0.6-1.1-1.2-2.2-1.4-3.5c-0.4-0.7-0.1-1.6-0.6-2.2
			c-0.1-0.1-0.2-0.1-0.3-0.1c-0.3-0.1-0.5-0.1-0.8,0c-0.6,0.1-1-0.1-1.5-0.3c-1.1-0.4-1.8-1.1-2.3-2.2c-0.4-1-0.7-2.1-1-3.2
			c0-0.3,0.1-0.3,0.3-0.3c0.3,0,0.5,0.1,0.6-0.3c0-0.4-0.1-0.8-0.1-1.2c0-0.1,0-0.2,0-0.3c0-0.8-0.1-1.7,0.2-2.4
			c0.2-0.6,0.5-1.2,1.1-1.2c0.7-0.1,0.7,0.7,0.9,1.1c0,0.1,0,0.1,0.1,0.2c0.1,0.3,0.1,0.7,0.5,0.7c0.3,0,0.5-0.3,0.6-0.6
			c0.1-0.3,0.1-0.6,0.1-0.9c0.1-0.7-0.1-1.4-0.2-2.1c0-0.9,0-1.9-0.1-2.8c-0.1-0.6-0.1-1.2,0.3-1.8c0.2-0.4,0.5-0.8,0.8-1.2
			c0.2-0.3,0.4-0.7,0.6-1c0.2-0.3,0.2-0.7,0.2-1.1c0-0.8-0.1-1.7,0.2-2.5c0.4-1,0.3-1.9,0.1-2.8c-0.2-0.6-0.3-1.3-0.5-2
			c-0.1-0.5-0.6-1-0.2-1.5c0.4-0.6,0.9-1.1,1.7-1.3c0.2,0.1,0.3,0.3,0.6,0.2c0.3-0.2,0.5-0.6,0.8-0.9c0.1-0.1,0.2-0.3,0.3-0.4
			c0.2-0.3,0.4-0.6,0.6-0.8c0.1-0.1,0.3-0.3,0.5-0.4c0.6-0.4,1.2-0.7,1.8-1.1c0.2-0.2,0.4-0.4,0.6-0.5c0.2-0.1,0.3-0.2,0.4-0.4
			c0.9-1.2,1.8-2.4,3-3.4c0.1-0.1,0.1-0.1,0.2-0.2c0.6-0.4,0.4,0.3,0.6,0.4c0,0.1,0.1,0.1,0.1,0.2c0.2,0.2,0.3,0.2,0.6,0.2
			c0.3-0.1,0.5-0.3,0.8-0.5c0.1-0.1,0.3-0.2,0.4-0.3c0.4-0.2,0.5-0.7,1-0.9c0.2,0.3,0.3,0.6,0.6,0.8c0.5,0.4,1.2,0.7,1.7,1.1
			c0.3,0.2,0.6,0.4,1,0.4c2.2,0,4.5,0.4,6.5-0.9c0.2-0.1,0.4-0.3,0.7-0.3c-0.1,0.9-0.1,0.9,0.9,0.8c0.1,0,0.2,0,0.2-0.1
			c0.4-0.2,0.8-0.3,1.2-0.3c0.2,0,1.4-1.1,2-1.1c1.8-0.3,3.6,0,5.3,0.5c0.4,0.2,0.8,0.2,1.2,0.1c0.5-0.1,0.7,0.1,0.8,0.6
			c0.1,0.4,0.2,0.8,0.1,1.2c-0.1,0.4,0,0.7,0.2,1.1c0.3,0.3,0.5,0.9,0.9,0.7c0.4-0.2,0.6,0,0.8,0.2c1.3,1,2.4,2.2,4.1,2.5
			c0.1,0.1,0.3,0.1,0.3,0.3c0.5,1.3,1.5,2.4,2.1,3.7c0.1,0.1,0.2,0.3,0.2,0.5c0.6,1.8,0.7,3.7,1.5,5.5c0.1,0.4,0.3,0.8,0.4,1.1
			c0.3,0.9,0.8,1.7,1.1,2.6c0.2,0.4,0.3,0.8,0.4,1.2c0.3,0.6,0.3,1.2,0.7,1.7c0.5,1,0.3,2.1,0.8,3.2c0.4,0.9,0.6,1.9,1.7,2.3
			c0.1,0,0.1,0.1,0.2,0.1c0.3,0.1,0.6,0.1,0.9,0.2c0.3,0,0.5,0.2,0.4,0.5c-0.2,0.8,0.1,1.6-0.7,2.3c-0.4,0.3-0.4,0.8,0.3,0.9
			c1,0,1.8-0.4,2.7-0.7c0.3-0.1,0.4-0.4,0.8-0.4c0.1,0-0.2,0.5-0.2,0.7c0,0.2-0.3,0.5-0.2,0.7c0.2,0.4,0.5,0.2,0.7,0.1
			c0.2,0,0.4-0.3,0.6-0.1c0.1,0.2,0,0.3-0.1,0.5c-0.4,0.7-0.6,1.6-1.2,2.2c-0.7,1.1-1.7,1.9-2.9,2.2c-0.2,0-0.3,0.1-0.5,0.2
			c-0.8,0.1-1.5,0.2-2.3,0.2c-1.4,0-1.8,0.5-1.5,1.9c0,0.2,0.1,0.4,0.2,0.7c0.4,0.7,0.5,1.4,0.3,2.2c-0.2,0.6-0.4,1.3-0.1,1.9
			c0.5,1,0.4,2,0.5,3c0.1,1.2-0.6,2-0.8,3.1c-0.1,0.6-0.3,1.3-0.2,1.9c0.1,0.6,0.3,1.2,0.3,1.8c0,0.5,0.3,1-0.1,1.4
			c0,0.1,0,0.2,0,0.4c0.1,0.1,0.1,0.3,0.1,0.5c0,0.8,0.3,1.2,1.2,1.4c0.1,0,0.2,0,0.2-0.1c0.3-0.4,0.4-0.8,0.3-1.3
			c-0.1,0.2-0.2,0.3-0.3,0.5c0-0.3,0-0.6-0.2-0.9c-0.2-0.2-0.1-0.4,0.1-0.6c0.2-0.2,0.4-0.2,0.6,0c0.6,0.4,1.3,0.8,2,1.1
			c0.8,0.3,1.4,0.9,2.3,0.8c0.5,0,0.7,0.1,0.9,0.6c0.1,0.6,0.5,0.8,1.1,0.5c0.4-0.2,0.7-0.1,1.1,0.1c-0.3,0.2-0.6-0.1-0.8,0.3
			c0,0,0,0,0,0c0.4,0,0.9,0,1.4-0.2c1-0.3,1.7-1,2.6-1.5c-0.1-0.2-0.3-0.4-0.3-0.7l0,0c-0.3-0.3-0.4-0.8-0.9-0.9c0,0.1-0.1-0.1,0,0
			c0.4-0.1,0.8,0.3,1.2-0.1c0.3-0.5,0.7-0.8,1.1-1.2c0.2-0.3,0.2-0.5-0.1-0.8c-0.3-0.2-0.9-0.4-0.6-1c0-0.1,0.1-0.2,0.1-0.2
			c0.2-0.9,0.2-1.8,0-2.6c-0.2-0.7-0.1-1.4,0.3-2c0.1-0.2,0.2-0.4,0.2-0.7c-0.1-0.2-0.4-0.4-0.5-0.7c-0.1-0.6,0.2-1.3-0.2-1.9
			c-0.3-0.1-0.5,0-0.8,0.1c-0.2,0.1-0.4,0.1-0.5-0.2c-0.1-0.2,0.1-0.4,0.3-0.5c0.3-0.1,0.6-0.2,0.9-0.3c0.1,0,0.2-0.2,0.3,0
			c-0.1,0.2-0.1,0.4,0,0.5c0.2,0.3,0.3,0.1,0.5,0c0.2-0.2,0.3-0.4,0.5-0.5c0.3-0.1,0.5-0.4,0.7-0.5c0.3-0.1,0.5-0.3,0.7-0.5
			c0.1-0.1,0.2-0.1,0.3-0.1c0.1-0.1,0.3-0.3,0.4-0.4c-0.1-0.3-0.1-0.6-0.1-1c-0.1-0.8,1-1,1.2-1.7c-0.6-0.1-1.2-0.1-1.3-0.9
			c-0.1-0.3-0.2-0.7-0.4-1c-0.4-0.6-0.3-1,0.2-1.4l0,0c0.3-0.1,0.4-0.4,0.3-0.6c-0.5-0.7-0.2-1.4-0.1-2.1c0.2-0.5,0.8-0.5,1-1.1
			c0.7-1.6,2-2.9,3.1-4.3c0.2,0,0.3,0,0.5-0.1c0.6-0.2,0.2-1,0.8-1.3c0.2,0,0.6-0.2,0.3,0.3c-0.1,0.2-0.2,0.4-0.4,0.6
			c-0.2,0.2-0.4,0.3-0.5,0.5c0,0.1,0,0.2,0,0.2c0.2,0.1,0.5,0.1,0.7,0c0.4-0.1,0.7-0.4,0.9-0.7c0.2-0.2,0.2-0.5,0.4-0.7
			c0.1-0.1,0.1-0.2,0.2-0.3c0.7-1.1,0.5-2.4,0.9-3.6c0.2-0.6,0.2-1.1-0.2-1.7C169.7,54.3,170,52.8,170.9,51.2z M155.8,26.2
			c-0.1,0.2-0.2,0-0.3,0c-0.7-0.4-0.3-1-0.2-1.5c0.1-0.3,0.2-0.4,0.4-0.3c-0.2,0.1-0.2,0.2-0.3,0.4c0,0.4,0.1,0.8,0.3,1.1
			C155.8,26,155.9,26.1,155.8,26.2z"/>
		<path class="st1" d="M82.5,38.7c0.5,0.2,0.6,0.7,0.6,1c0,0.8,0.4,0.4,0.8,0.2c-0.5,0.7-0.4,1,0.3,1.1c0.6,0.1,0.1,0.6,0.4,0.9
			c0.2,0.2,0,0.8,0.7,0.7c0.2,0,0.4,0.4,0.4,0.9c0,1.2,0.1,2.4,0.3,3.6c0.1,0.6,0.8,0.4,0.8,0.9c0.4-0.2,0-0.4,0.2-0.6
			c0.1-0.1,0.2,0,0.3,0.1c0.1,0.2,0.1,0.5-0.1,0.5c-0.4,0.2-0.2,0.2,0,0.4c0.4,0.3,0.2,1.5-0.2,1.9c-0.1,0.1-0.4,0.2-0.3,0.5
			c0.2-0.1,0.3-0.2,0.6-0.3c0,0.3,0,0.6,0,0.8c0.1,0.3-0.2,0.8-0.4,0.6c-0.8-0.6-0.9,0.3-1.3,0.6c-0.1,0-0.1,0.1-0.2,0.2
			c-0.3,0.2-0.4-0.5-0.5-0.2c-0.2,0.5,0.4,0.2,0.6,0.4c0.2,0.2,0,0.7,0.5,0.7c-0.2,0.2-0.4,0.1-0.5,0.1c-0.4,0-1.1-0.2-1,0.3
			c0,0.4-1,0.9,0,1.3c0.1,0,0.2,0.5-0.2,0.5c-0.6,0-0.7,0.5-1,0.8c-0.1,0.1,0.1,0.8-0.5,0.3c-0.1-0.1-0.1,0.3-0.1,0.4
			c-0.2,0.6,0.4,1.2,0,1.8c-0.3,0-0.4-0.3-0.5-0.5c-0.2-0.6-0.3-1.2-0.5-1.8c-0.1-0.3,0-0.4,0.4-0.5l0,0c0.4,0.2,0.6-0.1,0.7-0.4
			c0.1-0.4,0.3-0.5,0.6-0.7c0.2,0,0.3-0.1,0.3-0.3c-0.5-0.9,0.1-1.2,0.7-1.5c0.5-0.3,0.4-0.5,0-0.8c-0.6-0.4-1.3-0.8-1.8-1.5
			c-1-1.3-0.7-2.7-0.4-4.1c0.1-0.7,0.9-1,1.5-1.4c0.2-0.2,0.4-0.3,0.3-0.6c-0.3-0.4-0.3-0.8-0.2-1.2c0-0.2,0.2-0.4,0.4-0.1
			c0.1,0.2,0.3,0.4,0.5,0.5c0.2,0.1,0.4,0.2,0.4-0.1c0-0.3,0.1-0.6-0.1-0.9c-0.2-0.4-0.4-0.7-0.5-1.1c-0.3-0.4-0.6-0.8-0.9-1.3
			C83.1,40.4,82.6,39.6,82.5,38.7z"/>
		<path class="st1" d="M167.8,62.8c-0.2-0.1-0.4,0.1-0.6,0.2c-0.1-0.1-0.1-0.1-0.2-0.2c0-0.2,0.2-0.2,0.3-0.2
			C167.6,62.5,167.7,62.4,167.8,62.8L167.8,62.8z"/>
		<path class="st1" d="M147.6,74.7c0.3,0.7,0.5,1.4,0.2,2.1c-0.4,1-0.3,2.1,0.3,3c0.3,0.4,0.2,0.8,0.1,1.2c-0.1,0.2-0.1,0.6,0,0.8
			c0.3,0.7,0,1.3-0.4,1.9c-0.2,0.3-0.4,0.7-0.1,1c0.1,0.1,0.1,0.2,0,0.3c-1.1,0.3-0.5,1.2-0.5,1.8c0,0.9,0.5,1.7,0.3,2.6
			c-0.1,0.3,0.2,0.5,0.5,0.7c-0.3,0.2-0.6,0-0.8,0c-0.1-0.4,0.1-0.9-0.2-1.2c-0.4-0.3-0.3-0.8-0.3-1.2c0-1.2,0-2.5,0-3.7
			c0.2-2.3,0.3-4.6,0.6-6.9c0.1-0.4,0.1-0.8,0.1-1.2C147.4,75.5,147.2,75,147.6,74.7z"/>
		<path class="st1" d="M87.1,63.5c-0.1,0-0.1,0-0.2,0c-0.3-0.5-0.7-0.8-1.3-1.1c-0.6-0.2-0.9-0.9-1.3-1.5c0.4-0.2,0.3-1,1.1-0.8
			c0.3,0.1,0.7-0.2,0.8,0.2c0.2,0.3,0.2,0.7-0.1,0.9c-0.3,0-0.3-0.4-0.7-0.5c-0.1,0.6,0.5,0.7,0.7,1c0,0.1,0,0.3,0,0.5
			c0.4-0.2,0.6-0.8,1.1-0.3c0,0.2-0.1,0.2-0.2,0.1c-0.3-0.1-0.5,0-0.5,0.3c-0.1,0.7,0.3-0.3,0.3,0.1C87,62.8,87.4,63.1,87.1,63.5z"
			/>
		<path class="st1" d="M148.4,91.9C148.5,91.8,148.5,92,148.4,91.9c-0.2,0-0.3-0.1-0.4-0.2c0-0.1,0.1-0.2,0.2-0.2
			C148.4,91.5,148.6,91.5,148.4,91.9z"/>
		<path class="st1" d="M147.7,80.3c0.1,0.3,0.1,0.7-0.1,0.7c-0.3,0,0-0.2,0-0.3C147.6,80.6,147.7,80.5,147.7,80.3z"/>
		<g>
			<path class="st2" d="M85.7,60.9c0-0.1,0-0.1-0.1-0.2c0.1,0.2,0.3,0.4,0.4,0.6"/>
			<g>
				<path class="st2" d="M88.1,60.2c0-0.1,0-0.1-0.1-0.2c-1.5,0.6-3,1.3-4.6,1.9c0.1,0.1,0.1,0.2,0.2,0.3c0.1,0.2,0.3,0.4,0.4,0.6
					c0,0,0,0,0.1,0.1c0,0,0.1,0.1,0.1,0.1c0.2,0.2,0.5,0.4,0.8,0.5c0.3,0.2,0.6,0.2,1,0.2c0.3,0,0.7-0.1,1-0.2
					c0.3-0.1,0.6-0.3,0.8-0.5c0.1-0.2,0.3-0.3,0.4-0.5c0.2-0.4,0.3-0.8,0.3-1.3c0-0.2-0.1-0.4-0.1-0.7c-0.1-0.4-0.3-0.8-0.6-1.1
					c-0.1-0.1-0.2-0.2-0.2-0.2c0.1,0.2,0.3,0.3,0.4,0.5c-0.1-0.1-0.1-0.2-0.2-0.3c-0.2-0.3-0.4-0.5-0.6-0.7
					c-0.2-0.2-0.5-0.4-0.9-0.4c-0.2,0-0.4-0.1-0.7-0.1c-0.3,0-0.7,0.1-1,0.2c-0.2,0.1-0.4,0.2-0.6,0.3c-0.3,0.2-0.5,0.4-0.6,0.7
					c-0.1,0.2-0.2,0.4-0.3,0.6c-0.1,0.4-0.1,0.9,0,1.3c0,0.1,0,0.1,0.1,0.2c0.1,0.3,0.2,0.6,0.4,0.9c0.2,0.3,0.4,0.5,0.7,0.6
					c0.3,0.2,0.6,0.3,0.9,0.3c0.3,0.1,0.7,0.1,1,0c0.2-0.1,0.4-0.2,0.6-0.3c0.4-0.2,0.7-0.5,0.9-0.9c0.1-0.2,0.2-0.4,0.3-0.6
					C88.2,61.1,88.2,60.7,88.1,60.2L88.1,60.2z"/>
			</g>
		</g>
		<g>
			<path class="st2" d="M155.2,25.6c0.2,0.2,0.5,0.4,0.7,0.6c-0.2-0.3-0.4-0.7-0.5-1.1c0-0.1-0.1-0.3,0-0.4c0,0,0.1-0.1,0.1,0"/>
			<g>
				<path class="st2" d="M153.9,27.7c0,0,0.1,0.1,0.1,0.1c-0.2-0.1-0.3-0.3-0.5-0.4c0.2,0.1,0.4,0.3,0.5,0.5
					c0.2,0.2,0.5,0.4,0.8,0.5c0.3,0.2,0.6,0.2,1,0.2c0.2,0,0.4-0.1,0.7-0.1c0.3-0.1,0.6-0.2,0.9-0.4c0.2-0.1,0.3-0.3,0.4-0.4
					c0.2-0.2,0.4-0.5,0.4-0.9c0-0.2,0.1-0.4,0.1-0.7c0-0.5-0.1-0.9-0.3-1.3c-0.1-0.2-0.2-0.4-0.3-0.6c0.1,0.2,0.2,0.4,0.3,0.6
					c-0.1-0.2-0.2-0.4-0.2-0.6c0,0.2,0.1,0.4,0.1,0.7c0-0.1,0-0.1,0-0.2c0,0.2-0.1,0.4-0.1,0.7c0,0,0-0.1,0-0.1
					c-0.1,0.2-0.2,0.4-0.3,0.6c0,0,0,0,0-0.1c-0.1,0.2-0.3,0.3-0.4,0.5c0,0,0,0,0,0c-0.2,0.1-0.3,0.3-0.5,0.4c0,0,0,0,0,0
					c-0.4,0.1-0.8,0.2-1.3,0.3c0,0,0,0,0,0c-0.2,0-0.4-0.1-0.7-0.1c0,0,0,0,0,0c0.3,0.1,0.7,0.1,1,0c0.3,0,0.6-0.1,0.9-0.3
					c0.3-0.2,0.5-0.4,0.7-0.6c0.2-0.2,0.4-0.5,0.4-0.9c0-0.2,0.1-0.4,0.1-0.7c0-0.5-0.1-0.9-0.3-1.3c-0.1-0.2-0.3-0.3-0.4-0.5
					c-0.3-0.3-0.7-0.5-1.1-0.6c-0.2-0.1-0.5-0.1-0.7-0.1c-0.1,0-0.2,0-0.3,0c-0.3,0-0.6,0.1-0.9,0.3c0,0,0,0,0,0
					c-0.4,0.3-0.5,0.3-0.7,0.7c-0.1,0.1-0.2,0.2-0.2,0.3c0,0,0,0,0,0c-0.1,0.2-0.2,0.4-0.3,0.6c0,0,0,0,0,0.1c0,0,0,0,0,0
					c0,0.2-0.1,0.4-0.1,0.7c0,0,0,0.1,0,0.1c0,0,0,0,0,0.1c0,0.2,0.1,0.5,0.1,0.7c0,0.1,0,0.2,0.1,0.2c0,0.1,0.1,0.2,0.1,0.2
					c0.1,0.3,0.2,0.5,0.3,0.8c0.1,0.2,0.2,0.3,0.3,0.5c1.3-1,2.6-2,3.9-3c-0.4-0.4-0.8-0.7-1.2-1c-0.3-0.2-0.6-0.3-0.9-0.3
					c-0.3-0.1-0.7-0.1-1,0c-0.3,0.1-0.6,0.2-0.9,0.4c-0.3,0.2-0.5,0.4-0.6,0.7c-0.1,0.2-0.2,0.4-0.3,0.6c-0.1,0.4-0.1,0.9,0,1.3
					c0.1,0.2,0.2,0.4,0.3,0.6C153.2,27.2,153.5,27.5,153.9,27.7L153.9,27.7z"/>
			</g>
		</g>
		<g>
			<path class="st2" d="M158,90.4"/>
			<g>
				<path class="st2" d="M158,92.9c3.2,0,3.2-5,0-5C154.8,87.9,154.8,92.9,158,92.9L158,92.9z"/>
			</g>
		</g>
		<g>
			<path class="st2" d="M158.5,90.2C158.5,90.2,158.5,90.2,158.5,90.2c0,0,0,0.1,0,0.1C158.5,90.3,158.5,90.2,158.5,90.2
				c0.1-0.1,0.1-0.1,0.2-0.1c0.1,0,0.1-0.1,0.2-0.1"/>
			<g>
				<path class="st2" d="M159.7,92.3C159.8,92.3,159.8,92.3,159.7,92.3c-1.2-1-2.4-1.9-3.6-2.8c0,0,0,0,0,0
					c-0.1,0.2-0.1,0.9-0.1,0.7c0,0,0,0.1,0,0.1c1.6-0.4,3.1-0.8,4.7-1.3c0,0,0,0,0,0c0.1,0.2,0.2,0.4,0.3,0.6c0,0,0,0,0,0
					c0,0.2,0.1,0.4,0.1,0.7c0,0,0,0,0,0c0,0.2-0.1,0.4-0.1,0.7c0,0,0,0,0,0c-0.1,0.2-0.2,0.4-0.3,0.6c0,0,0,0,0,0
					c-0.1,0.2-0.3,0.3-0.4,0.5c0,0,0,0,0,0C160.1,92,160,92.2,159.7,92.3c0.1-0.1,0.1-0.1,0.1-0.1c-0.2,0.1-0.4,0.2-0.6,0.3
					c0.1,0,0.2-0.1,0.3-0.1c0.3-0.1,0.6-0.2,0.9-0.4c0.3-0.2,0.5-0.4,0.6-0.7c0.2-0.3,0.3-0.6,0.3-0.9c0.1-0.3,0.1-0.7,0-1
					c-0.1-0.2-0.2-0.4-0.3-0.6c-0.2-0.4-0.5-0.7-0.9-0.9c-0.2-0.1-0.4-0.2-0.6-0.3c-0.4-0.1-0.9-0.1-1.3,0c-0.1,0-0.1,0-0.2,0.1
					c-0.2,0.1-0.5,0.2-0.7,0.3c0,0,0,0,0,0c0,0,0,0,0,0c-0.2,0.1-0.3,0.3-0.5,0.4c0,0,0,0,0,0c0,0,0,0,0,0c-0.1,0.2-0.3,0.3-0.4,0.5
					c0,0,0,0,0,0c0,0,0,0,0,0c-0.3,0.5-0.3,0.7-0.4,1.3c0,0,0,0,0,0c0,0,0,0,0,0c0,0.2,0.1,0.4,0.1,0.7c0,0.2,0.2,0.4,0.3,0.6
					c0.1,0.2,0.3,0.3,0.4,0.5c0.2,0.2,0.5,0.4,0.8,0.5c0.2,0.1,0.4,0.2,0.6,0.2c0.3,0.1,0.7,0.1,1,0c0.2-0.1,0.4-0.2,0.6-0.3
					c0.2-0.1,0.3-0.3,0.5-0.4c0.2-0.2,0.4-0.5,0.5-0.8c0.2-0.3,0.2-0.6,0.2-1c0,0,0-0.1,0-0.1c0,0.2-0.1,0.4-0.1,0.7c0,0,0,0,0-0.1
					c0-0.2,0.1-0.4,0.1-0.7c0-0.2-0.1-0.4-0.1-0.7c-0.1-0.2-0.2-0.4-0.3-0.6c-0.2-0.3-0.4-0.5-0.6-0.7c-0.2-0.2-0.3-0.3-0.6-0.3
					c-0.2-0.1-0.4-0.2-0.6-0.2c-0.2-0.1-0.4-0.1-0.7,0c-0.3,0-0.6,0.1-0.9,0.3c0,0,0,0,0,0c-0.3,0.2-0.5,0.4-0.7,0.6
					c-0.2,0.2-0.4,0.5-0.4,0.9c-0.1,0.3-0.1,0.7,0,1c0,0.3,0.1,0.6,0.3,0.9c0.1,0.2,0.3,0.3,0.4,0.5c0.3,0.3,0.7,0.5,1.1,0.6
					c0.2,0,0.4,0.1,0.7,0.1C158.9,92.7,159.4,92.6,159.7,92.3L159.7,92.3z"/>
			</g>
		</g>
		<g>
			<path class="st2" d="M158.6,90.4C158.6,90.4,158.6,90.3,158.6,90.4C158.6,90.3,158.6,90.3,158.6,90.4c0.2-0.1,0.2-0.2,0.3-0.2
				c0.1,0,0.1,0,0.2-0.1c0.1,0,0.2-0.1,0.3-0.2c0,0,0,0,0,0c0,0,0-0.1,0.1-0.1"/>
			<g>
				<path class="st2" d="M161.1,90.4C161.1,90.4,161.1,90.4,161.1,90.4c0,0.2-0.1,0.4-0.1,0.7c0,0,0,0,0,0c-0.1,0.2-0.2,0.4-0.3,0.6
					c0,0,0,0,0,0c-0.1,0.2-0.3,0.3-0.4,0.5c0,0,0,0,0,0c-0.2,0.1-0.3,0.3-0.5,0.4c0,0,0.1-0.1,0.2-0.1c0.1,0,0.1-0.1,0.2-0.1
					c-0.2,0.1-0.4,0.2-0.6,0.3c0.3-0.1,0.6-0.2,0.9-0.4c0,0,0.1,0,0.1,0c0,0,0,0,0,0c0,0,0,0,0,0c0.2-0.1,0.3-0.3,0.5-0.4
					c0.4-0.3,0.5-0.8,0.7-1.2c-0.1,0.2-0.2,0.4-0.3,0.6c0,0,0,0,0,0c-0.1,0.2-0.3,0.3-0.4,0.5c0,0,0,0,0,0c0.2-0.2,0.4-0.5,0.5-0.8
					c0.2-0.3,0.2-0.6,0.2-1c0-0.3-0.1-0.7-0.2-1c-0.1-0.3-0.3-0.6-0.5-0.8c-0.2-0.1-0.3-0.3-0.5-0.4c-0.4-0.2-0.8-0.3-1.3-0.3
					c-0.2,0-0.4,0.1-0.7,0.1c-0.4,0.1-0.8,0.3-1.1,0.6c-0.1,0.1-0.1,0.2-0.2,0.3c-0.1,0.1-0.1,0.2-0.2,0.3c-0.1,0.2-0.2,0.4-0.3,0.6
					c0,0,0,0,0,0.1c0.1-0.2,0.2-0.4,0.3-0.6c0,0,0,0,0,0c0.1-0.2,0.3-0.3,0.4-0.5c0,0,0,0,0,0c0.2-0.1,0.3-0.3,0.5-0.4
					c-0.1,0.1-0.2,0.1-0.3,0.2c0.2-0.1,0.4-0.2,0.6-0.3c-0.3,0.1-0.6,0.2-0.9,0.4c0,0-0.1,0-0.1,0.1c0,0,0,0,0,0
					c-0.2,0.1-0.3,0.3-0.5,0.4c-0.1,0.1-0.2,0.2-0.2,0.3c-0.1,0.1-0.1,0.2-0.2,0.3c0,0,0,0,0,0c-0.1,0.2-0.2,0.4-0.3,0.6
					c-0.1,0.2-0.1,0.5-0.1,0.7c0,0.3,0.1,0.7,0.2,1c0.1,0.3,0.3,0.6,0.5,0.8c0.2,0.2,0.5,0.4,0.8,0.5c0.3,0.2,0.6,0.2,1,0.2
					c0.2,0,0.4-0.1,0.7-0.1c0.4-0.1,0.8-0.3,1.1-0.6c0.1-0.2,0.3-0.3,0.4-0.5C161,91.3,161.1,90.8,161.1,90.4L161.1,90.4z"/>
			</g>
		</g>
	</g>
	<path class="st3" d="M126.4,13.5"/>
	<path class="st1" d="M160.3,90.7"/>
	<path class="st1" d="M126.4,82.4"/>
</g>
</svg>
