<svg width="750" height="145" viewBox="0 0 750 145" fill="none" xmlns="http://www.w3.org/2000/svg">
<path d="M79.6331 36.7773C79.0384 39.6052 75.1725 41.5847 72.1988 40.7363C69.8198 40.1708 67.4408 39.6052 65.0618 39.0396C64.7644 39.0396 63.5749 38.7568 63.8723 38.7568H62.9802C61.7907 38.7568 60.6012 38.4741 59.4117 38.4741C57.0327 38.4741 54.9511 38.474 52.5721 38.7568C51.9774 38.7568 51.68 38.7568 51.0852 39.0396C50.7879 39.0396 50.4905 39.0396 50.1931 39.3224C49.0036 39.6052 47.8141 39.6052 46.922 39.888C44.8404 40.1708 43.0562 40.7364 40.9745 41.5847C40.0824 41.8675 39.1903 42.1503 38.0008 42.7159C38.2982 42.7159 38.0008 42.7159 37.4061 42.9987C37.1087 43.2815 36.5139 43.2814 36.2166 43.5642C34.4323 44.4126 32.6481 45.261 30.8638 46.3921C29.9717 46.9577 29.0796 47.5233 28.1875 48.0888C27.8901 48.3716 27.2953 48.6544 26.998 48.9372C26.7006 49.22 25.5111 50.0684 26.4032 49.22C24.9164 50.3511 23.4295 51.7651 21.9426 52.8963C20.4557 54.3102 18.9689 55.7241 17.7794 57.1381L17.482 57.4209C17.482 57.4209 17.482 57.4209 17.1846 57.7037L16.2925 58.8348C15.6978 59.6832 15.103 60.5315 14.8056 61.0971L13.6162 63.0766C13.6162 63.3594 13.6162 63.3594 13.3188 63.6422C13.0214 63.925 13.0214 64.4906 13.0214 65.0561C12.724 65.6217 12.724 66.1873 12.724 66.7529C12.724 66.7529 12.724 66.7529 12.724 67.0356V67.3184C12.724 67.6012 12.724 68.1668 12.724 68.4496V68.7324C12.724 68.7324 12.724 68.7324 12.724 69.0152V69.298C13.0214 69.5807 13.0214 70.1463 13.3188 70.4291L13.6162 70.7119C13.9135 70.9947 14.2109 71.2775 14.5083 71.5603C14.5083 71.8431 14.8056 71.8431 14.8056 71.8431C15.103 71.8431 15.9951 72.6914 16.2925 72.6914C16.5899 72.9742 17.1846 73.257 17.482 73.257C17.1846 72.9742 17.482 72.9742 18.0768 73.5398C18.0768 73.5398 18.0768 73.5398 18.3741 73.5398C19.2663 73.8226 20.1584 74.1054 21.0505 74.3882C21.3479 74.3882 21.3479 74.3882 21.3479 74.3882C21.6452 74.3882 21.6452 74.3882 21.6452 74.3882C22.24 74.3882 22.8347 74.3882 23.4295 74.3882C26.1058 74.6709 28.7822 74.6709 31.4586 74.3882C32.9454 74.3882 34.4323 74.1054 35.9192 74.1054H36.5139C36.5139 74.1054 36.5139 74.1054 36.8113 74.1054C37.4061 73.8226 38.0008 73.8226 38.8929 73.8226C44.2456 72.9742 49.5984 71.5603 54.6537 69.5808C57.9248 68.4496 61.1959 70.7119 62.0881 73.5398C62.3854 74.9537 62.0881 76.6505 61.4933 77.7816C60.6012 79.1955 59.4117 79.7612 57.9248 80.3267C51.3826 82.8718 44.543 84.5685 37.4061 85.4169C34.1349 85.6997 30.8638 85.9825 27.2953 85.9825C23.7269 85.9825 20.4557 85.9825 17.1846 85.1341C11.5345 84.003 6.47919 80.6095 3.50545 76.3677C0.234337 71.8431 0.531711 65.9045 2.31595 60.8143C4.1002 56.0069 7.07393 52.0479 10.6424 48.0888C13.6162 44.4126 17.482 41.5847 21.3479 38.7568C36.8113 28.0109 57.9248 24.0518 76.0646 29.7076C78.741 30.8388 80.5252 33.6666 79.6331 36.7773ZM12.4267 68.7324V68.4496C12.4267 68.4496 12.4267 68.4496 12.4267 68.7324Z" fill="#FAFAF8"/>
<path d="M17.482 73.5398H17.7794M79.6331 36.7773C79.0384 39.6052 75.1725 41.5847 72.1988 40.7363C69.8198 40.1708 67.4408 39.6052 65.0618 39.0396C64.7644 39.0396 63.5749 38.7568 63.8723 38.7568H62.9802C61.7907 38.7568 60.6012 38.4741 59.4117 38.4741C57.0327 38.4741 54.9511 38.4741 52.5721 38.7568C51.9774 38.7568 51.68 38.7568 51.0852 39.0396C50.7879 39.0396 50.4905 39.0396 50.1931 39.3224C49.0036 39.6052 47.8141 39.6052 46.922 39.888C44.8404 40.1708 43.0562 40.7364 40.9745 41.5847C40.0824 41.8675 39.1903 42.1503 38.0008 42.7159C38.2982 42.7159 38.0008 42.7159 37.406 42.9987C37.1087 43.2815 36.5139 43.2814 36.2166 43.5642C34.4323 44.4126 32.6481 45.261 30.8638 46.3921C29.9717 46.9577 29.0796 47.5233 28.1875 48.0888C27.8901 48.3716 27.2953 48.6544 26.998 48.9372C26.7006 49.22 25.5111 50.0684 26.4032 49.22C24.9164 50.3511 23.4295 51.7651 21.9426 52.8963C20.4557 54.3102 18.9689 55.7241 17.7794 57.1381L17.482 57.4209C17.482 57.4209 17.482 57.4209 17.1846 57.7037L16.2925 58.8348C15.6978 59.6832 15.103 60.5315 14.8056 61.0971L13.6162 63.0766C13.6162 63.3594 13.6162 63.3594 13.3188 63.6422C13.0214 63.925 13.0214 64.4906 13.0214 65.0561C12.724 65.6217 12.724 66.1873 12.724 66.7529C12.724 66.7529 12.724 66.7529 12.724 67.0356V67.3184C12.724 67.6012 12.724 68.1668 12.724 68.4496V68.7324C12.724 68.7324 12.724 68.7324 12.724 69.0152V69.298C13.0214 69.5807 13.0214 70.1463 13.3188 70.4291L13.6162 70.7119C13.9135 70.9947 14.2109 71.2775 14.5083 71.5603C14.5083 71.8431 14.8056 71.8431 14.8056 71.8431C15.103 71.8431 15.9951 72.6914 16.2925 72.6914C16.5899 72.9742 17.1846 73.257 17.482 73.257C17.1846 72.9742 17.482 72.9742 18.0768 73.5398C18.0768 73.5398 18.0768 73.5398 18.3741 73.5398C19.2663 73.8226 20.1584 74.1054 21.0505 74.3882C21.3479 74.3882 21.3479 74.3882 21.3479 74.3882C21.6452 74.3882 21.6452 74.3882 21.6452 74.3882C22.24 74.3882 22.8347 74.3882 23.4295 74.3882C26.1058 74.6709 28.7822 74.6709 31.4586 74.3882C32.9454 74.3882 34.4323 74.1054 35.9192 74.1054H36.5139C36.5139 74.1054 36.5139 74.1054 36.8113 74.1054C37.4061 73.8226 38.0008 73.8226 38.8929 73.8226C44.2456 72.9742 49.5984 71.5603 54.6537 69.5808C57.9248 68.4496 61.1959 70.7119 62.0881 73.5398C62.3854 74.9537 62.0881 76.6505 61.4933 77.7816C60.6012 79.1956 59.4117 79.7612 57.9248 80.3267C51.3826 82.8718 44.543 84.5685 37.406 85.4169C34.1349 85.6997 30.8638 85.9825 27.2953 85.9825C23.7269 85.9825 20.4557 85.9825 17.1846 85.1341C11.5345 84.003 6.47918 80.6095 3.50545 76.3677C0.234337 71.8431 0.531711 65.9045 2.31595 60.8143C4.1002 56.0069 7.07393 52.0479 10.6424 48.0888C13.6162 44.4126 17.482 41.5847 21.3479 38.7568C36.8113 28.0109 57.9248 24.0518 76.0646 29.7076C78.741 30.8388 80.5252 33.6666 79.6331 36.7773ZM12.4267 68.7324V68.4496C12.4267 68.4496 12.4267 68.4496 12.4267 68.7324Z" stroke="white" stroke-miterlimit="10"/>
<path d="M168.845 64.7734C168.251 68.1669 164.385 69.5808 161.411 69.0152C152.49 67.3185 145.353 61.6627 138.216 56.2897C136.432 55.1586 134.647 53.7446 132.566 52.6135C131.674 52.0479 130.484 51.4823 129.592 50.9167C129.295 50.634 128.7 50.3512 128.403 50.3512C128.105 50.3512 127.51 50.0684 127.51 50.0684C126.618 49.7856 125.726 49.5028 124.537 49.22C124.239 49.22 124.239 48.9372 124.239 48.9372C118.589 56.0069 112.642 63.0767 106.694 69.5808C104.613 71.8431 101.044 71.8431 98.9625 70.1464C96.5835 68.1668 95.9888 65.0562 97.4757 62.5111L98.6652 60.2488C99.2599 58.8348 100.449 57.9865 101.936 57.7037C105.207 54.3102 108.181 50.634 111.155 47.2405C110.857 46.6749 110.56 46.1093 110.263 45.261C109.371 42.1503 111.452 38.7569 114.426 37.9085C115.913 37.6257 117.4 37.3429 119.184 37.0601L120.076 35.6462C121.266 33.6667 122.752 31.9699 123.942 29.9904C126.618 26.3142 128.997 22.3551 131.376 18.3961C132.863 16.1338 135.54 15.0026 137.919 15.5682C138.216 14.1543 139.108 13.0231 140.595 12.1748C143.271 10.478 147.137 11.6092 148.624 14.4371C151.003 18.9617 153.679 23.2035 154.869 28.0109C156.058 32.2527 156.653 36.7773 158.14 41.0192C158.437 41.8675 159.032 42.7159 159.032 43.5643C159.032 43.2815 159.032 43.2815 159.032 43.2815C159.032 43.5643 159.329 44.1298 159.329 44.1298C159.627 44.6954 159.627 45.261 160.222 45.5438C161.114 47.2405 162.006 48.9372 163.195 50.634L163.493 51.1996C163.79 51.7651 164.385 52.0479 164.682 52.3307L167.061 55.4414C168.845 58.552 169.44 61.3799 168.845 64.7734ZM128.403 50.3512H128.105C128.105 50.3512 128.105 50.3512 128.403 50.3512ZM148.029 48.6545C147.434 46.9577 146.84 45.5438 146.245 43.847C145.055 39.6052 144.461 35.3634 142.974 31.1216C142.676 29.9904 142.379 28.8593 141.784 28.0109V27.7281C141.487 27.1625 141.19 26.597 140.892 26.0314C140.595 25.7486 140.595 25.4658 140.595 25.183C137.621 29.7076 134.647 34.2323 131.674 38.7569C137.621 41.0192 142.676 44.6954 148.029 48.6545Z" fill="#FAFAF8"/>
<path d="M128.403 50.3512C128.7 50.3512 129.295 50.634 129.592 50.9167C130.484 51.4823 131.674 52.0479 132.566 52.6135C134.647 53.7446 136.432 55.1586 138.216 56.2897C145.353 61.6627 152.49 67.3185 161.411 69.0152C164.385 69.5808 168.251 68.1669 168.845 64.7734C169.44 61.3799 168.845 58.552 167.061 55.4414L164.682 52.3307C164.385 52.0479 163.79 51.7651 163.493 51.1996L163.195 50.634C162.006 48.9372 161.114 47.2405 160.222 45.5438C159.627 45.261 159.627 44.6954 159.329 44.1298C159.329 44.1298 159.032 43.5643 159.032 43.2815C159.032 43.2815 159.032 43.2815 159.032 43.5643C159.032 42.7159 158.437 41.8675 158.14 41.0192C156.653 36.7773 156.058 32.2527 154.869 28.0109C153.679 23.2035 151.003 18.9617 148.624 14.4371C147.137 11.6092 143.271 10.478 140.595 12.1748C139.108 13.0231 138.216 14.1543 137.919 15.5682C135.54 15.0026 132.863 16.1338 131.376 18.3961C128.997 22.3551 126.618 26.3142 123.942 29.9904C122.752 31.9699 121.266 33.6667 120.076 35.6462L119.184 37.0601C117.4 37.3429 115.913 37.6257 114.426 37.9085C111.452 38.7569 109.371 42.1503 110.263 45.261C110.56 46.1093 110.857 46.6749 111.155 47.2405C108.181 50.634 105.207 54.3102 101.936 57.7037C100.449 57.9865 99.2599 58.8348 98.6652 60.2488L97.4757 62.5111C95.9888 65.0562 96.5835 68.1668 98.9625 70.1464C101.044 71.8431 104.613 71.8431 106.694 69.5808C112.642 63.0767 118.589 56.0069 124.239 48.9372C124.239 48.9372 124.239 49.22 124.537 49.22C125.726 49.5028 126.618 49.7856 127.51 50.0684C127.51 50.0684 128.105 50.3512 128.403 50.3512ZM128.403 50.3512H128.105C128.105 50.3512 128.105 50.3512 128.403 50.3512ZM148.029 48.6545C147.434 46.9577 146.84 45.5438 146.245 43.847C145.055 39.6052 144.461 35.3634 142.974 31.1216C142.676 29.9904 142.379 28.8593 141.784 28.0109V27.7281C141.487 27.1625 141.19 26.597 140.892 26.0314C140.595 25.7486 140.595 25.4658 140.595 25.183C137.621 29.7076 134.647 34.2323 131.674 38.7569C137.621 41.0192 142.676 44.6954 148.029 48.6545Z" stroke="white" stroke-miterlimit="10"/>
<path d="M230.402 75.5193C225.346 78.0644 219.696 77.7817 214.343 76.6505C208.991 75.5194 203.638 74.1054 198.285 72.6915C192.635 71.2775 186.688 69.8636 181.038 68.1669C177.767 67.3185 175.982 64.2078 176.874 61.0972C177.766 57.9865 181.335 56.2897 184.309 57.1381C190.851 58.8348 197.691 60.5316 204.233 62.2283C207.504 63.0767 210.775 63.9251 214.046 64.7734C215.236 65.0562 216.425 65.339 217.615 65.6218C218.209 65.6218 218.804 65.6218 219.399 65.9046C219.696 65.9046 219.994 65.9046 220.291 65.9046C220.886 65.9046 221.48 65.9046 222.075 65.9046H222.67C222.967 65.9046 222.967 65.9046 222.967 65.9046C223.265 65.9046 223.265 65.9045 223.265 65.6218C223.562 65.6218 223.562 65.6218 223.562 65.6218C223.859 65.6218 223.859 65.6218 224.157 65.339C224.454 65.339 224.454 65.0562 224.454 65.0562C224.752 64.7734 224.752 64.7734 224.752 64.7734L224.454 65.0562C225.049 64.7734 224.752 64.7734 224.752 64.7734C225.049 64.7734 225.049 64.4906 225.049 64.4906L225.346 64.2078L225.644 63.9251C225.644 63.9251 225.644 63.925 225.644 63.6422L225.941 63.3595C225.941 63.3595 225.941 63.3595 225.941 63.0767C225.941 62.7939 225.941 62.2283 225.941 61.9455C225.941 61.9455 225.941 61.9455 225.941 61.6627C225.941 61.0972 225.644 60.5316 225.644 60.2488L225.346 59.966L223.859 57.7037L223.562 57.4209L222.67 56.2898C222.373 56.007 222.075 55.7242 221.778 55.4414L221.48 55.1586C219.399 53.7447 217.317 52.8963 214.938 51.7651C210.478 49.7856 205.72 48.3717 201.854 45.5438C197.393 42.7159 194.419 39.0397 192.635 34.2323C190.851 29.9905 191.148 24.9003 193.23 20.6584C194.122 18.6789 196.204 16.4166 198.285 15.5682C198.583 15.2855 198.88 15.2855 199.177 15.0027L199.772 14.7199C200.07 14.4371 200.664 14.4371 200.962 14.1543C202.151 13.5887 203.341 13.306 204.53 13.0232C207.206 12.7404 210.18 12.7404 212.857 13.5887C215.83 14.7199 218.209 16.4166 220.291 18.9617C222.075 21.5068 220.588 25.183 218.209 26.597C217.02 27.4454 214.938 27.4454 213.749 27.1626C212.262 26.8798 211.072 25.7486 210.18 24.6175C211.072 25.7486 210.478 24.9003 209.883 24.6175L209.288 24.3347H208.991C208.693 24.3347 208.693 24.3347 208.396 24.3347H207.206H206.909H206.612C206.314 24.3347 206.314 24.6175 206.314 24.6175L205.125 25.4658C205.125 25.4658 204.827 25.4658 204.827 25.7486C204.53 25.7486 204.53 26.0314 204.53 26.0314C204.53 26.0314 204.828 25.7486 205.125 25.7486L204.53 26.3142C204.53 26.3142 204.53 26.3142 204.53 26.597V26.8798C204.53 27.1626 204.53 27.1626 204.233 27.4454V27.1626L203.935 27.4454C203.935 27.4454 203.935 27.7281 203.935 28.0109V28.2937C203.935 28.5765 203.935 28.5765 203.935 28.5765C203.935 28.8593 203.935 29.4249 203.935 29.7077V29.9905C203.935 30.556 204.233 30.8388 204.233 31.4044C204.233 31.6872 204.53 31.97 204.53 32.2528C204.53 32.5355 204.827 32.5356 204.827 32.8183C205.125 33.1011 205.125 33.3839 205.422 33.9495L206.314 35.0806C206.017 34.7978 206.017 34.5151 206.017 34.5151L206.612 35.3634C206.909 35.6462 207.206 35.929 207.504 36.2118L207.801 36.4946C211.667 39.0397 216.128 40.7364 220.588 42.7159C225.049 44.6954 229.51 46.9577 232.483 50.3512C235.754 54.0275 238.133 58.5521 238.431 63.6422C238.133 67.8841 235.16 72.9743 230.402 75.5193ZM203.341 27.1626C203.341 26.8798 203.341 26.8798 203.341 26.597C203.341 26.8798 203.341 27.1626 203.341 27.1626Z" fill="#FAFAF8"/>
<path d="M224.454 65.0562C224.454 65.0562 224.454 65.339 224.157 65.339C223.859 65.6218 223.859 65.6218 223.562 65.6218C223.562 65.6218 223.562 65.6218 223.265 65.6218C223.265 65.9045 223.265 65.9046 222.967 65.9046C222.967 65.9046 222.967 65.9046 222.67 65.9046H222.075C221.48 65.9046 220.886 65.9046 220.291 65.9046C219.994 65.9046 219.696 65.9046 219.399 65.9046C218.804 65.6218 218.209 65.6218 217.615 65.6218C216.425 65.339 215.236 65.0562 214.046 64.7734C210.775 63.9251 207.504 63.0767 204.233 62.2283C197.691 60.5316 190.851 58.8348 184.309 57.1381C181.335 56.2897 177.766 57.9865 176.874 61.0972C175.982 64.2078 177.767 67.3185 181.038 68.1669C186.688 69.8636 192.635 71.2775 198.285 72.6915C203.638 74.1054 208.991 75.5194 214.343 76.6505C219.696 77.7817 225.346 78.0644 230.402 75.5193C235.16 72.9743 238.133 67.8841 238.431 63.6422C238.133 58.5521 235.754 54.0275 232.483 50.3512C229.51 46.9577 225.049 44.6955 220.588 42.7159C216.128 40.7364 211.667 39.0397 207.801 36.4946L207.504 36.2118C207.206 35.929 206.909 35.6462 206.612 35.3634L206.017 34.5151C206.017 34.5151 206.017 34.7978 206.314 35.0806L205.422 33.9495C205.125 33.3839 205.125 33.1011 204.828 32.8183C204.828 32.5356 204.53 32.5355 204.53 32.2528C204.53 31.97 204.233 31.6872 204.233 31.4044C204.233 30.8388 203.935 30.556 203.935 29.9905V29.7077C203.935 29.4249 203.935 28.8593 203.935 28.5765C203.935 28.5765 203.935 28.5765 203.935 28.2937V28.0109C203.935 27.7281 203.935 27.4454 203.935 27.4454L204.233 27.1626V27.4454C204.53 27.1626 204.53 27.1626 204.53 26.8798V26.597C204.53 26.3142 204.53 26.3142 204.53 26.3142L205.125 25.7486C204.828 25.7486 204.53 26.0314 204.53 26.0314C204.53 26.0314 204.53 25.7486 204.828 25.7486C204.828 25.4658 205.125 25.4658 205.125 25.4658L206.314 24.6175C206.314 24.6175 206.314 24.3347 206.612 24.3347H206.909H207.206H208.396C208.693 24.3347 208.693 24.3347 208.991 24.3347H209.288L209.883 24.6175C210.478 24.9003 211.072 25.7486 210.18 24.6175C211.072 25.7486 212.262 26.8798 213.749 27.1626C214.938 27.4454 217.02 27.4454 218.209 26.597C220.588 25.183 222.075 21.5068 220.291 18.9617C218.209 16.4166 215.83 14.7199 212.857 13.5887C210.18 12.7404 207.206 12.7404 204.53 13.0232C203.341 13.306 202.151 13.5887 200.962 14.1543C200.664 14.4371 200.07 14.4371 199.772 14.7199L199.177 15.0027C198.88 15.2855 198.583 15.2855 198.285 15.5682C196.204 16.4166 194.122 18.6789 193.23 20.6584C191.148 24.9003 190.851 29.9905 192.635 34.2323C194.419 39.0397 197.393 42.7159 201.854 45.5438C205.72 48.3717 210.478 49.7856 214.938 51.7651C217.317 52.8963 219.399 53.7447 221.48 55.1586L221.778 55.4414C222.075 55.7242 222.373 56.007 222.67 56.2898L223.562 57.4209L223.859 57.7037L225.346 59.966L225.644 60.2488C225.644 60.5316 225.941 61.0972 225.941 61.6627C225.941 61.9455 225.941 61.9455 225.941 61.9455C225.941 62.2283 225.941 62.7939 225.941 63.0767M224.454 65.0562C224.752 64.7734 224.752 64.7734 224.752 64.7734M224.454 65.0562L224.752 64.7734M224.454 65.0562C225.049 64.7734 224.752 64.7734 224.752 64.7734M224.752 64.7734C225.049 64.7734 225.049 64.4906 225.049 64.4906L225.346 64.2078L225.644 63.9251C225.644 63.9251 225.644 63.925 225.644 63.6422L225.941 63.3595M225.941 63.3595C225.941 63.3595 225.941 63.3595 225.941 63.0767M225.941 63.3595C225.941 63.6423 225.941 63.6423 225.941 63.9251M225.941 63.0767V62.7939V62.5111M223.265 65.9046C222.967 65.9046 222.67 65.9046 222.373 66.1874M203.341 27.1626C203.341 26.8798 203.341 26.8798 203.341 26.597C203.341 26.8798 203.341 27.1626 203.341 27.1626Z" stroke="white" stroke-miterlimit="10"/>
<path d="M319.019 64.7734C318.424 68.1669 314.558 69.5808 311.584 69.0152C302.663 67.3185 295.526 61.6627 288.389 56.2897C286.605 55.1586 284.821 53.7446 282.739 52.6135C281.847 52.0479 280.658 51.4823 279.765 50.9167C279.468 50.634 278.873 50.3512 278.576 50.3512C278.279 50.3512 277.684 50.0684 277.684 50.0684C276.792 49.7856 275.9 49.5028 274.71 49.22C274.413 49.22 274.413 48.9372 274.413 48.9372C268.763 56.0069 262.815 63.0767 256.868 69.5808C254.786 71.8431 251.217 71.8431 249.136 70.1464C246.757 68.1668 246.162 65.0562 247.649 62.5111L248.839 60.2488C249.433 58.8348 250.623 57.9865 252.11 57.7037C255.381 54.3102 258.354 50.634 261.328 47.2405C261.031 46.6749 260.733 46.1093 260.436 45.261C259.544 42.1503 261.626 38.7569 264.599 37.9085C266.086 37.6257 267.573 37.3429 269.357 37.0601L270.249 35.6462C271.439 33.6667 272.926 31.9699 274.115 29.9904C276.792 26.3142 279.171 22.3551 281.55 18.3961C283.036 16.1338 285.713 15.0026 288.092 15.5682C288.389 14.1543 289.281 13.0231 290.768 12.1748C293.445 10.478 297.31 11.6092 298.797 14.4371C301.176 18.9617 303.853 23.2035 305.042 28.0109C306.232 32.2527 306.826 36.7773 308.313 41.0192C308.611 41.8675 309.205 42.7159 309.205 43.5643C309.205 43.2815 309.205 43.2815 309.205 43.2815C309.205 43.5643 309.503 44.1298 309.503 44.1298C309.8 44.6954 309.8 45.261 310.395 45.5438C311.287 47.2405 312.179 48.9372 313.369 50.634L313.666 51.1996C313.963 51.7651 314.558 52.0479 314.855 52.3307L317.234 55.4414C319.019 58.552 319.316 61.3799 319.019 64.7734ZM278.279 50.3512H277.981C278.279 50.3512 278.279 50.3512 278.279 50.3512ZM298.203 48.6545C297.608 46.9577 297.013 45.5438 296.418 43.847C295.229 39.6052 294.634 35.3634 293.147 31.1216C292.85 29.9904 292.552 28.8593 291.958 28.0109V27.7281C291.66 27.1625 291.363 26.597 291.066 26.0314C290.768 25.7486 290.768 25.4658 290.768 25.183C287.794 29.7076 284.821 34.2323 281.847 38.7569C287.497 41.0192 292.85 44.6954 298.203 48.6545Z" fill="#FAFAF8" stroke="white" stroke-miterlimit="10"/>
<path d="M408.231 75.8022C407.339 76.3677 406.447 76.6505 405.258 76.9333C403.771 77.2161 402.284 76.6505 401.094 76.085C395.742 76.3677 389.794 76.3677 385.036 73.2571C382.062 71.5603 381.17 68.4496 382.955 65.6218C384.441 63.0767 388.605 61.9455 390.984 63.6422C391.281 63.925 391.578 63.925 391.876 64.2078C392.47 64.4906 393.065 64.4906 393.66 64.7734L394.552 65.0562C395.147 65.0562 395.742 65.0562 396.336 65.0562C392.47 50.634 390.389 35.6462 389.497 20.9412C389.199 18.1133 391.876 15.851 394.552 15.2855C394.552 14.7199 394.552 13.8715 394.849 13.0232C395.444 10.1953 399.31 8.21575 402.284 9.06412C414.476 12.4576 426.668 17.265 437.969 23.4863C446.89 28.2937 455.216 33.9495 460.866 42.1503C463.84 46.675 466.517 52.3307 465.922 57.7037C465.327 63.6423 461.461 68.7324 455.514 71.5603C450.161 74.1054 443.916 74.671 437.671 74.9538C431.724 75.2366 426.074 75.5194 420.126 75.8022C416.26 75.5194 412.395 75.8022 408.231 75.8022ZM401.689 20.6584C401.986 24.9003 402.284 29.1421 402.581 33.3839C402.879 34.5151 402.879 35.6462 402.879 36.4946L403.176 38.1913V38.4741V38.7569C403.473 41.0192 403.771 42.9987 404.068 44.9782C405.258 51.4824 406.744 57.9865 408.529 64.4906C413.584 64.2078 418.342 64.2078 423.397 64.2078C428.75 63.925 434.4 63.9251 439.753 63.3595C440.942 63.3595 442.132 63.0767 443.321 63.0767C443.619 63.0767 443.916 63.0767 444.213 62.7939C444.808 62.7939 445.403 62.5111 445.998 62.5111C446.593 62.2283 447.485 62.2283 448.079 61.9455L448.971 61.6627C449.864 61.3799 450.458 60.8144 451.35 60.2488L451.648 59.966C451.945 59.6832 452.243 59.4004 452.54 59.1177L452.837 58.552C453.135 58.2693 453.135 58.2693 453.135 57.9865C453.135 57.7037 453.432 57.4209 453.432 57.1381V56.8553C453.432 56.5726 453.432 56.2898 453.432 56.007V55.4414C453.135 55.1586 453.135 54.0274 453.135 53.7447C452.837 52.8963 452.837 52.3307 452.54 51.7651L452.243 51.1996C451.945 50.3512 451.35 49.5028 451.053 48.6545C450.458 47.8061 449.864 46.9578 449.269 45.8266C449.269 45.8266 449.269 45.8266 449.269 45.5438L448.971 45.261C448.674 44.9782 448.377 44.4127 448.079 44.1299C446.592 42.4331 445.106 41.0192 443.321 39.888L441.834 38.7569L441.537 38.4741C440.645 37.9085 439.753 37.3429 438.861 36.7774C434.995 34.2323 430.832 31.97 426.668 29.9905C424.289 28.8593 422.208 27.7281 419.829 26.8798C418.639 26.3142 417.45 25.7486 415.963 25.183L415.368 24.9003C415.368 24.9003 415.368 24.9003 415.071 24.9003C414.476 24.6175 413.881 24.3347 413.287 24.3347C409.718 23.2035 405.852 21.7896 401.689 20.6584ZM453.729 55.4414C453.729 54.3102 453.729 55.1586 453.729 55.4414V55.4414Z" fill="#FAFAF8" stroke="white" stroke-miterlimit="10"/>
<path d="M498.633 26.0314C498.336 29.7077 498.038 33.1011 497.444 36.7773C495.659 52.8963 495.659 50.3512 494.47 66.4701C494.173 69.5808 491.794 72.1259 488.523 72.1259C485.549 72.4087 482.278 69.298 482.575 66.4701C482.872 62.7939 483.467 59.4004 483.765 55.7242L486.738 26.0314C487.036 22.9207 489.117 20.6584 492.686 20.3756C495.659 20.3756 498.931 23.2035 498.633 26.0314Z" fill="#FAFAF8" stroke="white" stroke-miterlimit="10"/>
<path d="M580.41 3.97393C582.195 6.80181 580.708 10.1953 578.329 11.6092C571.787 16.1338 564.65 19.8101 556.62 22.3552C550.376 24.3347 543.833 25.1831 537.291 26.3142C536.994 26.3142 536.994 26.3142 536.696 26.3142C536.399 29.7077 535.804 33.1011 535.507 36.4946C542.346 35.0806 549.186 33.9495 556.026 33.3839C559.297 33.1011 561.973 36.2118 561.973 39.0397C562.271 42.1503 558.999 44.4127 556.026 44.6954C553.944 44.9782 552.16 44.9782 550.078 45.261H549.781H549.483L547.997 45.5438C547.105 45.8266 546.212 45.8266 545.023 46.1094C541.157 46.675 537.589 47.5233 534.02 48.6545C533.128 54.593 532.533 60.8144 531.641 66.7529C535.21 65.6218 539.075 64.4906 542.644 63.0767C543.536 62.7939 544.428 62.5111 545.32 61.9455C545.618 61.6628 546.212 61.6627 546.51 61.3799C547.699 60.8144 548.889 60.2488 550.078 59.6832C549.483 58.8349 548.889 57.9865 548.294 56.8553C546.51 54.0275 547.699 50.634 550.376 49.2201C553.052 47.5233 556.918 48.6545 558.405 51.1996C559.594 53.1791 561.081 55.4414 562.271 57.4209C563.46 59.6832 563.757 62.2283 562.568 64.4906C561.676 65.9046 560.189 67.0357 558.999 67.8841C555.728 69.8636 551.862 71.5603 547.997 72.9743C540.86 75.8022 533.128 77.7817 525.694 80.044C523.612 80.6096 521.233 80.044 520.043 78.63C518.259 77.2161 518.259 75.2366 518.557 73.2571C518.854 70.9948 519.151 69.0152 519.449 66.7529V67.0357C519.449 66.7529 519.449 66.1874 519.449 66.1874L519.746 64.4906C520.044 63.3595 520.043 62.2283 520.043 61.3799C520.638 57.1381 521.233 52.8963 521.828 48.6545C523.017 40.1708 523.909 31.6872 524.801 23.2035C525.099 20.0929 527.18 17.5478 530.749 17.5478C531.641 16.6994 532.533 15.851 533.723 15.5682C540.265 14.4371 546.51 13.5887 552.755 11.6092C554.241 11.0436 555.728 10.7609 557.215 10.1953C557.215 10.1953 557.215 10.1953 557.513 10.1953C557.81 9.91249 558.405 9.91248 558.702 9.62969C559.594 9.3469 560.189 8.78132 561.081 8.49853C564.947 6.51902 568.515 4.53951 572.084 1.99442C575.058 0.0148995 578.626 1.42883 580.41 3.97393ZM553.647 57.9865C553.944 57.7037 553.944 57.7037 553.944 57.7037C553.647 57.7037 553.647 57.9865 553.647 57.9865Z" fill="#FAFAF8" stroke="white" stroke-miterlimit="10"/>
<path d="M642.859 22.0724C642.264 22.0724 641.67 22.3551 641.075 22.3551C639.588 22.6379 638.399 22.9207 636.912 23.2035C635.722 23.4863 634.235 24.0519 633.046 24.3347L630.964 25.183L630.37 25.4658C630.37 25.4658 630.37 25.4658 630.072 25.4658C627.693 26.597 625.017 27.7281 622.638 29.1421C621.746 29.7076 620.854 30.2732 619.961 30.8388L619.664 31.1216C619.664 31.1216 619.664 31.1216 619.367 31.1216L619.069 31.4044C618.772 31.6872 618.177 31.9699 617.88 32.5355C616.096 33.9495 614.609 35.3634 613.122 37.0601L611.04 39.3224C611.04 39.6052 610.743 39.6052 610.743 39.888C610.445 40.1708 610.148 40.7364 609.851 41.0192C608.661 42.7159 607.472 44.6954 606.58 46.3922C605.985 47.2405 605.688 48.0889 605.093 49.22C605.093 49.22 605.093 49.22 605.093 49.5028C605.093 49.7856 605.093 49.7856 604.795 50.0684C604.498 50.634 604.498 50.9168 604.201 51.4823C603.903 52.3307 603.606 53.4619 603.309 54.3102L603.011 55.7241C603.011 56.0069 603.011 56.007 603.011 56.2898C603.011 56.8553 603.011 57.4209 603.011 57.9865C603.011 58.2692 603.011 58.2692 603.011 58.552L603.309 59.6832V59.966L603.606 60.5316C603.903 60.8144 603.903 61.0971 604.201 61.3799C604.498 61.3799 604.498 61.6627 604.498 61.6627L605.093 61.9455C605.985 62.2283 606.877 62.5111 608.067 62.7939C608.661 62.7939 608.959 62.7939 608.661 62.7939H608.959C609.553 62.7939 610.148 62.7939 610.446 62.7939C611.338 62.7939 612.527 62.7939 613.717 62.7939C614.311 62.7939 614.609 62.7939 615.203 62.7939C615.501 62.7939 616.988 62.5111 616.096 62.7939C616.393 62.7939 616.393 62.7939 616.393 62.7939C616.69 62.7939 616.988 62.7939 617.285 62.5111L618.772 62.2283C619.664 61.9455 620.556 61.6627 621.746 61.3799L624.719 60.5316C625.314 60.2488 625.314 60.2488 625.314 60.2488C625.612 59.966 626.206 59.966 626.504 59.6832C628.288 58.8348 630.37 57.7037 631.856 56.5725L632.451 56.007C632.749 55.7242 633.046 55.4414 633.343 55.1586C634.235 54.593 634.83 54.0274 635.425 53.1791L637.506 51.1996H637.209L635.722 51.4823C634.83 51.7651 633.641 51.7651 632.749 52.0479C630.667 52.3307 628.883 52.8963 626.801 53.4619C623.53 54.3102 620.259 52.3307 619.367 49.5028C618.475 46.3921 620.556 43.2815 623.53 42.4331C628.585 41.0192 633.641 40.1708 638.993 39.6052C641.372 39.3224 643.454 39.3225 645.536 39.888C648.509 40.4536 650.888 42.1503 652.673 44.6954C653.862 46.3922 653.565 48.6545 652.673 50.634C647.617 60.5316 638.399 67.8841 627.396 71.8431C622.935 73.5398 617.88 74.3882 612.824 74.3882C606.877 74.671 600.93 73.5398 596.172 69.5808C591.116 65.6218 590.521 59.1176 591.116 53.4619C592.008 48.6545 594.09 43.847 596.469 39.6052C607.472 20.9412 629.18 9.06411 651.78 10.1953C655.349 10.4781 657.728 12.7404 658.025 16.1338C658.025 19.2445 655.052 22.0724 651.78 21.7896C649.104 21.5068 646.428 21.7896 643.454 22.0724C643.751 22.0724 643.454 22.0724 642.859 22.0724ZM619.961 31.1216C619.664 31.4044 619.961 31.4044 619.961 31.1216V31.1216ZM638.101 50.3512C638.399 50.0684 638.399 50.0684 638.399 50.0684L638.101 50.3512Z" fill="#FAFAF8"/>
<path d="M608.661 62.7939C608.959 62.7939 608.661 62.7939 608.067 62.7939C606.877 62.5111 605.985 62.2283 605.093 61.9455L604.498 61.6627C604.498 61.6627 604.498 61.3799 604.201 61.3799C603.903 61.0971 603.903 60.8144 603.606 60.5316L603.309 59.966V59.6832L603.011 58.552C603.011 58.2692 603.011 58.2692 603.011 57.9865C603.011 57.4209 603.011 56.8553 603.011 56.2898C603.011 56.007 603.011 56.0069 603.011 55.7241L603.309 54.3102C603.606 53.4619 603.903 52.3307 604.201 51.4823C604.498 50.9168 604.498 50.634 604.795 50.0684C605.093 49.7856 605.093 49.7856 605.093 49.5028C605.093 49.22 605.093 49.22 605.093 49.22C605.688 48.0889 605.985 47.2405 606.58 46.3921C607.472 44.6954 608.661 42.7159 609.851 41.0192C610.148 40.7364 610.445 40.1708 610.743 39.888C610.743 39.6052 611.04 39.6052 611.04 39.3224L613.122 37.0601C614.609 35.3634 616.096 33.9495 617.88 32.5355C618.177 31.9699 618.772 31.6872 619.069 31.4044L619.367 31.1216C619.664 31.1216 619.664 31.1216 619.664 31.1216L619.961 30.8388C620.854 30.2732 621.746 29.7076 622.638 29.1421C625.017 27.7281 627.693 26.597 630.072 25.4658C630.37 25.4658 630.37 25.4658 630.37 25.4658L630.964 25.183L633.046 24.3347C634.235 24.0519 635.722 23.4863 636.912 23.2035C638.399 22.9207 639.588 22.6379 641.075 22.3551C641.67 22.3551 642.264 22.0724 642.859 22.0724C643.454 22.0724 643.751 22.0724 643.454 22.0724C646.428 21.7896 649.104 21.5068 651.78 21.7896C655.052 22.0724 658.025 19.2445 658.025 16.1338C657.728 12.7404 655.349 10.4781 651.78 10.1953C629.18 9.06411 607.472 20.9412 596.469 39.6052C594.09 43.8471 592.008 48.6545 591.116 53.4619C590.521 59.1176 591.116 65.6218 596.172 69.5808C600.93 73.5398 606.877 74.671 612.824 74.3882C617.88 74.3882 622.935 73.5398 627.396 71.8431C638.399 67.8841 647.617 60.5316 652.673 50.634C653.565 48.6545 653.862 46.3922 652.673 44.6954C650.888 42.1503 648.509 40.4536 645.536 39.888C643.454 39.3225 641.372 39.3224 638.993 39.6052C633.641 40.1708 628.585 41.0192 623.53 42.4331C620.556 43.2815 618.475 46.3921 619.367 49.5028C620.259 52.3307 623.53 54.3102 626.801 53.4619C628.883 52.8963 630.667 52.3307 632.749 52.0479C633.641 51.7651 634.83 51.7651 635.722 51.4823L637.209 51.1996H637.506L635.425 53.1791C634.83 54.0274 634.235 54.593 633.343 55.1586C633.046 55.4414 632.749 55.7242 632.451 56.007L631.856 56.5725C630.37 57.7037 628.288 58.8348 626.504 59.6832C626.206 59.966 625.612 59.966 625.314 60.2488C625.314 60.2488 625.314 60.2488 624.719 60.5316L621.746 61.3799C620.556 61.6627 619.664 61.9455 618.772 62.2283L617.285 62.5111C616.988 62.7939 616.69 62.7939 616.393 62.7939C616.393 62.7939 616.393 62.7939 616.096 62.7939C616.988 62.5111 615.501 62.7939 615.203 62.7939C614.609 62.7939 614.311 62.7939 613.717 62.7939C612.527 62.7939 611.338 62.7939 610.446 62.7939C610.148 62.7939 609.553 62.7939 608.959 62.7939H608.661ZM608.661 62.7939H608.364M619.961 31.1216C619.664 31.4044 619.961 31.4044 619.961 31.1216ZM638.101 50.3512C638.399 50.0684 638.399 50.0684 638.399 50.0684L638.101 50.3512Z" stroke="white" stroke-miterlimit="10"/>
<path d="M748.427 35.0806C746.94 42.1503 743.075 48.3717 738.317 53.7446C733.559 58.8348 727.611 62.7938 721.069 65.6217C714.229 68.4496 706.497 70.4292 699.063 69.5808C691.331 68.7324 683.302 65.9045 679.437 58.552C676.165 52.0479 676.165 44.4126 678.544 37.9085C681.221 31.1216 685.681 25.4658 691.926 21.5068C695.197 19.5273 699.361 17.8305 703.524 17.265C705.903 15.5682 708.579 13.5887 711.255 12.1748C714.229 10.7608 717.5 9.34688 720.771 8.49851C728.503 6.23621 738.316 5.95342 743.967 12.4576C749.319 18.9617 749.914 27.7281 748.427 35.0806ZM736.83 31.6872C737.127 31.1216 737.127 30.2732 737.127 29.7076V27.1626C737.127 26.8798 737.127 26.597 737.127 26.3142C736.83 25.183 736.532 23.4863 736.235 22.3551C736.235 22.0724 736.235 22.0724 736.235 22.0724V22.3551C736.235 22.3551 736.235 22.0724 735.938 22.0724C735.938 22.0724 735.938 22.0724 735.938 21.7896C735.938 21.5068 735.64 21.5068 735.64 21.224C735.343 20.9412 735.343 20.9412 735.343 20.6584C735.045 20.3756 735.045 20.0928 734.748 20.0928C734.451 19.8101 733.856 19.81 733.559 19.5273H733.261L732.369 19.2445C732.964 19.5273 732.072 19.2445 731.774 19.2445H729.99C729.693 19.2445 729.395 19.2445 729.098 19.2445H728.801C728.206 19.2445 728.503 19.5273 728.801 19.5273C728.206 19.81 727.314 19.81 727.016 19.81C726.124 20.0928 725.529 20.0928 724.935 20.3756C723.745 20.6584 722.556 20.9412 721.366 21.5068C721.069 21.7896 720.771 21.7896 720.474 21.7896L719.879 22.0724C720.177 22.6379 720.177 22.9207 720.177 23.4863C720.177 24.9002 719.285 26.597 718.392 27.7281C717.5 28.5765 715.419 29.4248 714.229 29.4248C712.445 29.1421 710.958 29.1421 709.174 29.1421H708.282C708.579 29.1421 708.579 29.1421 708.282 29.1421C707.984 29.1421 707.687 29.1421 707.687 29.4248C707.092 29.7076 706.498 29.7076 705.605 29.7076L703.226 30.556C702.929 30.556 701.442 31.4044 702.334 30.8388C703.226 30.2732 702.037 31.1216 702.037 31.1216C701.145 31.4044 700.55 31.9699 699.955 32.2527C699.361 32.5355 698.171 33.1011 697.874 33.3839C698.468 32.8183 698.766 32.8183 698.171 33.1011L697.576 33.3839C697.279 33.6667 696.982 33.9495 696.684 34.2323C696.089 34.7978 695.495 35.3634 694.9 35.929C694.603 36.2118 694.305 36.4946 694.008 36.7773C693.71 36.7773 692.818 38.1913 692.818 38.4741L691.629 40.4536C691.331 40.7364 691.331 41.302 691.034 41.5848C690.737 42.4331 689.845 45.261 689.845 45.5438C689.845 45.8266 689.845 46.6749 689.547 46.9577C689.547 47.5233 689.547 47.8061 689.547 48.3717C689.547 48.9373 689.547 49.5028 689.547 50.3512V50.634C689.547 50.9168 689.547 50.9168 689.547 50.9168C689.845 51.7651 689.845 52.3307 690.142 53.1791C690.142 53.1791 690.142 53.4618 690.439 53.4618C690.439 53.4618 690.439 53.4618 690.439 53.7446V54.0274V54.3102C690.737 54.8758 691.034 55.1586 691.331 55.7241C691.629 56.0069 691.629 56.007 691.926 56.2898C692.224 56.5725 692.818 57.1381 692.818 57.1381C692.224 56.5725 691.926 56.5725 692.521 56.8553C692.521 56.8553 692.521 56.8553 692.818 56.8553C693.413 57.1381 694.008 57.7037 694.603 57.7037L695.197 57.9865C694.9 57.9865 694.9 57.7037 694.603 57.7037C694.603 57.7037 694.9 57.9865 695.197 57.9865C695.495 57.9865 695.495 58.2693 695.792 58.2693C696.387 58.5521 696.982 58.552 697.874 58.8348L699.063 59.1176C699.361 59.1176 699.658 59.1176 699.955 59.4004C699.658 59.4004 699.361 59.4004 699.063 59.4004C699.658 59.6832 700.55 59.6832 701.145 59.6832C702.632 59.6832 704.119 59.6832 705.605 59.6832C705.903 59.6832 706.498 59.6832 706.795 59.4004C707.687 59.1176 708.282 59.1176 708.876 59.1176C710.363 58.8348 711.85 58.552 713.04 57.9865C713.932 57.7037 714.527 57.4209 715.419 57.1381C715.716 57.1381 716.013 56.8553 716.311 56.8553C717.5 56.2897 718.987 55.7242 720.177 54.8758C721.366 54.0274 722.853 53.1791 724.043 52.3307L724.34 52.0479L724.637 51.7651C725.232 51.4823 725.529 50.9168 726.124 50.634C727.314 49.7856 728.206 48.6545 729.395 47.5233L730.585 46.1094L730.882 45.8266C731.18 45.5438 731.18 45.5438 731.18 45.261C732.072 44.1298 732.964 42.9987 733.559 41.5848C733.856 41.0192 734.153 40.4536 734.451 39.888L734.748 39.6052C735.045 39.3224 735.045 39.0397 735.045 38.7569C735.64 37.3429 735.937 35.929 736.235 34.2323C736.532 32.2527 736.532 31.97 736.83 31.6872ZM689.845 52.6135C689.845 52.3307 689.845 52.3307 689.845 52.6135V52.6135ZM689.845 52.6135C689.845 52.6135 690.142 52.8963 690.142 53.1791C689.845 52.8963 689.845 52.6135 689.845 52.6135ZM706.795 28.5765C707.092 28.5765 707.092 28.5765 707.092 28.5765H707.39C707.092 28.5765 706.795 28.5765 706.795 28.5765ZM735.64 21.5068C735.64 21.7896 735.64 21.7896 735.64 21.5068V21.5068Z" fill="#FAFAF8"/>
<path d="M736.83 31.6872C737.127 31.1216 737.127 30.2732 737.127 29.7076V27.1626C737.127 26.8798 737.127 26.597 737.127 26.3142C736.83 25.183 736.532 23.4863 736.235 22.3551M736.83 31.6872C736.532 31.97 736.532 32.2527 736.235 34.2323C735.937 35.929 735.64 37.3429 735.045 38.7569C735.045 39.0397 735.045 39.3224 734.748 39.6052L734.451 39.888C734.153 40.4536 733.856 41.0192 733.559 41.5848C732.964 42.9987 732.072 44.1298 731.18 45.261C731.18 45.5438 731.18 45.5438 730.882 45.8266L730.585 46.1094L729.395 47.5233C728.206 48.6545 727.314 49.7856 726.124 50.634C725.529 50.9168 725.232 51.4823 724.637 51.7651L724.34 52.0479L724.043 52.3307C722.853 53.1791 721.366 54.0274 720.177 54.8758C718.987 55.7242 717.5 56.2897 716.311 56.8553C716.013 56.8553 715.716 57.1381 715.419 57.1381C714.527 57.4209 713.932 57.7037 713.04 57.9865C711.85 58.552 710.363 58.8348 708.876 59.1176C708.282 59.1176 707.687 59.1176 706.795 59.4004C706.498 59.6832 705.903 59.6832 705.605 59.6832C704.119 59.6832 702.632 59.6832 701.145 59.6832C700.55 59.6832 699.658 59.6832 699.063 59.4004C699.361 59.4004 699.658 59.4004 699.955 59.4004C699.658 59.1176 699.361 59.1176 699.063 59.1176L697.874 58.8348C696.982 58.552 696.387 58.5521 695.792 58.2693C695.495 58.2693 695.495 57.9865 695.197 57.9865M736.83 31.6872C736.83 31.4044 736.83 31.1216 736.83 30.8388M736.235 22.3551C736.235 22.0724 736.235 22.0724 736.235 22.0724V22.3551ZM736.235 22.3551C736.235 22.3551 736.235 22.0724 735.938 22.0724C735.938 22.0724 735.938 22.0724 735.938 21.7896C735.938 21.5068 735.64 21.5068 735.64 21.224C735.343 20.9412 735.343 20.9412 735.343 20.6584C735.045 20.3756 735.045 20.0928 734.748 20.0928C734.451 19.8101 733.856 19.81 733.559 19.5273H733.261L732.369 19.2445C732.964 19.5273 732.072 19.2445 731.774 19.2445H729.99C729.693 19.2445 729.395 19.2445 729.098 19.2445H728.801C728.206 19.2445 728.503 19.5273 728.801 19.5273C728.206 19.81 727.314 19.81 727.016 19.81C726.124 20.0928 725.529 20.0928 724.935 20.3756C723.745 20.6584 722.556 20.9412 721.366 21.5068C721.069 21.7896 720.771 21.7896 720.474 21.7896L719.879 22.0724C720.177 22.6379 720.177 22.9207 720.177 23.4863C720.177 24.9002 719.285 26.597 718.392 27.7281C717.5 28.5765 715.419 29.4248 714.229 29.4248C712.445 29.1421 710.958 29.1421 709.174 29.1421H708.282M708.282 29.1421C708.579 29.1421 708.579 29.1421 708.282 29.1421ZM708.282 29.1421C707.984 29.1421 707.687 29.1421 707.687 29.4248C707.092 29.7076 706.498 29.7076 705.605 29.7076L703.226 30.556C702.929 30.556 701.442 31.4044 702.334 30.8388C703.226 30.2732 702.037 31.1216 702.037 31.1216C701.145 31.4044 700.55 31.9699 699.955 32.2527C699.361 32.5355 698.171 33.1011 697.874 33.3839C698.468 32.8183 698.766 32.8183 698.171 33.1011L697.576 33.3839C697.279 33.6667 696.982 33.9495 696.684 34.2323C696.089 34.7978 695.495 35.3634 694.9 35.929C694.603 36.2118 694.305 36.4946 694.008 36.7773C693.71 36.7773 692.818 38.1913 692.818 38.4741L691.629 40.4536C691.331 40.7364 691.331 41.302 691.034 41.5848C690.737 42.4331 689.845 45.261 689.845 45.5438C689.845 45.8266 689.845 46.6749 689.547 46.9577C689.547 47.5233 689.547 47.8061 689.547 48.3717C689.547 48.9373 689.547 49.5028 689.547 50.3512V50.634C689.547 50.9168 689.547 50.9168 689.547 50.9168C689.845 51.7651 689.845 52.3307 690.142 53.1791M690.142 53.1791C690.142 53.1791 690.142 53.4618 690.439 53.4618C690.439 53.4618 690.439 53.4618 690.439 53.7446V54.0274V54.3102C690.737 54.8758 691.034 55.1586 691.331 55.7241C691.629 56.0069 691.629 56.007 691.926 56.2898C692.224 56.5725 692.818 57.1381 692.818 57.1381C692.224 56.5725 691.926 56.5725 692.521 56.8553C692.521 56.8553 692.521 56.8553 692.818 56.8553C693.413 57.1381 694.008 57.7037 694.603 57.7037M690.142 53.1791C690.142 52.8963 689.845 52.6135 689.845 52.6135M690.142 53.1791C689.845 52.8963 689.845 52.6135 689.845 52.6135M694.603 57.7037L695.197 57.9865M694.603 57.7037C694.9 57.7037 694.9 57.9865 695.197 57.9865M694.603 57.7037C694.603 57.7037 694.9 57.9865 695.197 57.9865M688.952 49.5028V49.22M689.845 52.6135C689.845 52.3307 689.845 52.3307 689.845 52.6135ZM748.427 35.0806C746.94 42.1503 743.074 48.3717 738.317 53.7446C733.559 58.8348 727.611 62.7938 721.069 65.6217C714.229 68.4496 706.497 70.4292 699.063 69.5808C691.331 68.7324 683.302 65.9045 679.437 58.552C676.165 52.0479 676.165 44.4126 678.544 37.9085C681.221 31.1216 685.681 25.4658 691.926 21.5068C695.197 19.5273 699.361 17.8305 703.524 17.265C705.903 15.5682 708.579 13.5887 711.255 12.1748C714.229 10.7608 717.5 9.34688 720.771 8.49851C728.503 6.23621 738.316 5.95342 743.967 12.4576C749.319 18.9617 749.914 27.7281 748.427 35.0806ZM706.795 28.5765C707.092 28.5765 707.092 28.5765 707.092 28.5765H707.39C707.092 28.5765 706.795 28.5765 706.795 28.5765ZM735.64 21.5068C735.64 21.7896 735.64 21.7896 735.64 21.5068Z" stroke="white" stroke-miterlimit="10"/>
<path d="M28.7822 143.106V119.917L18.0767 137.733H16.2925L5.58702 119.917V143.106H2.61328V115.11H5.58702L17.1846 134.339L28.7822 115.11H31.7559V143.106H28.7822Z" fill="white" stroke="white" stroke-miterlimit="10"/>
<path d="M59.7094 114.827H62.0884L74.2807 142.823H71.307L67.4411 134.057H54.0593L50.1935 142.823H47.2197L59.7094 114.827ZM66.8464 132.077L60.8989 118.22L54.9514 132.077H66.8464Z" fill="white" stroke="white" stroke-miterlimit="10"/>
<path d="M90.3389 143.106V115.11H102.829C104.018 115.11 105.208 115.392 106.397 115.958C107.587 116.524 108.479 117.089 109.073 117.938C109.966 118.786 110.56 119.634 110.858 120.765C111.155 121.897 111.452 123.028 111.452 123.876C111.452 125.007 111.155 125.856 110.858 126.704C110.56 127.552 109.966 128.401 109.668 129.249C109.371 130.097 108.479 130.663 107.587 131.229C106.694 131.794 105.802 132.077 104.91 132.36L112.047 143.106H109.073L102.234 132.643H93.61V143.106H90.3389ZM93.3126 130.097H103.126C104.018 130.097 104.91 129.815 105.505 129.532C106.1 129.249 106.694 128.684 107.289 128.118C107.884 127.552 108.181 126.704 108.479 126.138C108.776 125.573 108.776 124.442 108.776 123.593C108.776 122.745 108.479 121.897 108.181 121.048C107.884 120.2 107.289 119.634 106.992 119.069C106.397 118.503 105.802 117.938 105.208 117.655C104.613 117.372 103.721 117.089 102.829 117.089H93.3126V130.097Z" fill="white" stroke="white" stroke-miterlimit="10"/>
<path d="M137.918 114.827H140.297L152.49 142.823H149.516L145.65 134.057H132.268L128.402 142.823H125.429L137.918 114.827ZM145.055 132.077L139.108 118.22L133.16 132.077H145.055Z" fill="white" stroke="white" stroke-miterlimit="10"/>
<path d="M168.548 143.106V115.11H178.659C181.038 115.11 183.119 115.392 184.903 116.241C186.688 117.089 188.175 117.938 189.364 119.352C190.554 120.483 191.446 122.179 192.04 123.876C192.635 125.573 192.932 127.27 192.932 129.249C192.932 131.511 192.635 133.208 192.04 135.188C191.446 136.884 190.554 138.298 189.067 139.712C187.877 140.843 186.39 141.975 184.606 142.54C182.822 143.106 181.038 143.671 178.659 143.671H168.548V143.106ZM189.959 128.966C189.959 127.27 189.661 125.856 189.067 124.442C188.472 123.028 187.877 121.897 186.985 120.765C186.093 119.634 184.903 119.069 183.417 118.503C181.93 117.938 180.443 117.655 178.659 117.655H171.522V140.843H178.659C180.443 140.843 182.227 140.561 183.417 139.995C184.903 139.429 186.093 138.581 186.985 137.45C187.877 136.319 188.769 135.188 189.067 133.774C189.661 132.077 189.959 130.663 189.959 128.966Z" fill="white" stroke="white" stroke-miterlimit="10"/>
<path d="M222.076 143.389C219.994 143.389 218.21 143.106 216.426 142.257C214.641 141.409 213.154 140.278 211.965 139.147C210.775 137.733 209.883 136.319 208.991 134.622C208.396 132.925 208.099 131.229 208.099 129.249C208.099 127.27 208.396 125.573 209.289 123.876C210.181 122.179 211.073 120.765 212.262 119.352C213.452 117.938 214.939 117.089 216.723 116.241C218.507 115.392 220.291 115.11 222.076 115.11C224.157 115.11 225.942 115.392 227.726 116.241C229.51 117.089 230.997 118.22 232.186 119.634C233.376 121.048 234.268 122.462 234.863 124.159C235.458 125.856 235.755 127.552 235.755 129.249C235.755 131.229 235.457 132.925 234.565 134.622C233.971 136.319 232.781 137.733 231.592 139.147C230.402 140.561 228.915 141.409 227.131 142.257C225.644 142.823 223.86 143.389 222.076 143.389ZM211.073 128.966C211.073 130.38 211.37 132.077 211.965 133.491C212.56 134.905 213.154 136.036 214.344 137.167C215.236 138.298 216.426 139.147 217.912 139.712C219.102 140.278 220.589 140.561 222.373 140.561C224.157 140.561 225.644 140.278 226.834 139.429C228.321 138.864 229.213 137.733 230.402 136.602C231.592 135.47 232.186 134.339 232.484 132.925C233.079 131.511 233.376 130.097 233.376 128.684C233.376 127.27 233.079 125.573 232.484 124.159C231.889 122.745 231.294 121.614 230.105 120.483C229.213 119.352 228.023 118.503 226.536 117.938C225.347 117.372 223.86 117.089 222.076 117.089C220.291 117.089 218.805 117.372 217.615 118.22C216.128 118.786 215.236 119.917 214.047 120.765C213.154 121.897 212.262 123.028 211.965 124.442C211.37 126.138 211.073 127.552 211.073 128.966Z" fill="white" stroke="white" stroke-miterlimit="10"/>
<path d="M255.976 120.2V143.106H253.002V115.11H255.381L275.008 138.581V115.11H277.981V143.106H275.305L255.976 120.2Z" fill="white" stroke="white" stroke-miterlimit="10"/>
<path d="M305.934 114.827H308.313L320.505 142.823H317.532L313.666 134.057H300.284L296.418 142.823H293.444L305.934 114.827ZM313.071 132.077L307.124 118.22L301.176 132.077H313.071Z" fill="white" stroke="white" stroke-miterlimit="10"/>
<path d="M357.678 143.106V115.11H377.007V117.655H360.651V128.118H374.628V130.38H360.651V143.389H357.678V143.106Z" fill="white" stroke="white" stroke-miterlimit="10"/>
<path d="M399.607 114.827H401.986L414.179 142.823H411.205L407.339 134.057H393.957L390.091 142.823H387.118L399.607 114.827ZM406.744 132.077L400.797 118.22L394.849 132.077H406.744Z" fill="white" stroke="white" stroke-miterlimit="10"/>
<path d="M456.406 143.106V119.917L445.7 137.733H443.916L433.211 119.917V143.106H430.237V115.11H433.211L444.808 134.339L456.406 115.11H459.379V143.106H456.406Z" fill="white" stroke="white" stroke-miterlimit="10"/>
<path d="M478.411 143.106V115.11H481.385V143.106H478.411Z" fill="white" stroke="white" stroke-miterlimit="10"/>
<path d="M500.417 143.106V115.11H503.39V140.843H520.341V143.389H500.417V143.106Z" fill="white" stroke="white" stroke-miterlimit="10"/>
<path d="M531.641 114.827L541.157 129.815L550.971 114.827H554.242L542.644 132.36V142.823H539.67V132.36L528.37 114.827H531.641Z" fill="white" stroke="white" stroke-miterlimit="10"/>
<path d="M614.311 114.827V142.823H611.338V129.815H593.793V142.823H590.819V114.827H593.793V127.27H611.338V114.827H614.311Z" fill="white" stroke="white" stroke-miterlimit="10"/>
<path d="M645.238 143.389C643.156 143.389 641.372 143.106 639.588 142.257C637.803 141.409 636.317 140.278 635.127 139.147C633.938 137.733 633.045 136.319 632.153 134.622C631.559 132.925 631.261 131.229 631.261 129.249C631.261 127.27 631.559 125.573 632.451 123.876C633.343 122.179 634.235 120.765 635.424 119.352C636.614 117.938 638.101 117.089 639.885 116.241C641.669 115.392 643.454 115.11 645.238 115.11C647.319 115.11 649.104 115.392 650.888 116.241C652.672 117.089 654.159 118.22 655.348 119.634C656.538 121.048 657.43 122.462 658.025 124.159C658.62 125.856 658.917 127.552 658.917 129.249C658.917 131.229 658.62 132.925 657.727 134.622C657.133 136.319 655.943 137.733 654.754 139.147C653.564 140.561 652.077 141.409 650.293 142.257C649.104 142.823 647.319 143.389 645.238 143.389ZM634.235 128.966C634.235 130.38 634.532 132.077 635.127 133.491C635.722 134.905 636.317 136.036 637.506 137.167C638.398 138.298 639.588 139.147 641.075 139.712C642.264 140.278 643.751 140.561 645.535 140.561C647.319 140.561 648.806 140.278 649.996 139.429C651.483 138.864 652.375 137.733 653.564 136.602C654.754 135.47 655.348 134.339 655.646 132.925C656.241 131.511 656.538 130.097 656.538 128.684C656.538 127.27 656.241 125.573 655.646 124.159C655.051 122.745 654.456 121.614 653.267 120.483C652.375 119.352 651.185 118.503 649.698 117.938C648.509 117.372 647.022 117.089 645.238 117.089C643.454 117.089 641.967 117.372 640.777 118.22C639.29 118.786 638.398 119.917 637.209 120.765C636.317 121.897 635.424 123.028 635.127 124.442C634.532 126.138 634.235 127.552 634.235 128.966Z" fill="white" stroke="white" stroke-miterlimit="10"/>
<path d="M702.334 143.106V119.917L691.628 137.733H689.844L679.139 119.917V143.106H676.165V115.11H679.139L690.736 134.339L702.334 115.11H705.308V143.106H702.334Z" fill="white" stroke="white" stroke-miterlimit="10"/>
<path d="M744.263 140.561V143.106H724.339V115.11H743.966V117.655H727.313V127.835H741.884V130.097H727.313V140.843H744.263V140.561Z" fill="white" stroke="white" stroke-miterlimit="10"/>
</svg>
