<svg width="101" height="82" viewBox="0 0 101 82" fill="none" xmlns="http://www.w3.org/2000/svg">
<g clip-path="url(#clip0_239_468)">
<path d="M25.8101 80.9845C25.9601 81.0145 26.1401 81.0145 26.3201 81.0044H26.5201C49.5501 81.0044 72.5901 81.0044 95.6201 81.0044C95.9901 81.0044 96.4101 80.9945 96.8001 80.9145C98.4401 80.5745 99.4801 79.5345 100.06 77.6345V61.4244C99.7001 60.8644 99.2001 60.6344 98.4301 60.6744C97.5201 60.7145 96.6201 60.7044 95.6701 60.6945C95.2501 60.6945 94.8201 60.6945 94.3801 60.6945H94.0001V60.3144C94.0101 52.8144 96.0001 45.4544 100.07 37.8244V37.0744C99.6701 36.5844 99.3401 36.3344 99.0501 36.3244C98.7501 36.3244 98.4701 36.4944 98.0901 36.8844C96.3201 38.7444 94.5501 40.6644 92.8401 42.5244L90.8701 44.6644C90.7701 44.7744 90.6701 44.8844 90.5401 45.0345L89.6101 46.1045V44.7344C89.6101 44.5444 89.6101 44.4044 89.6101 44.2645C89.7901 39.2044 90.4501 34.7345 91.6401 30.6245C92.7701 26.6945 94.0401 22.7345 95.2701 18.9045C95.7901 17.2745 96.3101 15.6345 96.8301 14.0045C97.0301 13.3745 97.1201 12.5545 96.4401 12.2445C95.8301 11.9745 95.4201 12.1645 94.8601 12.9445C94.4301 13.5445 94.0001 14.1545 93.5601 14.7545C92.7401 15.8945 91.9301 17.0245 91.1301 18.1745C88.1601 22.4645 84.4101 28.2345 81.8001 34.7845C81.6801 35.0844 81.5501 35.3945 81.4201 35.7145L80.9301 36.9244L80.4201 36.2645C80.3501 36.1744 80.2801 36.0944 80.2401 35.9844C76.7901 26.7844 71.2801 18.9445 66.8601 13.1445C66.5501 12.7345 66.0701 12.2545 65.5201 12.2545C64.9801 12.2545 64.5201 12.7345 64.2301 13.1345C62.6801 15.2645 61.1501 17.4145 59.6101 19.5645L57.4801 22.5545C57.4101 22.6545 57.3301 22.7445 57.2101 22.8745L56.5201 23.6745L56.0801 21.7145C55.8801 20.8145 55.7001 19.9745 55.5001 19.1345C55.3101 18.3545 54.8301 17.9645 54.2201 18.0845C53.9001 18.1545 53.6501 18.3145 53.5101 18.5645C53.3601 18.8245 53.3201 19.1845 53.4001 19.5845C53.5601 20.3645 53.7301 21.1544 53.9001 21.9345C54.1801 23.1945 54.4601 24.4944 54.7001 25.7845C54.8101 26.4045 54.7301 27.1545 54.4801 27.7445C53.6401 29.7245 52.7401 31.7244 51.8701 33.6544L51.0101 35.5744C50.9301 35.7644 50.8301 35.9444 50.7601 36.0944L50.3401 36.9344L49.0901 34.2444C48.0201 31.9544 46.9601 29.6845 45.9201 27.3945C45.7301 26.9845 45.7501 26.4745 45.8201 26.1445C46.4501 23.3845 47.1001 20.6345 47.7401 17.8845L50.4401 6.38445L50.9501 8.46445C51.0201 8.73445 51.0701 8.92445 51.1101 9.12445C51.2001 9.54445 51.3001 9.97445 51.3901 10.3945C51.5901 11.3345 51.7901 12.2645 52.0301 13.1945C52.1901 13.8245 52.6801 14.1245 53.2801 13.9745C53.8901 13.8145 54.1501 13.4345 54.0901 12.7645C54.0701 12.5545 54.0401 12.3445 53.9901 12.1445L53.8601 11.5545C53.2001 8.48445 52.5401 5.41445 51.8701 2.35445C51.8401 2.22445 51.8201 2.09445 51.7901 1.95445C51.7001 1.48445 51.6101 1.04445 51.4101 0.704451C51.1901 0.334451 50.7001 -0.045549 50.5401 0.00445104C50.2901 0.024451 49.9401 0.374451 49.6601 0.664451L49.4701 0.854451C49.4701 0.854451 49.4101 1.06445 49.3901 1.17445C49.3801 1.25445 49.3601 1.33445 49.3501 1.40445L45.7901 16.6645C45.4501 18.1145 45.1001 19.5645 44.7501 21.0545L44.0701 23.8945L39.0301 16.7045C38.1101 15.3945 37.1901 14.0745 36.2601 12.7645C36.0301 12.4445 35.6401 12.2645 35.2201 12.2845C34.7701 12.3045 34.3801 12.5345 34.1701 12.8945L34.0301 13.1445C33.7901 13.5645 33.5401 14.0045 33.2301 14.4045C27.3201 22.2345 23.3701 29.1044 20.7901 36.0044C20.7401 36.1344 20.6601 36.2344 20.5801 36.3244L20.1201 36.9445L19.7601 36.1544C19.6901 36.0145 19.6401 35.8844 19.5901 35.7645C16.1801 26.7244 10.8501 19.1245 6.09006 12.8845C5.47006 12.0745 5.03006 12.1545 4.65006 12.3745C4.27006 12.5945 3.87006 12.9645 4.17006 13.9745C4.21006 14.1045 4.26006 14.2245 4.31006 14.3445L4.40006 14.5845C7.08006 21.8045 10.0201 30.2444 11.0201 39.1245C11.1701 40.4445 11.2601 41.7845 11.3401 43.0844C11.3801 43.6945 11.4201 44.2944 11.4701 44.9044L11.5001 45.3545L11.0501 45.3045C10.6401 45.2545 10.4801 45.1144 10.3601 44.9844L8.22006 42.6544C6.48006 40.7544 4.74006 38.8445 2.97006 36.9645C2.61006 36.5745 2.18006 36.3944 1.83006 36.4844C1.53006 36.5544 1.30006 36.8244 1.18006 37.2244C1.08006 37.5844 1.18006 38.1844 1.42006 38.6844C4.40006 44.7944 6.09006 50.1444 6.73006 55.5244C6.86006 56.6045 6.93006 57.6645 7.00006 58.7845C7.03006 59.2944 7.06006 59.8044 7.10006 60.3244L7.13006 60.7244H5.30006C4.87006 60.7244 4.45006 60.7244 4.03006 60.7244C3.46006 60.7244 2.91006 60.7244 2.35006 60.7244C1.34006 60.7244 0.990063 61.0744 0.990063 62.0644V63.9744C0.980063 68.3445 0.970063 72.7044 0.990063 77.0744C1.00006 79.2744 2.71006 81.0044 4.87006 81.0344C8.93006 81.0744 13.0601 81.0645 17.0601 81.0545H19.2901C19.7301 81.0545 20.0801 80.9245 20.3001 80.6945C20.4801 80.5044 20.5801 80.2444 20.5701 79.9344C20.5401 79.0444 19.7601 78.8944 19.3001 78.8944C18.4101 78.8844 17.5201 78.8944 16.6301 78.8944H15.5101H12.6901C10.2501 78.8944 7.81006 78.8944 5.37006 78.8944H5.35006C4.02006 78.8944 3.24006 78.3044 3.21006 77.2844C3.14006 75.4044 3.16006 73.5744 3.17006 71.6245C3.17006 70.8644 3.17006 70.1044 3.17006 69.3344V68.9545H68.3101C68.5701 68.9545 68.8101 68.9644 69.0301 68.9244C69.6901 68.7944 70.0001 68.4144 69.9701 67.8144C69.9301 67.1944 69.5901 66.8445 68.9401 66.7944C68.6901 66.7745 68.4301 66.7745 68.1801 66.7745H67.8901H3.20006V62.9544H97.7501V66.7745H75.8301C75.6001 66.7745 75.3701 66.7645 75.1401 66.7944C74.5601 66.8745 74.2701 67.1745 74.2101 67.7345C74.1501 68.3344 74.4101 68.7045 75.0001 68.8745C75.2401 68.9445 75.5101 68.9344 75.8101 68.9344H75.9601C81.5901 68.9344 87.2201 68.9344 92.8501 68.9344H97.8201V75.9445C97.8201 78.4044 97.3601 78.8644 94.9501 78.8644H26.5701C26.3301 78.8644 26.0901 78.8545 25.8501 78.8745C25.2001 78.9545 24.8601 79.3044 24.8401 79.9244C24.8201 80.5344 25.1501 80.8944 25.8101 81.0145V80.9845ZM9.26006 60.6144V60.2444C9.19006 55.0844 8.36006 50.0344 6.78006 45.2044L6.19006 43.3944L7.42006 44.8444C11.1601 49.2444 13.8501 54.2444 15.6501 60.1245L15.8001 60.6045H9.26006V60.6144ZM16.1201 54.6744L15.1701 52.8344C14.7001 51.9344 14.2101 50.9744 13.7301 50.0044C13.6001 49.7444 13.5501 49.4144 13.5701 48.9744C13.9101 40.5644 12.7601 32.1245 10.1601 23.8845C10.1001 23.6845 10.0601 23.4445 10.2701 23.1245L10.6001 22.6145L10.9101 23.1345C11.1501 23.5445 11.4001 23.9545 11.6501 24.3545C12.1801 25.2344 12.7101 26.1045 13.2101 27.0045C15.5601 31.2445 17.4501 35.6445 18.8401 40.0844C18.9301 40.3945 19.0801 40.9944 18.9501 41.5744C18.2801 44.7844 17.5801 47.9944 16.8901 51.1544L16.1301 54.6544L16.1201 54.6744ZM18.3301 60.6045V60.2244C18.6901 46.9344 22.5101 34.5044 29.6801 23.2745L31.2001 20.8945L30.3501 23.5945C26.6601 35.3245 25.9201 47.2944 28.0901 60.1844L28.1601 60.6245H18.3201L18.3301 60.6045ZM37.0501 60.6144H30.4601L30.3801 60.3545C27.5501 51.6945 30.0301 28.5945 34.9501 17.7545L35.3201 16.9445L35.6401 17.7745C39.4501 27.6045 41.3001 36.3044 41.4601 45.1444L41.4801 46.2244L40.7901 45.3844C40.5601 45.1045 40.3501 44.8344 40.1601 44.5844C39.7701 44.0944 39.4401 43.6744 39.0701 43.2845C37.1001 41.1744 35.1101 39.0844 33.1101 37.0044C32.4501 36.3244 32.0001 36.0444 31.3701 36.4344C30.6401 36.8844 31.1301 37.9944 31.3001 38.3244C33.6901 43.0444 35.2801 47.4244 36.1701 51.7244C36.8401 54.9344 37.1201 57.6445 37.0501 60.2645V60.6344V60.6144ZM39.2801 60.6144V60.2444C39.2301 55.0044 38.3801 50.0545 36.6901 45.1045L36.2101 43.6945L37.3001 44.7044C40.2301 47.4144 44.7301 55.7944 45.6001 60.1644L45.6901 60.6144H39.2801ZM46.1401 54.6444L45.2201 52.8644C44.7401 51.9344 44.2101 50.9144 43.6901 49.8844C43.5601 49.6245 43.5701 49.3245 43.5901 49.0844C43.9401 40.6645 42.8001 32.2244 40.2001 23.9345C40.1301 23.7145 40.0901 23.4345 40.3301 23.0745L40.6701 22.5645L40.9701 23.0945C41.3201 23.7145 41.6801 24.3244 42.0401 24.9345C42.8401 26.2845 43.6701 27.6845 44.3201 29.1345C45.5401 31.8445 46.6701 34.6544 47.7501 37.3745C48.1301 38.3144 48.5001 39.2544 48.8801 40.1844C48.9601 40.3744 49.1301 40.8745 49.0301 41.3344C48.3101 44.6844 47.5801 48.0345 46.8601 51.3144L46.1301 54.6245L46.1401 54.6444ZM52.8301 59.5644C52.6101 60.1445 52.3101 60.7044 51.4301 60.7044C51.3701 60.7044 51.3001 60.7044 51.2301 60.7044C50.6901 60.6544 50.1401 60.6644 49.6001 60.6844C49.3601 60.6844 49.1201 60.6844 48.8801 60.6844H48.5601L48.5101 60.3644C47.2701 52.0145 54.2301 29.0944 59.7901 23.1945L60.8001 22.1245L60.4201 23.5445C60.2401 24.2245 60.0601 24.9045 59.8701 25.5845C59.4701 27.0445 59.0601 28.5445 58.7201 30.0345C57.3901 35.8144 56.7801 41.9944 56.9201 48.4044C56.9401 49.2345 56.6401 50.1045 56.3501 50.8344C55.8301 52.1645 55.2801 53.4744 54.7401 54.7944C54.0901 56.3745 53.4401 57.9645 52.8201 59.5644H52.8301ZM61.2901 60.5944H54.7601L54.9001 60.1144C56.6001 54.4544 59.3401 49.3545 63.0501 44.9744L64.2601 43.5444L63.6901 45.3344C62.1501 50.2044 61.3601 55.0744 61.2901 60.2344V60.6045V60.5944ZM70.7401 60.3144L70.6901 60.6344H63.3601L63.4001 60.2244C63.4501 59.6245 63.5001 59.0244 63.5501 58.4344C63.6501 57.1644 63.7501 55.8545 63.9301 54.5844C64.6201 49.6844 66.2401 44.7044 69.0101 38.9044L69.1301 38.6644C69.2601 38.4044 69.3901 38.1544 69.4701 37.8944C69.7401 37.0444 69.3901 36.6945 69.1001 36.4944C68.8401 36.3144 68.4101 36.1445 67.7901 36.7145C66.8701 37.5445 66.0501 38.3045 65.2901 39.1245C63.9901 40.5245 62.7101 41.9444 61.4001 43.4144L59.1001 45.9645L59.1201 44.9645C59.2801 36.2145 61.2201 27.3545 65.2001 17.1045L65.5501 16.2045L65.9001 17.0945C68.7401 24.3345 70.5601 31.3144 71.4501 38.4445C72.2801 45.0745 72.0601 52.2244 70.7601 60.3144H70.7401ZM76.6601 59.9844L76.6001 60.6245H72.9501L73.0101 60.2044C74.8801 46.3745 74.0701 34.3545 70.5401 23.4445L70.4301 23.1045L71.2801 22.7745L71.4401 23.0545C71.7901 23.6645 72.1501 24.2645 72.5101 24.8745C73.3001 26.2045 74.1201 27.5745 74.7601 29.0045C76.0901 31.9545 77.3101 35.0145 78.4901 37.9645L79.3601 40.1444C79.5501 40.6144 79.5901 41.2244 79.4501 41.6945C77.8601 47.3745 76.9401 53.3245 76.7101 59.3545C76.7101 59.5545 76.6801 59.7544 76.6601 59.9744V59.9844ZM83.0001 60.3644L82.9001 60.5644L82.6301 60.6344H78.8501V60.2444C79.2501 46.7744 83.1101 34.2945 90.3301 23.1545L91.7301 20.9945L90.7701 24.2545C90.5801 24.9045 90.3801 25.5645 90.2001 26.2245C89.9301 27.1845 89.6801 28.1545 89.4401 29.1345C87.8701 35.6345 87.2001 42.2944 87.4601 48.9144C87.4701 49.2844 87.4601 49.7644 87.2501 50.1444C85.5401 53.2044 84.1901 56.4645 83.1101 60.1045C83.0801 60.2145 83.0301 60.2944 82.9901 60.3644H83.0001ZM91.8201 60.5944H85.2701L85.4101 60.1144C87.1001 54.4544 89.8601 49.3045 93.6301 44.8144L94.8601 43.3545L94.2801 45.1744C92.6301 50.3144 91.8301 55.2444 91.8201 60.2244V60.6045V60.5944Z" fill="#756F6F"/>
</g>
<defs>
<clipPath id="clip0_239_468">
<rect width="99.0915" height="81.0634" fill="white" transform="translate(0.978516)"/>
</clipPath>
</defs>
</svg>
