<svg width="100" height="95" viewBox="0 0 100 95" fill="none" xmlns="http://www.w3.org/2000/svg">
<g clip-path="url(#clip0_239_453)">
<path d="M0.12 92.4197C0.53 94.0097 1.74 94.8197 3.73 94.8197H22.49C27.53 94.8197 32.61 94.8197 37.71 94.8197C56.68 94.8197 75.99 94.8197 95.05 94.8497H95.06C97.3 94.8497 98.58 94.1397 99.32 92.4797V74.6697C98.89 73.9397 98.39 73.6897 97.74 73.8997C97.03 74.1297 96.89 74.6997 96.89 75.5397C96.89 77.9897 96.89 80.4297 96.89 82.8797C96.89 85.5897 96.89 88.3097 96.9 91.0197C96.9 91.4197 96.88 91.8398 96.6 92.1097C96.4 92.3097 96.1 92.3997 95.66 92.3997H95.65C89.82 92.3797 83.99 92.3797 78.16 92.3797H72.18C72.07 92.3797 71.95 92.3697 71.82 92.3497L71.4 92.3097V65.1897H96.88V66.3897C96.88 67.1197 96.88 67.8497 96.88 68.5697C96.86 69.4597 96.98 69.9897 97.67 70.2697C98.36 70.5497 98.78 70.1997 99.31 69.6097V44.6397C98.8 43.9097 98.07 43.8897 97.23 43.9197C96.82 43.9197 96.39 43.9197 95.97 43.8297L95.77 43.7897V43.5897C95.77 42.8997 95.77 42.2197 95.78 41.5397C95.8 39.9397 95.81 38.2897 95.73 36.6697C95.67 35.4297 95.55 34.1597 94.96 33.3797C93.57 31.5297 92.98 29.4997 93.11 26.9997C93.14 26.4597 92.98 25.9897 92.65 25.6297C92.25 25.1997 91.63 24.9497 90.89 24.9297C90.47 24.9197 90.05 24.9297 89.63 24.9297C88.1 24.9497 87.26 25.7497 87.2 27.2497C87.18 27.6897 87.19 28.1297 87.19 28.5697C87.19 29.0597 87.19 29.5697 87.17 30.0697C87.17 30.2497 87.1 30.8797 86.74 31.2797C85.17 32.9997 84.46 35.1197 84.58 37.7397C84.64 39.0897 84.63 40.4597 84.61 41.7897C84.61 42.3897 84.6 42.9997 84.6 43.5997V43.8497H82.42V42.5697C82.42 41.8397 82.42 41.1297 82.42 40.4197C82.43 39.1297 82.31 37.5097 81.27 36.3697C80.08 35.0597 79.63 33.5397 79.82 31.4497C79.83 31.2897 79.82 31.1297 79.82 30.9697V30.8897C79.77 29.4897 78.94 28.6597 77.54 28.6297C77.09 28.6297 76.64 28.6297 76.19 28.6297C74.8 28.6597 73.93 29.4997 73.88 30.8797C73.85 31.7797 73.83 32.5297 73.88 33.2897C73.93 34.0997 73.69 34.7697 73.13 35.4097C71.83 36.8597 71.22 38.6097 71.3 40.5997C71.33 41.2897 71.32 41.9997 71.31 42.6797C71.31 42.9897 71.31 43.2997 71.31 43.6197V43.8697H65.76L65.69 43.3197C65.66 43.1097 65.64 42.9197 65.61 42.7297C65.4 41.3197 64.35 40.2997 62.99 40.1897C62.19 40.1297 61.3 40.1197 60.2 40.1897C59.52 40.2197 59.04 40.7297 59.04 41.3997C59.04 42.0497 59.54 42.5397 60.23 42.5797C60.47 42.5997 60.72 42.5797 60.96 42.5797C61.3 42.5797 61.65 42.5597 62 42.6097C62.28 42.6497 62.53 42.7897 62.77 42.9197C62.87 42.9697 62.96 43.0297 63.06 43.0697L63.57 43.3097L63.05 43.5297C62.96 43.5697 62.87 43.6197 62.77 43.6697C62.53 43.7997 62.29 43.9297 62.02 43.9297C59 43.9497 55.93 43.9497 52.96 43.9497H51.98C51.79 43.9497 51.59 43.9297 51.38 43.8997C51.28 43.8897 51.18 43.8797 51.07 43.8697L50.84 43.8497V43.6197C50.84 43.3797 50.84 43.1597 50.84 42.9397C50.84 42.4697 50.84 42.0297 50.84 41.5997C50.81 40.7297 50.37 40.2097 49.66 40.1897C48.95 40.1797 48.46 40.7197 48.43 41.6297C48.41 42.0797 48.42 42.5297 48.43 43.0097V43.9597H46.24C43.04 43.9597 39.94 43.9597 36.84 43.9397C36.62 43.9397 36.45 43.7697 36.31 43.6197C36.26 43.5697 36.22 43.5197 36.17 43.4897L35.93 43.2997L36.16 43.0997C36.16 43.0997 36.25 43.0097 36.3 42.9597C36.44 42.8097 36.6 42.6397 36.82 42.6297C37.21 42.5997 37.6 42.5997 37.98 42.6097C38.34 42.6097 38.7 42.6097 39.06 42.5897C39.76 42.5497 40.16 42.1597 40.21 41.4597C40.24 41.0997 40.14 40.7797 39.95 40.5597C39.79 40.3797 39.58 40.2797 39.32 40.2597C38.2 40.1897 36.88 40.1497 35.62 40.3897C34.2 40.6697 33.79 41.9497 33.66 42.6797C33.62 42.8897 33.6 43.0997 33.57 43.3297L33.5 43.8697H10.62L10.57 43.4597C10.55 43.3397 10.54 43.2397 10.54 43.1497V40.7397C10.53 38.5197 10.52 36.2997 10.54 34.0897C10.56 32.1397 11.75 30.8097 13.51 30.7897H13.55C14.34 30.7897 15.04 31.0697 15.58 31.5897C16.2 32.1997 16.55 33.0897 16.56 34.1097C16.56 34.8397 16.56 35.5697 16.56 36.3097C16.56 37.0397 16.56 37.7697 16.56 38.4997C16.56 38.9997 16.7 39.3897 16.95 39.6297C17.16 39.8297 17.45 39.9197 17.78 39.9197C18.51 39.9097 18.96 39.3897 18.97 38.5397C18.99 36.9497 19.02 35.2997 18.97 33.6797C18.87 30.7197 16.5 28.3797 13.57 28.3497H13.52C10.63 28.3497 8.32 30.5597 8.14 33.5097C8.09 34.3897 8.09 35.2897 8.1 36.1597C8.1 36.5097 8.1 36.8497 8.1 37.1997C8.1 38.9797 7.99 39.0897 6.26 39.1597C5.64 39.1797 4.89 39.4097 4.87 40.3297C4.86 41.0597 5.36 41.5297 6.2 41.5697C6.56 41.5897 6.93 41.5797 7.28 41.5697C7.44 41.5697 7.61 41.5697 7.77 41.5697H8.02V43.9497H5.92C4.49 43.9497 3.08 43.9497 1.67 43.9497C0.36 43.9497 0 44.3197 0 45.6397C0 53.3397 0 61.0397 0 68.7397C0 69.3497 0.15 69.8197 0.43 70.0997C0.63 70.2997 0.89 70.3997 1.21 70.3997C2.25 70.3997 2.42 69.3597 2.42 68.7297C2.42 67.9797 2.42 67.2197 2.42 66.4697V65.2097H27.9V92.3397L27.47 92.3797C27.34 92.3897 27.23 92.3997 27.12 92.3997H21.11C15.28 92.3997 9.46 92.3997 3.63 92.4197C3.2 92.4197 2.9 92.3297 2.71 92.1297C2.45 91.8697 2.42 91.4697 2.42 91.1097C2.44 86.1597 2.43 81.2097 2.42 76.2597V75.4197C2.42 74.3897 2.02 73.8697 1.24 73.8497C0.89 73.8297 0.61 73.9397 0.41 74.1397C0.14 74.3997 0 74.8597 0 75.4597C0 80.7897 0 86.1197 0 91.4397C0 91.8397 0.04 92.1597 0.11 92.4397L0.12 92.4197ZM68.85 92.3397H30.47V65.1997H68.85V92.3397ZM68.68 62.4697C68.5 62.6497 68.24 62.7297 67.85 62.7297C58.46 62.7097 49.07 62.7097 39.68 62.7097H31.33C31.22 62.7097 31.11 62.6997 30.97 62.6897L30.52 62.6497V51.8397H68.85L68.9 52.3597C68.92 52.5697 68.94 52.7697 68.94 52.9697C68.94 53.9597 68.94 54.9397 68.94 55.9297C68.94 57.7997 68.94 59.6697 68.95 61.5397C68.95 61.9397 68.91 62.2497 68.7 62.4597L68.68 62.4697ZM96.84 62.6497H71.42V51.8397H96.84V62.6497ZM89.11 32.3097C89.68 31.7597 89.67 31.0497 89.66 30.2997V29.7897C89.65 29.2597 89.64 28.7097 89.67 28.1697C89.68 27.9597 89.81 27.7997 89.93 27.6497C89.97 27.5997 90.01 27.5497 90.04 27.4997L90.27 27.1297L90.47 27.5097C90.47 27.5097 90.53 27.6097 90.56 27.6497C90.65 27.7897 90.76 27.9497 90.76 28.1397C90.77 28.4697 90.76 28.7997 90.76 29.1297C90.75 29.6597 90.74 30.1497 90.8 30.6497C90.9 31.4497 91.08 31.9797 91.35 32.2597C92.89 33.8797 93.55 35.8297 93.39 38.2297C93.31 39.4397 93.33 40.6397 93.35 41.9097C93.35 42.4697 93.37 43.0397 93.37 43.6097V43.8597H87.06V43.6097C87.06 43.0497 87.06 42.4897 87.08 41.9297C87.1 40.6697 87.12 39.4697 87.04 38.2597C86.87 35.6997 87.52 33.8097 89.1 32.2997L89.11 32.3097ZM73.83 39.5497C73.88 38.9197 74.1 38.0797 74.58 37.6097C76.06 36.1897 76.6 34.4497 76.35 31.9697C76.33 31.7497 76.44 31.5497 76.54 31.3697C76.58 31.3097 76.61 31.2397 76.64 31.1797L76.72 30.9797L77.44 31.1497V31.3497C77.44 31.6497 77.44 31.9597 77.44 32.2597C77.43 32.9697 77.42 33.6997 77.47 34.4197C77.53 35.2797 77.72 35.6297 77.87 35.7597C80.32 38.0597 80.23 41.0197 79.95 43.6197L79.93 43.8397H73.8V43.5897C73.8 43.1897 73.8 42.7897 73.79 42.3897C73.78 41.4097 73.76 40.4797 73.83 39.5397V39.5497ZM27.93 62.5997H2.49V51.8397H27.91V62.5997H27.93ZM2.48 49.2897V46.4297H96.84V49.2897H2.47H2.48Z" fill="#756F6F"/>
<path d="M70.14 12.8C67.77 11.57 65.37 10.29 63.06 9.05C61.5 8.21 59.93 7.38 58.36 6.55C57.83 6.27 57.36 5.89 57.41 4.97C57.46 4.12 57.45 3.25 57.44 2.41V1.58C57.43 0.870002 57.22 0.01 56.25 0C55.9 0 55.65 0.0900085 55.44 0.290009C55.16 0.560009 55.01 1.03 55.01 1.63C55.01 2.21 55.01 2.78 55.01 3.36C55.01 4.18 55.01 5 55.01 5.83C54.99 6.98 55.48 7.77001 56.55 8.32001C58.23 9.18001 59.92 10.09 61.55 10.97L63.25 11.89C63.43 11.98 63.6 12.09 63.82 12.23L65.01 12.96H34.35L35.54 12.23C35.77 12.09 35.94 11.98 36.11 11.89L37.27 11.27C39.14 10.27 41.02 9.26 42.9 8.27C43.85 7.77 44.32 7.06001 44.33 6.10001C44.35 4.22001 44.35 2.78001 44.33 1.43001C44.33 0.950008 44.18 0.569998 43.92 0.309998C43.71 0.109998 43.44 0.0100098 43.12 0.0100098C43.11 0.0100098 43.1 0.0100098 43.08 0.0100098C42.37 0.0300098 41.93 0.550004 41.92 1.41V2.11C41.89 3.03 41.87 3.98001 41.94 4.90001C42.01 5.83001 41.57 6.25999 40.89 6.62C38.89 7.67 36.89 8.74 34.9 9.81C32.95 10.85 30.99 11.9 29.03 12.93C28.28 13.32 27.97 13.83 28 14.64C28.02 15.32 28.01 16.01 28.01 16.69C28.01 17.27 28.01 17.86 28.01 18.44C28.04 20.13 28.87 20.95 30.54 20.95C43.31 20.95 56.07 20.95 68.84 20.95C70.49 20.95 71.31 20.16 71.36 18.52C71.37 17.99 71.36 17.47 71.36 16.94C71.36 16.27 71.35 15.59 71.38 14.91C71.43 13.9 71.08 13.3 70.16 12.82L70.14 12.8ZM68.87 18.46H30.49V15.5H68.87V18.46Z" fill="#756F6F"/>
<path d="M23.2101 80.46C23.2301 81.29 23.6801 81.79 24.4101 81.79H24.4201C25.1601 81.79 25.6101 81.28 25.6201 80.44C25.6401 78.43 25.6401 76.47 25.6201 74.62C25.6201 73.81 25.1401 73.29 24.4201 73.29H24.4101C23.6901 73.29 23.2301 73.82 23.2101 74.65C23.2001 75.3 23.2001 75.95 23.2101 76.6V77.46V78.4C23.2101 79.09 23.2101 79.78 23.2101 80.46Z" fill="#756F6F"/>
<path d="M76.1101 74.6798C76.1101 74.1998 75.9601 73.8198 75.7001 73.5698C75.5001 73.3798 75.2201 73.2798 74.9101 73.2798C74.9001 73.2798 74.8801 73.2798 74.8701 73.2798C74.1501 73.2998 73.7101 73.8198 73.7001 74.6698C73.6801 76.5598 73.6801 78.4898 73.7001 80.3998C73.7001 80.8698 73.8401 81.2498 74.0901 81.4898C74.3001 81.6898 74.5901 81.8198 74.9401 81.7898C75.6701 81.7698 76.0901 81.2698 76.1101 80.4098C76.1201 79.7398 76.1101 79.0698 76.1101 78.3998V77.4998V76.6398C76.1101 75.9898 76.1101 75.3398 76.1101 74.6898V74.6798Z" fill="#756F6F"/>
<path d="M37.1201 57.09C37.1301 58.05 37.5301 58.95 38.2301 59.63C38.9101 60.29 39.7801 60.65 40.6901 60.65C40.7101 60.65 40.7301 60.65 40.7501 60.65C42.7101 60.62 44.3401 58.95 44.3101 57.01C44.3001 56.06 43.9001 55.17 43.2101 54.49C42.5301 53.82 41.6501 53.46 40.7301 53.46H40.6801C39.7301 53.47 38.8301 53.86 38.1601 54.56C37.4801 55.25 37.1201 56.16 37.1301 57.1L37.1201 57.09ZM40.0201 56.21C40.1001 56.1 40.1701 56 40.2401 55.89L40.3101 55.77L40.9801 55.74L41.0601 55.85C41.1301 55.95 41.2301 56.05 41.3201 56.15C41.5801 56.43 41.8501 56.72 41.8101 57.05C41.7601 57.52 41.1801 58.05 40.7501 58.14C40.7201 58.14 40.7001 58.14 40.6701 58.14C40.5301 58.14 40.3801 58.08 40.2101 57.95C39.9501 57.76 39.6501 57.42 39.6301 57.13C39.6001 56.8 39.8201 56.49 40.0401 56.2L40.0201 56.21Z" fill="#756F6F"/>
<path d="M58.6502 53.46H58.6002C57.6802 53.46 56.7902 53.83 56.1102 54.5C55.4102 55.18 55.0202 56.08 55.0102 57.02C54.9802 58.96 56.6102 60.63 58.5702 60.66H58.6202C59.5402 60.66 60.4202 60.3 61.1002 59.63C61.7902 58.95 62.1802 58.05 62.2002 57.1C62.2102 56.16 61.8502 55.26 61.1802 54.57C60.5002 53.87 59.6002 53.48 58.6502 53.47V53.46ZM59.2202 57.96C59.1302 58.06 59.0502 58.16 58.9702 58.25L58.8902 58.36L58.2202 58.33L58.1502 58.22C58.0902 58.11 58.0002 58.01 57.9202 57.9C57.6902 57.6 57.4502 57.28 57.5102 56.96C57.6002 56.49 58.2302 56.03 58.6702 55.97C58.8202 55.95 59.0002 56.03 59.1902 56.2C59.4402 56.42 59.7002 56.79 59.7002 57.09C59.7002 57.43 59.4502 57.71 59.2102 57.98L59.2202 57.96Z" fill="#756F6F"/>
<path d="M63.1598 68.0801C54.1698 68.0801 45.1698 68.0801 36.1798 68.0801C34.2398 68.0801 33.4498 68.8701 33.4498 70.7901C33.4398 76.0801 33.4498 81.3701 33.4498 86.6701C33.4498 88.6901 34.1798 89.4101 36.2298 89.4101C39.3098 89.4101 42.3898 89.4101 45.4698 89.4101H49.5798H53.6698C56.8498 89.4101 60.0298 89.4101 63.2098 89.4101C65.1398 89.4101 65.8898 88.67 65.8898 86.7701C65.8998 81.4501 65.8998 76.12 65.8898 70.8C65.8898 68.87 65.0998 68.0801 63.1598 68.0801ZM63.4598 82.0601V86.9301H35.9298V70.5001H43.0198C49.2698 70.5001 55.7398 70.5001 62.0998 70.4801H62.1198C62.6498 70.4801 62.9698 70.5701 63.1798 70.7901C63.4498 71.0601 63.4798 71.4701 63.4798 71.8801C63.4498 75.2701 63.4498 78.7201 63.4598 82.0601Z" fill="#756F6F"/>
<path d="M18.7601 54.6198C16.4601 54.5798 14.0701 54.5798 11.6701 54.6198C11.3101 54.6198 11.0001 54.7499 10.7801 54.9799C10.5701 55.1999 10.4501 55.5199 10.4601 55.8599C10.4801 56.5799 10.9501 56.9999 11.7601 57.0099C12.5701 57.0299 13.3901 57.0199 14.2001 57.0099H15.2501H16.2701C17.0601 57.0099 17.8501 57.0099 18.6501 57.0099C19.4201 56.9899 19.9401 56.5399 19.9601 55.8599C19.9701 55.5199 19.8601 55.2099 19.6401 54.9799C19.4201 54.7499 19.1101 54.6199 18.7501 54.6099L18.7601 54.6198Z" fill="#756F6F"/>
<path d="M79.36 55.8601C79.38 56.5501 79.89 57.0001 80.66 57.0201C81.45 57.0401 82.24 57.0301 83.03 57.0201H84.06H85.11C85.93 57.0201 86.74 57.0201 87.55 57.0201C88.35 57.0001 88.83 56.5901 88.86 55.8801C88.87 55.5301 88.76 55.2101 88.55 54.9901C88.33 54.7601 88.03 54.6401 87.67 54.6301C86.5 54.6101 85.32 54.6001 84.12 54.6001C82.92 54.6001 81.76 54.6001 80.58 54.6301C80.21 54.6301 79.9 54.7601 79.68 55.0001C79.46 55.2201 79.35 55.5301 79.36 55.8701V55.8601Z" fill="#756F6F"/>
</g>
<defs>
<clipPath id="clip0_239_453">
<rect width="99.32" height="94.8497" fill="white"/>
</clipPath>
</defs>
</svg>
