<svg width="98" height="62" viewBox="0 0 98 62" fill="none" xmlns="http://www.w3.org/2000/svg">
<g clip-path="url(#clip0_239_448)">
<path d="M54.3309 45.4625C53.6609 45.3925 52.8309 45.2425 52.0009 45.2425C49.1409 45.2525 46.2909 45.3225 43.4309 45.3625C42.8009 45.3625 42.6309 45.6625 42.6409 46.2825C42.7709 51.0225 42.8709 55.7625 43.7009 60.4525C43.8809 61.4825 43.5809 61.8425 42.5309 61.8425C40.0309 61.8625 37.5309 61.8625 35.0209 61.8425C34.0409 61.8425 33.7209 61.4925 33.8809 60.6125C34.9909 54.3725 34.9809 48.0625 35.0309 41.7725C35.0609 38.0725 34.8409 34.3725 34.7609 30.6725C34.7509 30.1225 34.5809 29.8125 34.0709 29.5425C33.2709 29.1125 32.5209 28.5925 31.8009 28.0325C30.5109 27.0425 29.2709 27.0625 27.9809 28.0425C27.3409 28.5325 26.6509 28.9725 25.9709 29.4125C24.4109 30.4325 22.8609 30.4025 21.3209 29.3725C20.6209 28.9025 19.9309 28.4225 19.2209 27.9525C18.9209 27.7525 18.6109 27.5625 18.2909 27.4325C16.6209 26.7325 16.6009 26.7425 16.6209 24.9325C16.6409 21.8125 16.7009 18.7025 16.7009 15.5825C16.7009 14.6725 17.0509 14.2925 17.9709 14.3125C20.0809 14.3525 22.1909 14.3225 24.4809 14.3225C24.4809 13.4225 24.5009 12.5625 24.4609 11.7125C24.4609 11.5525 24.2409 11.3125 24.0709 11.2525C21.5609 10.2925 20.5709 8.2125 20.3409 5.7825C20.1909 4.2525 20.4309 2.6825 20.5309 1.1325C20.5809 0.362502 21.0109 0.0125012 21.8209 0.0225012C24.1909 0.0525012 26.5609 0.0425012 28.9409 0.0225012C29.7109 0.0225012 30.1209 0.292488 30.2709 1.10249C30.6809 3.34249 30.8009 5.55249 30.0309 7.73249C29.4509 9.36249 28.4509 10.6125 26.7609 11.2425C26.5009 11.3425 26.2209 11.7425 26.1809 12.0325C26.1009 12.7325 26.1509 13.4525 26.1509 14.2425H39.0209C39.0209 13.8125 39.0209 13.4025 39.0209 12.9925C39.0209 9.5125 39.0209 6.04249 39.0209 2.56249C39.0209 0.782495 39.7309 0.0924988 41.5109 0.0824988C42.0609 0.0824988 42.6109 0.0824988 43.1709 0.0824988C44.8109 0.0924988 45.5609 0.812494 45.5709 2.45249C45.5909 6.02249 45.5709 9.6025 45.5709 13.1725C45.5709 13.5225 45.5709 13.8625 45.5709 14.2625H51.6309C51.6309 13.8825 51.6309 13.5425 51.6309 13.1925C51.6309 9.7525 51.6309 6.3025 51.6309 2.8625C51.6309 0.632498 52.1809 0.0824988 54.3709 0.0824988C54.8609 0.0824988 55.3409 0.0824988 55.8309 0.0824988C57.3409 0.102499 58.0909 0.852502 58.0909 2.3825C58.1009 6.0825 58.0909 9.7925 58.0909 13.4925C58.0909 13.7125 58.1109 13.9425 58.1209 14.2425H70.7609C70.7609 13.4025 70.7909 12.5725 70.7409 11.7425C70.7309 11.5625 70.5009 11.3025 70.3109 11.2225C68.1809 10.3825 67.2109 8.65249 66.7509 6.56249C66.3309 4.65249 66.4809 2.7425 66.9209 0.862498C67.0009 0.522498 67.5609 0.0625 67.9109 0.0525C70.4409 -0.0175 72.9809 -0.0175 75.5109 0.0525C75.8609 0.0525 76.4209 0.532492 76.4909 0.872492C77.0009 3.25249 77.1409 5.6425 76.2309 7.9725C75.6409 9.4925 74.6509 10.6325 73.0809 11.2225C72.8109 11.3225 72.5309 11.7225 72.4909 12.0125C72.4009 12.7125 72.4609 13.4325 72.4609 14.3125C72.8209 14.3125 73.1309 14.3125 73.4409 14.3125C75.3609 14.3125 77.2709 14.3325 79.1909 14.3125C79.9909 14.3025 80.4209 14.5925 80.4109 15.4325C80.3809 19.0325 80.3709 22.6425 80.3009 26.2425C80.3009 26.5625 79.9509 26.9925 79.6509 27.1625C78.7109 27.7025 77.7009 28.1325 76.7409 28.6425C76.3709 28.8325 76.0509 29.1225 75.7009 29.3625C74.1609 30.3925 72.6109 30.4125 71.0509 29.3925C70.2109 28.8425 69.3709 28.2825 68.5409 27.7125C67.6009 27.0725 66.6809 27.0825 65.7309 27.7125C64.7309 28.3825 63.7109 29.0025 62.7209 29.6925C62.5309 29.8225 62.3909 30.1525 62.3809 30.4025C61.9409 39.5625 61.9009 48.7125 62.8009 57.8525C62.8909 58.7525 63.0609 59.6525 63.2409 60.5425C63.4209 61.4025 63.0409 61.8025 62.2409 61.8125C59.6409 61.8325 57.0409 61.8225 54.4409 61.8125C53.6009 61.8125 53.3009 61.3825 53.3909 60.5625C53.7009 57.8525 54.0809 55.1525 54.2509 52.4325C54.3909 50.1725 54.2809 47.8925 54.2809 45.4225L54.3309 45.4625ZM78.7009 16.0925H18.4409V20.8325H78.7009V16.0925ZM78.7509 22.7625H18.3809C18.3809 23.6225 18.3609 24.4325 18.3909 25.2325C18.3909 25.4125 18.5509 25.6525 18.7109 25.7525C19.8909 26.4925 21.1009 27.1825 22.2709 27.9425C23.2909 28.6025 24.2709 28.6125 25.2609 27.9325C26.0409 27.4025 26.8209 26.8825 27.6009 26.3525C29.2109 25.2725 30.8209 25.3125 32.4209 26.3925C33.2309 26.9425 34.0309 27.4825 34.8509 28.0125C35.7209 28.5825 36.6209 28.6025 37.5009 28.0325C38.4009 27.4525 39.2909 26.8525 40.1809 26.2625C41.7109 25.2525 43.2309 25.3425 44.7309 26.3225C45.5709 26.8725 46.4009 27.4425 47.2409 28.0025C48.1509 28.6125 49.0609 28.6125 49.9709 28.0125C50.7309 27.5125 51.4909 27.0125 52.2309 26.4925C53.9809 25.2625 55.7109 25.2625 57.4509 26.5025C58.1609 27.0125 58.9009 27.4925 59.6209 27.9825C60.5609 28.6225 61.5109 28.6025 62.4409 27.9825C63.3409 27.3925 64.2009 26.7625 65.1109 26.1925C66.4809 25.3325 67.8709 25.3425 69.2509 26.1725C70.0009 26.6325 70.7409 27.1025 71.4309 27.6425C72.7509 28.6725 73.9909 28.6625 75.3409 27.6625C76.4009 26.8725 77.5609 26.2225 78.7509 25.4625V22.7625ZM36.7109 30.2425C36.7109 35.1925 36.8009 40.1525 36.6809 45.1125C36.5609 50.0925 36.2409 55.0625 36.0109 60.0425H41.8109C40.5509 49.2225 40.6009 38.4525 41.3009 27.4925C40.4109 28.0925 39.7109 28.6125 38.9609 29.0525C38.1909 29.5125 37.3709 29.8925 36.7009 30.2425H36.7109ZM61.3809 60.1525C60.1309 50.1225 60.3309 40.1925 60.6509 30.4825C59.0109 29.5125 57.5009 28.6225 55.8909 27.6725C56.5509 38.5425 56.6009 49.3025 55.3709 60.0725C55.6009 60.1025 55.7909 60.1425 55.9809 60.1525C57.7609 60.1525 59.5409 60.1525 61.3809 60.1525ZM54.1109 27.2525C53.1209 27.9125 52.3409 28.4325 51.5609 28.9525C49.1109 30.6025 47.8809 30.5925 45.4509 28.9025C44.7209 28.3925 43.9609 27.9125 43.1809 27.4025C43.0909 27.6225 43.0309 27.7125 43.0309 27.8025C42.9009 30.7825 42.7609 33.7625 42.6809 36.7425C42.6809 36.9425 43.1509 37.3325 43.4109 37.3325C46.8709 37.3725 50.3409 37.3525 53.8009 37.3625C54.3909 37.3625 54.5809 37.1025 54.5509 36.5225C54.4709 34.6725 54.4409 32.8325 54.3509 30.9825C54.3009 29.8325 54.1909 28.6725 54.1009 27.2625L54.1109 27.2525ZM54.5409 39.1925H42.6409V43.5525H54.5409V39.1925ZM22.1909 1.73249C21.7909 3.72249 21.7309 5.6725 22.5609 7.5525C23.1109 8.8025 23.9509 9.75249 25.4909 9.70249C26.9809 9.66249 27.7509 8.6925 28.2709 7.4725C29.0609 5.6225 29.0009 3.70249 28.6109 1.73249H22.1809H22.1909ZM74.9409 1.76249H68.4809C68.1109 3.91249 68.0409 5.9725 69.0509 7.9125C69.6009 8.9725 70.4109 9.71249 71.7209 9.71249C72.9909 9.71249 73.7809 9.0025 74.3309 7.9925C75.4109 6.0025 75.3209 3.9025 74.9309 1.7725L74.9409 1.76249ZM56.3809 14.2525V3.82249C56.3809 1.78249 56.3809 1.8025 54.3309 1.7825C53.5609 1.7825 53.2409 1.9525 53.2609 2.8025C53.3109 6.3425 53.2909 9.8725 53.3009 13.4125C53.3009 13.6925 53.3509 13.9725 53.3709 14.2525H56.3809ZM43.8309 14.2525V13.1325C43.8309 10.0825 43.8509 7.0425 43.8309 3.9925C43.8009 1.4425 44.2909 1.87249 41.6309 1.79249C40.8509 1.77249 40.7309 2.0925 40.7409 2.7725C40.7709 6.3425 40.7509 9.9025 40.7609 13.4725C40.7609 13.7225 40.8009 13.9725 40.8209 14.2625H43.8409L43.8309 14.2525Z" fill="#756F6F"/>
<path d="M9.1009 33.6227C9.4709 33.6227 9.8209 33.6227 10.1709 33.6227C14.3309 33.6227 18.4909 33.6227 22.6409 33.6227C25.2809 33.6227 26.6009 34.9327 26.5609 37.5727C26.5509 38.4227 26.6509 38.9827 27.5709 39.3527C28.6509 39.7927 29.2509 40.7827 29.4209 41.9427C30.1909 47.1727 30.9409 52.4127 31.6609 57.6527C31.9409 59.7127 30.5809 61.4927 28.5709 61.7927C26.5409 62.1027 24.6909 60.7627 24.3609 58.6627C23.7609 54.7827 23.2009 50.8927 22.6409 47.0127C22.5809 46.5827 22.5409 46.2827 21.9809 46.2827C17.7609 46.3027 13.5409 46.2827 9.2109 46.2827C8.9409 48.0727 8.6709 49.8227 8.4109 51.5727C8.0709 53.8827 7.7509 56.2027 7.4109 58.5127C7.0909 60.6827 5.3109 62.0627 3.2109 61.7827C1.1209 61.4927 -0.259103 59.6627 0.0408972 57.5127C0.480897 54.3327 0.810897 51.1227 1.4509 47.9827C2.3309 43.6827 2.0409 39.4027 1.6709 35.1027C1.1309 28.7627 0.660897 22.4127 0.200897 16.0727C0.060897 14.0727 1.0709 12.5627 2.7309 12.0427C5.1109 11.3027 7.4109 12.9327 7.6109 15.5027C8.0609 21.4227 8.5309 27.3527 8.9909 33.2727C8.9909 33.3327 9.0209 33.4027 9.0809 33.6327L9.1009 33.6227ZM1.7509 57.7227C1.7309 59.1027 2.4009 59.9327 3.4709 60.0627C4.5509 60.1927 5.4309 59.5727 5.6909 58.4727C5.7709 58.1227 5.8209 57.7727 5.8709 57.4127C6.4509 53.4927 7.0309 49.5827 7.5809 45.6527C7.6909 44.8927 8.0109 44.5627 8.7709 44.5627C13.5109 44.5727 18.2609 44.5727 23.0009 44.5627C23.7309 44.5627 24.0709 44.9127 24.1709 45.5927C24.5009 47.9027 24.8309 50.2227 25.1609 52.5327C25.4309 54.4327 25.6909 56.3227 25.9709 58.2227C26.1609 59.4627 27.0909 60.2427 28.1709 60.1027C29.3209 59.9627 30.1409 58.9927 29.9809 57.8527C29.2409 52.6427 28.4809 47.4427 27.7009 42.2427C27.5509 41.2427 26.8709 40.6427 25.8509 40.5327C25.4309 40.4927 25.0109 40.4927 24.5809 40.4927C19.4109 40.4927 14.2509 40.4927 9.0809 40.4927C8.3309 40.4927 7.8509 40.3227 7.7809 39.4427C7.5509 36.1427 7.2809 32.8327 7.0209 29.5327C6.6609 24.9027 6.3109 20.2727 5.9209 15.6427C5.8009 14.2227 4.9409 13.4727 3.7309 13.5627C2.5309 13.6627 1.8209 14.5627 1.9309 15.9827C2.4209 22.5227 2.9409 29.0627 3.4209 35.6127C3.6009 38.0727 3.9309 40.5427 3.8309 42.9927C3.7309 45.4127 3.1709 47.8127 2.8209 50.2227C2.4509 52.7927 2.0809 55.3627 1.7409 57.7127L1.7509 57.7227ZM9.1509 35.2827C9.2509 36.5427 9.3409 37.6327 9.4409 38.7727H24.8209C25.2509 36.1527 24.5209 35.1827 22.0309 35.2627C18.7209 35.3627 15.4109 35.2827 12.1009 35.2827H9.1609H9.1509Z" fill="#756F6F"/>
<path d="M87.9608 46.3327H74.6208C74.3208 48.3727 74.0308 50.3827 73.7308 52.3927C73.4208 54.4827 73.1608 56.5727 72.8008 58.6527C72.4208 60.8427 70.6108 62.1127 68.5008 61.7627C66.4708 61.4227 65.2008 59.6427 65.5008 57.4627C66.2208 52.3227 66.9508 47.1827 67.7008 42.0427C67.8908 40.7327 68.6008 39.7127 69.8208 39.2027C70.4808 38.9327 70.5808 38.5627 70.5708 37.9527C70.5508 37.3427 70.5508 36.7027 70.6908 36.1127C71.0608 34.5927 72.4108 33.6227 74.1208 33.6227C78.4108 33.6027 82.7008 33.6227 86.9908 33.6227C87.3408 33.6227 87.6908 33.6227 88.1108 33.6227C88.3308 30.9427 88.5408 28.3527 88.7408 25.7727C89.0108 22.2727 89.2608 18.7727 89.5508 15.2827C89.7108 13.2927 91.4308 11.7827 93.3708 11.8527C95.4208 11.9327 97.0708 13.6027 96.9508 15.7027C96.7208 19.6627 96.3708 23.6027 96.0708 27.5527C95.7008 32.3827 95.1908 37.2027 95.0308 42.0327C94.9508 44.3027 95.5308 46.6027 95.8508 48.8827C96.2508 51.7427 96.7008 54.5927 97.1108 57.4527C97.4208 59.6627 96.0508 61.4927 93.9008 61.7827C91.8408 62.0627 90.0708 60.6327 89.7508 58.4527C89.1708 54.4327 88.5808 50.4227 87.9908 46.3227L87.9608 46.3327ZM79.8708 40.4927C77.1708 40.4927 74.4808 40.4727 71.7808 40.5027C70.1008 40.5227 69.4808 41.1427 69.2508 42.8127C68.8308 45.8027 68.3808 48.7827 67.9508 51.7727C67.6608 53.7927 67.3408 55.8127 67.1108 57.8427C66.9708 59.0427 67.6908 59.9127 68.7908 60.0827C69.8508 60.2427 70.7808 59.5727 71.0408 58.4127C71.1108 58.1327 71.1408 57.8427 71.1908 57.5527C71.7608 53.6327 72.3408 49.7227 72.8808 45.8027C73.0108 44.8627 73.4708 44.5627 74.3708 44.5627C78.9508 44.5827 83.5308 44.5927 88.1108 44.5627C89.0308 44.5627 89.4508 44.8527 89.5808 45.8027C90.1208 49.8227 90.7208 53.8327 91.3008 57.8527C91.5308 59.4527 92.4308 60.3127 93.6608 60.0927C94.9608 59.8627 95.5308 58.8527 95.2908 57.2727C94.7908 53.9327 94.3008 50.5927 93.8308 47.2527C93.5908 45.5227 93.1408 43.7627 93.2408 42.0427C93.6308 35.4927 94.2108 28.9627 94.7208 22.4227C94.8908 20.1527 95.0808 17.8927 95.2008 15.6227C95.2608 14.4927 94.4608 13.6727 93.4108 13.5727C92.3408 13.4727 91.4708 14.1327 91.2508 15.2427C91.1808 15.5927 91.1408 15.9527 91.1208 16.3027C90.5308 23.9727 89.9308 31.6427 89.3508 39.3227C89.2908 40.1827 88.9208 40.5127 88.0608 40.5027C85.3308 40.4727 82.6008 40.4927 79.8708 40.4927ZM87.9908 35.2827C87.1708 35.2827 86.5008 35.2827 85.8208 35.2827C82.0208 35.2827 78.2208 35.2827 74.4308 35.2827C73.1108 35.2827 72.3908 35.8127 72.2608 36.8927C72.1908 37.4927 72.2508 38.1027 72.2508 38.7627H87.7208C87.8108 37.6127 87.9008 36.5227 88.0008 35.2727L87.9908 35.2827Z" fill="#756F6F"/>
</g>
<defs>
<clipPath id="clip0_239_448">
<rect width="97.1546" height="61.8575" fill="white"/>
</clipPath>
</defs>
</svg>
