<svg width="100" height="67" viewBox="0 0 100 67" fill="none" xmlns="http://www.w3.org/2000/svg">
<g clip-path="url(#clip0_239_432)">
<path d="M99.25 32.51C99.25 32.51 99.22 32.44 99.21 32.41C99.16 32.27 99.1 32.13 99.07 31.97C98 26.2 94.65 22.45 89.12 20.83C88.02 20.51 86.86 20.39 85.64 20.27H85.56C85.02 20.21 84.46 20.15 83.9 20.07L83.64 20.03V15.52C83.64 13.02 83.64 10.52 83.64 8.01001C83.63 3.15001 80.48 0.01 75.62 0C58.3 0 40.99 0 23.67 0C18.78 0 15.62 3.17 15.61 8.06C15.61 10.57 15.61 13.09 15.61 15.6V20.1L15.34 20.13C14.85 20.18 14.37 20.21 13.9 20.25H13.84C12.8 20.33 11.84 20.4 10.9 20.61C4.43001 22.03 0.0500049 27.45 0.0200049 34.1C-0.00999512 39.16 -4.88199e-06 44.25 0.00999512 49.18V50.14C0.00999512 51.75 0.00999512 53.35 0.00999512 54.96C0.00999512 55.13 0.0299939 55.31 0.0399939 55.52V55.6H3.17V66.4H10.35V55.61H88.94V66.43H96.12V55.56H99.23V32.51H99.25ZM18.15 7.98C18.15 4.56 20.19 2.52 23.59 2.52C40.97 2.52 58.34 2.52 75.72 2.52C79.05 2.52 81.12 4.59 81.13 7.91C81.13 10.51 81.13 13.1 81.13 15.7V20.22H75.85V19C75.85 18.45 75.85 17.91 75.85 17.36V17.31C75.85 16.11 75.87 14.87 75.83 13.66C75.75 11.21 73.97 9.42 71.6 9.39C66.66 9.32 61.85 9.32 57.29 9.39C54.9 9.42 53.13 11.27 53.07 13.78C53.04 15.11 53.04 16.47 53.03 17.79C53.03 18.47 53.03 19.15 53.03 19.82C53.03 19.96 52.94 20.04 52.9 20.09C52.89 20.1 52.87 20.12 52.85 20.14L52.76 20.24H46.3L46.26 19.71C46.24 19.52 46.23 19.32 46.22 19.11C46.22 18.49 46.22 17.87 46.22 17.25C46.22 16.14 46.22 14.99 46.21 13.86C46.16 11.25 44.33 9.41 41.77 9.39C36.86 9.35 32.17 9.35 27.84 9.39C25.32 9.41 23.51 11.23 23.43 13.8C23.41 14.5 23.41 15.2 23.42 15.88C23.42 16.19 23.42 16.5 23.42 16.81V20.24H18.22L18.18 19.7C18.16 19.5 18.15 19.3 18.15 19.1V18.67C18.15 15.11 18.15 11.55 18.15 7.99001V7.98ZM55.58 18.39V18.1C55.58 16.63 55.57 15.24 55.59 13.8C55.61 12.63 56.34 11.9 57.49 11.9C62.11 11.87 66.8 11.87 71.43 11.9C72.58 11.9 73.3 12.64 73.32 13.81C73.35 15.24 73.34 16.64 73.34 18.11V18.4C73.34 18.9 73.34 19.41 73.34 19.92V20.22H55.59V19.92C55.59 19.41 55.59 18.9 55.59 18.4L55.58 18.39ZM25.94 15.63V15.51C25.94 14.97 25.93 14.4 25.95 13.84C26 12.63 26.73 11.9 27.9 11.89C32.39 11.87 36.92 11.86 41.74 11.89C42.88 11.89 43.64 12.59 43.67 13.65C43.71 15.12 43.7 16.57 43.69 18.09V18.31C43.69 18.85 43.69 19.4 43.69 19.95V20.25H25.95V16.18C25.95 15.99 25.95 15.8 25.95 15.61L25.94 15.63ZM2.38002 41.76C2.44002 40.66 2.46 39.56 2.48 38.49C2.53 36.09 2.58 33.61 3.01 31.24C3.85 26.55 8.33 22.94 13.42 22.82C15.28 22.78 17.17 22.79 18.84 22.8C19.57 22.8 20.3 22.8 21.03 22.8H50.18C61.84 22.8 73.5 22.8 85.15 22.8C90.72 22.8 95.14 26.2 96.42 31.46L96.47 31.64C96.56 32.01 96.66 32.38 96.66 32.77C96.68 35.1 96.67 37.48 96.67 39.58V42.06H2.37001L2.39 41.74L2.38002 41.76ZM7.75999 63.92H5.72002V55.61H7.75999V63.92ZM93.56 63.92H91.52V55.61H93.56V63.92ZM96.69 52.99H2.60002V44.71H96.69V52.99Z" fill="#756F6F"/>
</g>
<defs>
<clipPath id="clip0_239_432">
<rect width="99.25" height="66.43" fill="white"/>
</clipPath>
</defs>
</svg>
