<svg width="100" height="53" viewBox="0 0 100 53" fill="none" xmlns="http://www.w3.org/2000/svg">
<g clip-path="url(#clip0_294_70)">
<path d="M99.0302 19.3884V18.9603C99.0002 16.8293 97.4002 15.1835 95.0602 14.8696C94.5202 14.7935 93.9602 14.7745 93.3602 14.7554C93.0702 14.7459 92.7702 14.7364 92.4702 14.7174L92.1202 14.6984V11.6161C92.1202 10.3413 92.1302 9.05699 92.1202 7.7727C92.0502 3.39659 88.9502 0.323802 84.5902 0.295262C75.4002 0.247696 66.0502 0.266722 57.0002 0.295262H55.7502C53.8202 0.295262 52.0902 1.01827 50.6302 2.42624C50.4602 2.58796 50.3002 2.74969 50.1202 2.93995L49.4702 3.58685L49.2102 3.24438C47.0402 0.514067 43.9602 0.190616 41.2502 0.247696C37.6802 0.323802 34.0502 0.304775 30.5402 0.285749C29.0102 0.285749 27.4702 0.266722 25.9502 0.276235H25.7202C25.4802 0.276235 25.2502 0.276235 25.0202 0.295262C24.4102 0.371368 24.0902 0.685306 24.0502 1.24659C24.0002 1.93155 24.4902 2.1884 24.9002 2.28354C25.1702 2.34062 25.4702 2.34062 25.7702 2.34062H42.3402C46.3202 2.34062 48.4302 4.3384 48.4302 8.10566C48.4302 12.1203 48.4302 16.1444 48.4302 20.159C48.4302 20.3778 48.4202 20.5966 48.4002 20.8344L48.3402 21.7762L47.8102 21.4813C45.1102 19.9655 42.1702 19.2077 38.9902 19.2077H16.9302L16.8602 18.9318C16.0702 15.9065 14.5802 14.784 11.3702 14.784H9.23021L9.15021 14.2607C9.13021 14.1276 9.11021 14.0324 9.11021 13.9373V12.1298C9.09021 10.6267 9.08021 9.12358 9.11021 7.63C9.18021 4.39548 11.3602 2.37867 14.8102 2.35964C15.3402 2.35964 15.8602 2.35964 16.3902 2.35964C17.2902 2.35964 18.1902 2.35964 19.0902 2.34062C19.8502 2.32159 20.3102 1.91252 20.2902 1.27513C20.2702 0.675793 19.8202 0.295262 19.1102 0.295262H18.4202C16.9902 0.266722 15.5102 0.247696 14.0702 0.323802C10.7402 0.485527 8.09022 2.49283 7.30022 5.43243C7.00022 6.555 6.98022 7.79172 6.96022 8.99039C6.96022 9.37092 6.95021 9.76097 6.93021 10.1415C6.89021 11.1119 6.90021 12.0632 6.91021 13.0811C6.91021 13.5282 6.91021 13.9849 6.91021 14.4415V14.803H5.91021C5.50022 14.803 5.14021 14.803 4.77022 14.803C3.07021 14.8506 1.86021 15.3738 1.06021 16.4203C0.750215 16.8293 0.520215 17.2955 0.280215 17.7902C0.180215 17.9995 0.0802148 18.1992 -0.0297852 18.399L0.000214843 34.9807C0.0502148 35.0853 0.110215 35.209 0.140215 35.3517C0.950215 39.4043 4.38021 42.4961 8.67021 43.0384C9.09021 43.0955 9.50021 43.124 9.95021 43.1621L11.1102 43.2667L10.4502 44.9506C10.1102 45.8163 9.78022 46.663 9.47021 47.5096C9.00021 48.832 9.14021 50.0973 9.87021 51.0771C10.6002 52.057 11.8102 52.6183 13.2702 52.6373C13.4802 52.6373 13.6802 52.6373 13.8902 52.6373C14.0302 52.6373 14.1702 52.6373 14.3102 52.6373C14.4902 52.6373 14.6602 52.6373 14.8402 52.6468C16.4502 52.7229 17.7202 52.1141 18.7602 50.7822C19.6102 49.6977 20.4602 48.6227 21.3202 47.5382C22.2702 46.349 23.2102 45.1599 24.1402 43.9612C24.5902 43.3714 25.1202 43.124 25.8902 43.124C41.6402 43.1431 57.4002 43.1431 73.1502 43.124C73.8902 43.124 74.3802 43.3523 74.8202 43.9231C75.8602 45.255 76.9202 46.5869 77.9702 47.9092C78.7602 48.8986 79.5402 49.888 80.3202 50.8773C81.2902 52.1141 82.4702 52.6944 84.0102 52.6373C84.3202 52.6278 84.6402 52.6373 84.9502 52.6373H85.4802C87.1002 52.6373 88.4002 52.076 89.1402 51.0581C89.8802 50.0402 89.9802 48.6703 89.4102 47.2052C89.1102 46.4346 88.8102 45.6641 88.5002 44.865L87.8502 43.2001L89.5202 43.1145C94.6602 42.8006 98.8102 38.9477 98.9602 34.3433C99.1202 29.3678 99.0502 24.2973 98.9902 19.3979L99.0302 19.3884ZM56.7102 2.35013C65.8002 2.35013 74.8902 2.35013 83.9802 2.35013C87.8102 2.35013 89.9302 4.36694 89.9402 8.03907C89.9402 9.46606 89.9402 10.8835 89.9402 12.3486V14.8315L89.5402 14.803C85.6802 14.5366 82.9602 15.136 82.2102 18.9032L82.1502 19.1981H74.9302C70.1102 19.2172 65.1302 19.2172 60.2202 19.1791C56.7402 19.1506 53.8502 19.3123 51.3202 21.586L50.7402 22.1092L50.6502 20.901C50.6302 20.6442 50.6102 20.4444 50.6102 20.2541C50.6102 16.211 50.6102 12.1583 50.6102 8.11517C50.6102 4.34792 52.7202 2.35013 56.7002 2.35013H56.7102ZM16.8802 21.3672L17.4102 21.3101C17.5802 21.2911 17.7702 21.2625 17.9502 21.2625H23.3302C29.3002 21.2625 35.2802 21.2625 41.2502 21.2625C44.7502 21.2625 47.4102 23.1937 48.2002 26.2855C48.3902 27.0371 48.4302 27.8077 48.4602 28.6163C48.4802 28.9778 48.4902 29.3583 48.5302 29.7293L48.5602 30.1194H16.8902V21.3577L16.8802 21.3672ZM20.4102 45.2835C19.1602 46.8627 17.9802 48.3563 16.7602 49.8309C16.4302 50.2304 15.8202 50.4588 15.3502 50.5158C14.9802 50.5634 14.6102 50.5729 14.2302 50.5729C13.8302 50.5729 13.4302 50.5539 13.0402 50.5349C12.4202 50.4968 11.9302 50.2495 11.6302 49.8404C11.3502 49.4408 11.3002 48.9271 11.4802 48.4039C12.0302 46.8342 12.6702 45.2645 13.2702 43.7995C13.4102 43.4665 13.8602 43.1526 14.2202 43.1526C16.0302 43.1335 17.8402 43.1335 19.7602 43.1335H22.1102L20.4002 45.293L20.4102 45.2835ZM87.4202 49.8214C87.1302 50.24 86.6002 50.4968 85.9402 50.5444C85.8902 50.5444 85.8302 50.5444 85.7802 50.5444C85.7502 50.5444 85.7102 50.5444 85.6802 50.5444C85.3702 50.5919 85.0802 50.611 84.8002 50.611C83.2702 50.611 82.1002 49.9355 81.1802 48.5085C80.4602 47.3955 79.5902 46.349 78.6802 45.2455C78.2602 44.7413 77.8402 44.2276 77.4102 43.6853L76.9602 43.1145H79.3502C81.2502 43.1145 83.0402 43.1145 84.8202 43.1335C85.2202 43.1335 85.6802 43.5141 85.8202 43.847C86.5002 45.4738 87.0602 46.9293 87.5502 48.2802C87.8202 49.0223 87.6302 49.5169 87.4302 49.8119L87.4202 49.8214ZM96.8802 33.1636C96.8802 37.9393 93.6002 41.0406 88.5602 41.0501C86.2902 41.0501 84.0102 41.0501 81.7402 41.0501C80.0302 41.0501 78.3302 41.0501 76.6202 41.0501H56.2802C41.0502 41.0501 25.8302 41.0501 10.6102 41.0501C6.98021 41.0501 4.43021 39.6517 3.05021 36.8928C2.54021 35.8749 2.24021 34.6192 2.22021 33.3634C2.15021 29.8625 2.17021 26.3046 2.18021 22.8607V19.6453C2.19021 17.7521 3.12021 16.8674 5.12021 16.8579C7.30021 16.8484 9.48021 16.8484 11.6502 16.8579C13.7102 16.8579 14.6302 17.7331 14.6402 19.6833V30.6236C14.6402 31.9745 14.9302 32.2504 16.3502 32.2504C33.8202 32.2504 51.3002 32.2504 68.7702 32.2504H68.9402C69.1602 32.2504 69.3802 32.2504 69.5702 32.2218C70.1402 32.1172 70.4302 31.8127 70.4602 31.2895C70.4902 30.7473 70.2502 30.4143 69.7102 30.2716C69.4002 30.1955 69.0402 30.186 68.6502 30.186C64.2602 30.186 59.8602 30.186 55.4802 30.186H50.8502L50.7902 29.9006C50.2802 27.6364 50.7902 25.3913 52.1702 23.7455C53.4902 22.1853 55.4302 21.3101 57.6402 21.3006C63.3202 21.2625 69.0802 21.272 74.6702 21.2815H81.3202C81.4302 21.2815 81.5502 21.3006 81.6802 21.3101L82.2202 21.3481V30.186H80.2802C78.8602 30.186 77.4702 30.186 76.0702 30.186C75.6702 30.186 75.3702 30.186 75.0902 30.243C74.4502 30.3857 74.1702 30.7377 74.2402 31.3371C74.3002 31.8888 74.6202 32.1742 75.2602 32.2313C75.4102 32.2504 75.5602 32.2408 75.7202 32.2408H77.4202C79.2202 32.2408 81.0202 32.2408 82.8202 32.2408C84.1202 32.2408 84.4402 31.9364 84.4402 30.7187C84.4402 28.6353 84.4402 26.5519 84.4402 24.4685V19.7784C84.4402 17.7046 85.3302 16.8579 87.5202 16.8579H87.8402C89.8802 16.8579 91.9202 16.8579 93.9502 16.8579C95.9502 16.8674 96.8802 17.7521 96.8802 19.6453C96.8802 24.1546 96.8802 28.6734 96.8802 33.1827V33.1636Z" fill="#756F6F"/>
</g>
<defs>
<clipPath id="clip0_294_70">
<rect width="99.1" height="52.3896" fill="white" transform="translate(0 0.247803)"/>
</clipPath>
</defs>
</svg>
