<svg width="100" height="84" viewBox="0 0 100 84" fill="none" xmlns="http://www.w3.org/2000/svg">
<g clip-path="url(#clip0_239_464)">
<path d="M60.1709 23.02C52.8209 23.02 46.0109 23.02 39.3309 23.02C37.7309 23.02 36.8109 23.96 36.7909 25.58C36.7709 27.61 36.7709 29.7 36.7909 31.81C36.8009 33.5 37.6909 34.36 39.4209 34.36C41.8809 34.36 44.3309 34.36 46.7909 34.36H49.7409H52.7809C55.2409 34.36 57.7009 34.36 60.1609 34.36C61.8309 34.36 62.7509 33.43 62.7709 31.77C62.7809 29.77 62.7809 27.7 62.7709 25.64C62.7609 23.95 61.8309 23.02 60.1709 23.02ZM60.1709 31.72H39.4409V25.65H60.1709V31.72Z" fill="#756F6F"/>
<path d="M91.821 39.42C92.271 39.73 92.7109 40.0501 93.1709 40.3501C94.4009 41.1601 95.4509 40.96 96.2909 39.76C97.0509 38.67 97.8109 37.53 98.5409 36.44C98.8509 35.98 99.151 35.52 99.461 35.06V34.01C99.321 33.86 99.1909 33.71 99.0509 33.56C98.7309 33.2 98.4309 32.8501 98.0709 32.6001C93.4409 29.3501 88.7109 26.08 84.1409 22.91L81.7509 21.26C81.4909 21.08 81.251 20.94 81.021 20.83C80.281 20.48 79.8009 20.8601 79.521 21.2401C79.131 21.7601 79.1609 22.32 79.601 22.8C79.821 23.04 80.1109 23.25 80.3909 23.44L80.4809 23.5C83.6009 25.67 86.721 27.84 89.851 30.01L95.6009 34.01C95.7909 34.14 95.981 34.28 96.181 34.43L96.621 34.75L94.371 38.0201L93.901 37.7101C93.691 37.5701 93.491 37.44 93.3009 37.3L51.291 8.14005C49.761 7.08005 49.7109 7.08004 48.1409 8.17004L6.21095 37.28C6.00095 37.43 5.78094 37.57 5.56094 37.72L5.09094 38.03L2.84094 34.7701L3.26094 34.45C3.45094 34.3 3.63094 34.17 3.81094 34.04C18.5309 23.82 33.2509 13.59 47.9809 3.37005C49.5009 2.32005 49.961 2.32004 51.491 3.38004L58.521 8.26005C63.5109 11.72 68.501 15.19 73.491 18.65C73.7609 18.84 74.061 19.04 74.381 19.19C75.111 19.54 75.6009 19.15 75.8709 18.7701C76.2509 18.24 76.2209 17.69 75.7809 17.21C75.5709 16.97 75.2809 16.78 75.0109 16.59L74.901 16.51C67.571 11.41 60.241 6.32004 52.901 1.23004C50.521 -0.419958 48.901 -0.409952 46.491 1.26005C42.971 3.70005 39.451 6.15004 35.931 8.59004C24.411 16.59 12.8909 24.59 1.37094 32.59C-0.21906 33.7 -0.399052 34.61 0.690948 36.19C1.19095 36.92 1.68095 37.64 2.18095 38.36L2.84094 39.32C3.48094 40.25 4.02095 40.71 4.58095 40.82C5.14095 40.93 5.79094 40.69 6.70094 40.06C7.97094 39.18 9.24094 38.3001 10.6209 37.3501L10.8909 37.16V81.33H8.60095C6.39095 81.33 4.20094 81.33 2.01094 81.33C1.94094 81.33 1.86095 81.33 1.79095 81.33C1.72095 81.33 1.65095 81.33 1.58095 81.33C1.31095 81.33 1.04095 81.35 0.900954 81.47C0.480954 81.83 0.0509471 82.3801 0.0809471 82.7401C0.110947 83.08 0.590941 83.47 0.980941 83.78L1.11095 83.89C1.19095 83.95 1.42095 83.94 1.60095 83.92C1.69095 83.92 1.78095 83.91 1.86095 83.91H20.0909C45.9209 83.91 71.7409 83.91 97.5709 83.92C98.5209 83.92 99.0609 83.66 99.4409 83.04V82.17C99.0009 81.58 98.411 81.32 97.501 81.32H97.4409C95.3609 81.35 93.341 81.34 91.1909 81.34C90.3709 81.34 89.5509 81.34 88.7209 81.34H88.5509V37.17L91.821 39.45V39.42ZM75.3609 46.14V47.72H24.1909V46.14H75.3609ZM24.211 43.44V41.8801H75.381V43.44H24.211ZM85.901 70.53V80.18C85.901 80.37 85.8809 80.57 85.8709 80.78C85.8709 80.88 85.851 80.9901 85.851 81.1001V81.26H78.0009V75.39C78.0009 75.14 78.0009 74.89 78.0009 74.64C77.9409 73.77 77.4609 73.26 76.7209 73.26C76.701 73.26 76.6809 73.26 76.6609 73.26C75.9109 73.29 75.4609 73.8 75.4409 74.65C75.421 75.86 75.421 77.1 75.431 78.29C75.431 78.8 75.431 79.3 75.431 79.81V81.23H66.7009H62.711H60.041H39.491H36.8009V81.28H32.8609V81.23H30.181V81.25H24.2309V50.4601H75.431V66.9901C75.431 67.2401 75.431 67.48 75.461 67.7101C75.561 68.4201 75.9809 68.81 76.6609 68.84C77.531 68.89 77.8309 68.31 77.9509 67.82C78.0109 67.57 78.0109 67.3 78.0109 67.04V67C78.0109 58.68 78.0109 50.37 78.0109 42.05C78.0109 40.14 77.1109 39.26 75.1909 39.26C58.271 39.26 41.3409 39.26 24.4209 39.26C22.4409 39.26 21.5909 40.1201 21.5909 42.1301C21.5909 51.5301 21.5909 60.94 21.5909 70.34V81.25H13.5609V72.69C13.5609 60.8 13.561 48.5 13.541 36.41C13.541 35.62 13.7909 35.13 14.4409 34.68C26.8609 26.09 38.0809 18.29 48.7609 10.84C49.4809 10.34 49.9909 10.34 50.7309 10.86C62.6709 19.18 74.771 27.58 85.041 34.7C85.591 35.08 85.931 35.4701 85.931 36.2401C85.911 47.68 85.9109 59.11 85.9109 70.54L85.901 70.53Z" fill="#756F6F"/>
</g>
<defs>
<clipPath id="clip0_239_464">
<rect width="99.461" height="83.9355" fill="white"/>
</clipPath>
</defs>
</svg>
