<svg width="96" height="96" viewBox="0 0 96 96" fill="none" xmlns="http://www.w3.org/2000/svg">
<g clip-path="url(#clip0_239_435)">
<path d="M41.1401 65.5101C33.2501 65.5101 25.3501 65.5101 17.4501 65.5101H17.3601C16.8501 65.5201 16.1801 65.5101 16.0001 64.4801C15.2401 60.2001 14.4401 55.9301 13.6401 51.6601L12.1401 43.6001C11.5301 40.3201 10.9301 37.0401 10.3101 33.7601C9.9801 32.0201 9.0001 31.2001 7.2201 31.1901H6.9101C5.5501 31.1801 4.2001 31.1701 2.8401 31.1901C1.9201 31.2101 1.1201 31.5701 0.600104 32.2101C0.0901036 32.8301 -0.0998964 33.6601 0.0601036 34.5201C0.750104 38.2701 1.4501 42.0201 2.1501 45.7601C3.0301 50.4701 3.9001 55.1701 4.7701 59.8801C4.8901 60.5501 5.0401 61.2301 5.1801 61.9101C5.5601 63.7101 5.9501 65.5701 5.9901 67.4201C6.1001 73.4701 6.0801 79.6101 6.0601 85.5601C6.0601 87.8001 6.0401 90.0401 6.0401 92.2801C6.0401 92.4701 6.0301 92.6701 6.0101 92.9001L5.9601 93.6001H0.0801036V95.8901H94.3301V93.5801C94.1501 93.5801 93.9801 93.5801 93.8101 93.5801C93.0501 93.5801 92.3401 93.6001 91.6101 93.5501C91.1401 93.5101 90.6001 93.2101 90.3501 92.8301C89.5901 91.6801 88.8401 90.4401 88.1101 89.1401C87.1101 87.3501 85.7101 86.2901 83.8301 85.8801L83.5801 85.8301L83.5101 85.4201C83.4901 85.3001 83.4701 85.2201 83.4701 85.1401V79.2101C83.4701 73.4201 83.4701 67.6301 83.4501 61.8501C83.4501 60.9801 83.9801 60.7401 84.4101 60.5601L84.5001 60.5201C88.4501 58.7601 91.0801 55.7701 92.3101 51.6401C92.8901 49.6901 92.8601 47.6501 92.8301 45.6701C92.8301 45.0501 92.8101 44.4301 92.8201 43.8001C92.8301 42.7101 92.5801 41.8901 92.0601 41.3601C91.5301 40.8201 90.6801 40.5501 89.5401 40.5501H67.8401V37.5101H65.4601V40.4801H61.6301V36.4801C61.6301 33.6201 61.6301 30.7901 61.6301 27.9601C61.6301 26.8501 62.0201 25.8601 62.7101 25.1701C63.3401 24.5501 64.1901 24.2001 65.1201 24.2001H65.1301C67.1301 24.2001 68.6001 25.7901 68.6101 27.9701C68.6101 28.6101 68.6101 29.2501 68.6101 29.8801V30.3601H70.9801V29.8101C70.9801 29.1701 70.9801 28.5501 70.9801 27.9301C70.9601 24.4501 68.4301 21.8301 65.1201 21.8301C61.7901 21.8301 59.2701 24.4501 59.2601 27.9301C59.2601 30.5201 59.2601 33.1001 59.2601 35.6901V40.5401H57.0801C55.7101 40.5401 54.3901 40.5401 53.0601 40.5401C51.0101 40.5401 49.9101 41.6101 49.9101 43.6301V44.7501C49.8901 45.7801 49.8801 46.8501 49.9101 47.9001C50.1101 53.7901 52.9201 58.0301 58.2801 60.5001C59.0101 60.8401 59.2801 61.2601 59.2801 62.0601C59.2601 67.9901 59.2601 73.9301 59.2601 79.8601V85.6701L59.0101 85.7601C56.3001 86.7501 55.8201 87.1501 54.3001 89.6801L53.7801 90.5301C53.3601 91.2101 52.9401 91.9001 52.5601 92.6001C52.1801 93.2901 51.6801 93.5801 50.8801 93.5801H50.8701C45.8401 93.5601 40.8101 93.5601 35.7901 93.5601H30.2001L27.8701 82.9901L28.3001 82.9601C28.9901 82.9101 29.6701 82.8701 30.3401 82.8201C31.7501 82.7301 33.1101 82.6401 34.4601 82.5101C40.6501 81.9301 45.5101 76.9901 46.0101 70.7801C46.1401 69.1401 45.7701 67.7901 44.9201 66.8801C44.0801 65.9701 42.7701 65.4901 41.1301 65.4901L41.1401 65.5101ZM52.2901 47.7501C52.2901 46.7501 52.2901 45.7501 52.2901 44.7401V42.9701H90.4501V43.3501C90.4501 43.9701 90.4501 44.5901 90.4701 45.2101C90.5301 47.8901 90.5901 50.6701 89.1401 53.2701C87.6101 56.0201 85.4301 57.8401 82.6601 58.6701C81.4601 59.0301 80.1701 59.2301 78.9301 59.2401C76.4001 59.2701 73.8501 59.2801 71.3101 59.2801C68.9101 59.2801 66.5301 59.2801 64.1801 59.2601H63.8301C57.2901 59.2301 52.3301 54.2801 52.2901 47.7401V47.7501ZM81.0601 61.6701V85.7501H61.7001V61.6701H81.0601ZM55.1101 92.9601C55.3501 92.5801 55.5801 92.2001 55.8001 91.8301C56.3201 90.9801 56.8101 90.1701 57.3601 89.4001C57.9401 88.5801 58.8801 88.1501 60.0601 88.1501H82.6701C83.9001 88.1501 84.8901 88.6301 85.5101 89.5301C86.0201 90.2701 86.4801 91.0301 86.9701 91.8501C87.1901 92.2101 87.4101 92.5801 87.6401 92.9601L87.9901 93.5301H54.7401L55.1001 92.9601H55.1101ZM4.4301 44.9701L2.3401 33.6301H7.8701L13.8001 65.5001H12.2401C11.8801 65.5001 11.5301 65.5001 11.1801 65.5001C10.4301 65.5001 9.7001 65.5001 8.9701 65.4601C8.5101 65.4401 8.1201 64.8101 8.0501 64.4701C6.8301 57.9701 5.6401 51.4601 4.4401 44.9501L4.4301 44.9701ZM42.4201 74.7601C40.5001 78.0001 37.8501 79.8001 34.5701 80.1101C31.3601 80.4101 28.0801 80.6101 24.9101 80.8001C23.5301 80.8801 22.1401 80.9701 20.7601 81.0601L20.2201 81.1001L20.3301 83.4301L25.4501 83.1401L27.7701 93.5101H8.4801V74.1901H42.7601L42.4201 74.7601ZM43.4201 71.4501L43.3401 71.7101H8.4501V67.8801H17.9401C25.4701 67.8901 33.2601 67.9001 40.9101 67.8501C42.0201 67.8501 42.8401 68.1401 43.2801 68.7501C43.7401 69.3801 43.7901 70.2901 43.4101 71.4501H43.4201Z" fill="#756F6F"/>
<path d="M92.8403 30.44C94.8803 30.44 95.9603 29.36 95.9603 27.31C95.9603 19.25 95.9603 11.19 95.9603 3.14C95.9603 1.09 94.8803 0 92.8503 0C86.2003 0 79.5503 0 72.9003 0C65.2203 0 57.5403 0 49.8603 0C47.8903 0 46.8003 1.1 46.8003 3.08C46.8003 5.94 46.8003 8.8 46.8003 11.66V15.17V18.68C46.8003 21.64 46.8003 24.59 46.8003 27.55C46.8003 29.09 47.8003 30.31 49.1103 30.38C50.6303 30.46 52.1203 30.45 53.7103 30.43C54.2603 30.43 54.8103 30.42 55.3603 30.41V28.03H49.2203V2.43H93.5203V28.1H74.9403V30.44H80.7603C84.7903 30.44 88.8103 30.44 92.8403 30.44Z" fill="#756F6F"/>
<path d="M42.84 43.6599H39.8V42.3599C39.8 41.7399 39.8 41.1599 39.8 40.5699C39.8 38.5199 38.72 37.4299 36.7 37.4299C32.77 37.4299 28.85 37.4299 24.92 37.4299C22.94 37.4299 21.85 38.5199 21.84 40.4899C21.84 41.1199 21.84 41.7599 21.84 42.4099V43.6999H18.79V46.0799H21.84V47.2199C21.84 47.7699 21.84 48.2799 21.84 48.7899V49.0499C21.85 49.4799 21.86 49.8799 21.96 50.2399C22.28 51.4399 23.13 52.1099 24.64 52.3399L24.96 52.3899V53.6099C24.96 54.2499 24.96 54.8799 24.96 55.4999C24.98 57.3699 26.08 58.4899 27.91 58.4999C29.86 58.5099 31.8 58.5099 33.75 58.4999C35.54 58.4899 36.66 57.3699 36.69 55.5799C36.69 54.9099 36.69 54.2499 36.69 53.5799V52.3999L36.99 52.3399C39.1 51.8899 39.81 51.0499 39.81 48.9699V45.9899H42.85V43.6399L42.84 43.6599ZM34.25 56.0999H27.39V52.3399H34.25V56.0999ZM37.38 49.8599H24.27V39.8699H37.38V49.8599Z" fill="#756F6F"/>
<path d="M78.02 18.9101L66.22 7.1001L64.79 8.4201L76.64 20.2701L78.02 18.9101Z" fill="#756F6F"/>
<path d="M84.1799 14.2501L77.0299 7.1001L75.6299 8.4401L82.7299 15.5901L84.1799 14.2501Z" fill="#756F6F"/>
<path d="M63.8702 17.3699L59.9002 13.3999L58.4702 14.6899L62.4402 18.6599L63.8702 17.3699Z" fill="#756F6F"/>
</g>
<defs>
<clipPath id="clip0_239_435">
<rect width="95.9552" height="95.89" fill="white" transform="translate(0.00488281)"/>
</clipPath>
</defs>
</svg>
