<svg width="100" height="97" viewBox="0 0 100 97" fill="none" xmlns="http://www.w3.org/2000/svg">
<g clip-path="url(#clip0_239_425)">
<path d="M99.0334 37.0376V36.1576C99.0334 36.1576 98.9334 36.0676 98.8934 35.9976L95.2534 30.3676C91.3534 24.3276 87.3234 18.0876 83.3334 11.9676C82.9834 11.4276 82.3534 10.9276 81.7734 10.7276C71.7334 7.2876 61.1934 3.7176 50.4434 0.137599C49.8834 -0.0524014 49.1234 -0.0424014 48.5234 0.147599C45.0034 1.2876 41.4834 2.4876 38.0834 3.6476L35.0634 4.6776C34.2334 4.9576 33.7234 5.2976 33.5234 5.6976C33.4034 5.9476 33.4034 6.2476 33.5234 6.5976C33.6434 6.9276 33.9434 7.7976 35.8634 7.1476C36.7234 6.8576 37.5734 6.5676 38.4334 6.2776L39.2434 6.0076C42.2334 4.9876 45.3234 3.9376 48.4134 2.9376C49.0834 2.7176 49.9434 2.7176 50.5934 2.9376C60.0534 6.0976 69.9734 9.4476 80.0834 12.8976C80.6734 13.0976 81.2834 13.5876 81.6434 14.1376C85.2834 19.7176 89.0334 25.5176 92.3334 30.6376L94.3434 33.7576C94.4534 33.9376 94.5634 34.1176 94.6834 34.3176L95.2034 35.2076H78.7934V32.1276C78.7934 29.9876 78.7934 27.8876 78.7934 25.7876C78.7934 24.4676 78.4034 24.0676 77.1334 24.0676C58.7134 24.0676 40.2934 24.0676 21.8734 24.0676C20.6034 24.0676 20.2234 24.4676 20.2134 25.7876C20.2134 27.6776 20.2134 29.5676 20.2134 31.4476V35.2276H3.84342L4.27342 34.4176C4.35342 34.2676 4.42342 34.1276 4.50342 33.9976L5.75342 32.0576C9.16342 26.7676 13.4134 20.1776 17.5134 13.8776C17.7634 13.4876 18.2534 13.1276 18.7434 12.9476C20.7434 12.2476 22.7834 11.5576 24.7634 10.8976H24.8034C25.7934 10.5476 26.7834 10.2176 27.7734 9.8776C27.9934 9.8076 28.2034 9.7376 28.4234 9.6676C29.0834 9.4576 29.7634 9.2376 30.3834 8.9376C30.8534 8.7176 31.1434 8.2676 31.1534 7.7776C31.1534 7.3476 30.9434 6.9976 30.5634 6.8076C30.1734 6.6076 29.5234 6.5876 29.0034 6.7576C24.8034 8.1176 20.9234 9.4376 17.1334 10.7876C16.6134 10.9676 16.0534 11.4176 15.7134 11.9276C14.2334 14.1376 12.7734 16.4076 11.3534 18.6076L5.32342 27.9376C3.68342 30.4676 2.05342 33.0076 0.413421 35.5376C0.0334212 36.1276 -0.146579 36.6076 0.143421 37.1676C0.423421 37.6976 0.853421 37.9076 1.68342 37.9076H8.03342V43.3876H6.97342C6.56342 43.3876 6.16342 43.3876 5.77342 43.3876C4.69342 43.4176 4.22342 43.8576 4.21342 44.8476C4.18342 48.0276 4.18342 51.4076 4.21342 54.8776C4.21342 55.8676 4.64342 56.2876 5.66342 56.3476C6.09342 56.3776 6.53342 56.3676 6.95342 56.3576C7.15342 56.3576 7.34342 56.3576 7.53342 56.3576H7.81342L7.89342 56.6276C7.91342 56.6976 7.93342 56.7576 7.95342 56.8076C7.99342 56.9276 8.02342 57.0176 8.02342 57.1376C8.02342 64.4576 8.03342 71.6276 8.02342 78.8676C8.02342 79.1476 7.89342 79.6576 7.55342 79.8476C6.88342 80.2076 6.77342 80.7276 6.77342 81.6776C6.77342 84.5476 6.77342 87.4176 6.77342 90.2776V94.4376C6.77342 96.3876 7.01342 96.6376 8.94342 96.6376H90.0334H90.2734C90.5234 96.6376 90.7534 96.6376 90.9734 96.6176C91.7334 96.5476 92.1734 96.1276 92.2134 95.4276C92.2734 94.4676 92.2634 93.5376 92.2134 92.6476C92.1634 91.9476 91.7734 91.5576 91.0534 91.4876C90.3734 91.4276 89.8534 91.8376 89.7134 92.5376C89.6634 92.7676 89.6534 93.0076 89.6334 93.2576C89.6334 93.3776 89.6134 93.4976 89.6034 93.6176L89.5734 93.9576H58.7534V82.3976H89.6634V82.7776C89.6634 83.1576 89.6634 83.5376 89.6634 83.9176V84.0976C89.6634 85.1176 89.6534 86.0576 89.6734 87.0076C89.6934 87.8776 90.1934 88.4176 90.9634 88.4176C91.7534 88.4176 92.2234 87.8776 92.2334 86.9976C92.2634 84.8376 92.2834 83.0376 92.2134 81.1676C92.1934 80.7476 91.9634 80.2276 91.7134 80.0476C91.0334 79.5676 90.9834 79.0076 90.9834 78.4376C90.9834 72.7876 90.9834 67.1276 90.9834 61.4776C90.9834 61.1476 90.9734 60.7576 90.9034 60.3876C90.7734 59.7276 90.2434 59.2876 89.6534 59.3376C88.9434 59.3976 88.5534 59.7376 88.4534 60.3876C88.3834 60.8176 88.3734 61.2576 88.3734 61.5876V78.1576C88.3734 78.4076 88.3534 78.6576 88.3234 78.9476L88.2734 79.6376H58.6934V74.9176C58.6934 72.1476 58.6934 69.3776 58.6934 66.6176C58.6934 65.4876 58.2434 64.9976 57.2134 64.9976C52.4734 64.9776 47.4434 64.9776 41.8134 64.9976C40.8034 64.9976 40.3434 65.4676 40.3234 66.5176C40.3034 67.8676 40.3034 69.2376 40.3234 70.4076C40.3334 71.4176 40.8134 72.0276 41.6034 72.0276C42.3934 72.0276 42.8834 71.3976 42.9034 70.3976C42.9034 69.8676 42.9034 69.3476 42.9034 68.8176V67.6276H56.0434V93.9576H42.9034V87.0976C42.9034 83.4676 42.9034 79.8276 42.9034 76.1976C42.9034 75.0776 42.4634 74.4976 41.6134 74.4976C40.7534 74.4976 40.3334 75.0476 40.3234 76.1876C40.3234 76.8976 40.3234 77.6076 40.3234 78.3276V79.6476H10.7134V56.3376H17.0534C19.5934 56.3376 22.1334 56.3376 24.6734 56.3376C25.8734 56.3376 26.4934 55.8976 26.5034 55.0476C26.5034 54.2276 25.8534 53.7376 24.6934 53.7176C24.5934 53.7176 24.5034 53.7176 24.4034 53.7176H6.88342V46.0076H92.1634V53.7176H72.3834C58.8634 53.7176 45.3434 53.7176 31.8234 53.7176C31.3734 53.7176 30.8434 53.7276 30.3834 53.8576C29.7934 54.0176 29.5034 54.4376 29.5334 55.0876C29.5634 55.7476 29.8934 56.1376 30.4934 56.2476C30.9234 56.3276 31.3734 56.3276 31.8834 56.3276C52.0534 56.3276 72.2334 56.3276 92.4034 56.3276H92.6934C92.9134 56.3276 93.1334 56.3276 93.3534 56.3276C94.3834 56.2576 94.8034 55.8276 94.8134 54.8576C94.8434 51.4176 94.8434 48.0476 94.8134 44.8276C94.8034 43.8376 94.3334 43.3976 93.2634 43.3576C92.8434 43.3476 92.4234 43.3476 92.0334 43.3576H91.0634V37.8776H91.4434C92.0034 37.8776 92.5634 37.8776 93.1234 37.8776C94.3334 37.8776 95.7034 37.8676 97.0534 37.8976C98.0134 37.9276 98.6334 37.6476 99.0534 37.0176L99.0334 37.0376ZM9.44342 82.4376H40.2534V94.0276H9.44342V82.4376ZM20.1634 43.3276H10.7034V37.9576H20.1634V43.3276ZM40.1734 43.3276H31.7834V34.9376H40.1734V43.3276ZM67.2334 43.3276H58.8434V34.8876H67.2334V43.3276ZM76.1434 43.3176H69.9034V36.9876C69.9034 35.9976 69.9134 34.9876 69.9034 33.9776C69.8834 32.7176 69.4334 32.2676 68.1934 32.2676C64.9634 32.2576 61.6134 32.2576 57.9634 32.2676C56.6334 32.2676 56.1734 32.7376 56.1734 34.1076C56.1734 36.1476 56.1734 38.1976 56.1734 40.2676V43.3176H42.8834V39.0576C42.8834 37.4576 42.8834 35.8576 42.8834 34.2576C42.8834 32.6776 42.4834 32.2776 40.9434 32.2676C37.6334 32.2676 34.3234 32.2676 31.0034 32.2676C29.5534 32.2676 29.1534 32.6676 29.1434 34.1176C29.1434 36.1776 29.1434 38.2376 29.1434 40.3076V43.2976H22.8534V26.7176H76.1634V43.3176H76.1434ZM88.3134 43.3176H78.8534V37.9576H88.3134V43.3176Z" fill="#756F6F"/>
<path d="M35.0836 73.7275C35.0936 70.1175 35.0936 66.3575 35.0836 62.2275C35.0836 60.9275 34.6336 60.4875 33.3236 60.4775C31.4036 60.4775 29.4836 60.4775 27.5536 60.4775H25.4236H20.7536C19.6136 60.4775 18.4836 60.4775 17.3436 60.4775C16.1836 60.4775 15.7536 60.9175 15.7536 62.0675C15.7436 65.7075 15.7436 69.5275 15.7536 73.7575C15.7536 74.9775 16.1836 75.4075 17.3936 75.4075C22.3436 75.4275 27.5736 75.4275 33.3736 75.4075C34.6336 75.4075 35.0836 74.9575 35.0836 73.7075V73.7275ZM24.0536 72.7975H18.4136V63.1275H24.0536V72.7975ZM32.4136 72.7575H26.7436V63.1375H32.4136V72.7575Z" fill="#756F6F"/>
<path d="M63.9432 62.1375C63.9232 66.3375 63.9232 70.1675 63.9432 73.8275C63.9432 74.9575 64.4132 75.4275 65.5532 75.4275C70.6332 75.4475 76.0432 75.4475 81.6332 75.4275C82.8332 75.4275 83.2632 74.9875 83.2632 73.7675C83.2732 70.0375 83.2732 66.1375 83.2632 62.1675C83.2632 60.8975 82.8532 60.4875 81.5732 60.4775C79.6432 60.4775 77.7132 60.4775 75.7832 60.4775H73.6732H68.8232C67.7432 60.4775 66.6632 60.4775 65.5932 60.4775C64.3932 60.4775 63.9432 60.9375 63.9332 62.1275L63.9432 62.1375ZM74.9632 63.1275H80.6332V72.7775H74.9632V63.1275ZM66.6132 63.1375H72.2532V72.7975H66.6132V63.1375Z" fill="#756F6F"/>
<path d="M44.6733 81.1177C44.6733 81.4477 44.7933 81.7577 45.0333 82.0077C45.2733 82.2577 45.6133 82.4077 45.9533 82.4077C46.3133 82.4077 46.6333 82.2777 46.8633 82.0477C47.0933 81.8177 47.2233 81.4877 47.2233 81.1277C47.2233 80.7877 47.0733 80.4477 46.8233 80.2077C46.5833 79.9777 46.2833 79.8577 45.9733 79.8577H45.9433C45.2933 79.8777 44.6933 80.4777 44.6733 81.1177Z" fill="#756F6F"/>
</g>
<defs>
<clipPath id="clip0_239_425">
<rect width="99.0534" height="96.6376" fill="white"/>
</clipPath>
</defs>
</svg>
