<?xml version="1.0" encoding="utf-8"?>
<!-- Generator: Adobe Illustrator 28.0.0, SVG Export Plug-In . SVG Version: 6.00 Build 0)  -->
<svg version="1.1" id="Capa_1" xmlns="http://www.w3.org/2000/svg" xmlns:xlink="http://www.w3.org/1999/xlink" x="0px" y="0px"
	 viewBox="0 0 394.2 112.7" style="enable-background:new 0 0 394.2 112.7;" xml:space="preserve">
<style type="text/css">
	.st0{fill:#FFFFFF;}
</style>
<g>
	<path class="st0" d="M323.8,42.3c0.6,2.5,1.3,5.1,2,8.1c-2.1-1.3-3.7-2.3-5.7-3.6c0.9-1.5,1.9-3.1,2.8-4.6
		C323.2,42.2,323.5,42.2,323.8,42.3z"/>
	<path class="st0" d="M170,39.8c-0.2,1-1.5,1.7-2.5,1.4c-0.8-0.2-1.6-0.4-2.4-0.6c-0.1,0-0.5-0.1-0.4-0.1l-0.3,0
		c-0.4,0-0.8-0.1-1.2-0.1c-0.8,0-1.5,0-2.3,0.1c-0.2,0-0.3,0-0.5,0.1c-0.1,0-0.2,0-0.3,0.1c-0.4,0.1-0.8,0.1-1.1,0.2
		c-0.7,0.1-1.3,0.3-2,0.6c-0.3,0.1-0.6,0.2-1,0.4c0.1,0,0,0-0.2,0.1c0,0,0,0,0,0h0c-0.1,0.1-0.3,0.1-0.4,0.2c-0.6,0.3-1.2,0.6-1.8,1
		c-0.3,0.2-0.6,0.4-0.9,0.6c-0.1,0.1-0.3,0.2-0.4,0.3c-0.1,0.1-0.5,0.4-0.2,0.1c-0.5,0.4-1,0.9-1.5,1.3c-0.5,0.5-1,1-1.4,1.5
		l-0.1,0.1c0,0,0,0-0.1,0.1l-0.3,0.4c-0.2,0.3-0.4,0.6-0.5,0.8l-0.5,0.8c0,0.1,0,0.1-0.1,0.2c-0.1,0.1-0.1,0.3-0.1,0.5
		c-0.1,0.2-0.1,0.4-0.1,0.6c0,0,0,0,0,0.1v0.1c0,0.1,0,0.3,0,0.4c0,0,0,0.1,0,0.1l0,0c0,0,0,0,0,0.1c0,0,0,0.1,0,0.1
		c0.1,0.1,0.1,0.3,0.2,0.4l0.1,0.1c0.1,0.1,0.2,0.2,0.3,0.3c0,0.1,0.1,0.1,0.1,0.1c0.1,0,0.4,0.3,0.5,0.3c0.1,0.1,0.3,0.2,0.4,0.2
		c-0.1-0.1,0-0.1,0.2,0.1h0c0,0,0,0,0.1,0c0,0,0,0,0,0c0.3,0.1,0.6,0.2,0.9,0.3c0.1,0,0.1,0,0.1,0c0.1,0,0.1,0,0.1,0
		c0.2,0,0.4,0,0.6,0c0.9,0.1,1.8,0.1,2.7,0c0.5,0,1-0.1,1.5-0.1h0.2c0,0,0,0,0.1,0c0.2-0.1,0.4-0.1,0.7-0.1c1.8-0.3,3.6-0.8,5.3-1.5
		c1.1-0.4,2.2,0.4,2.5,1.4c0.1,0.5,0,1.1-0.2,1.5c-0.3,0.5-0.7,0.7-1.2,0.9c-2.2,0.9-4.5,1.5-6.9,1.8c-1.1,0.1-2.2,0.2-3.4,0.2
		s-2.3,0-3.4-0.3c-1.9-0.4-3.6-1.6-4.6-3.1c-1.1-1.6-1-3.7-0.4-5.5c0.6-1.7,1.6-3.1,2.8-4.5c1-1.3,2.3-2.3,3.6-3.3
		c5.2-3.8,12.3-5.2,18.4-3.2C169.7,37.7,170.3,38.7,170,39.8z M147.4,51.1c0,0,0-0.1,0-0.1C147.4,51,147.4,51.1,147.4,51.1z
		 M147.4,51.1L147.4,51.1L147.4,51.1z M149.1,52.8C149.1,52.8,149.2,52.9,149.1,52.8l0.1,0C149.2,52.8,149.1,52.8,149.1,52.8z
		 M150.3,53.1C150.3,53.1,150.3,53.1,150.3,53.1L150.3,53.1L150.3,53.1z M150.4,53.2C150.4,53.2,150.3,53.1,150.4,53.2
		C150.4,53.1,150.4,53.1,150.4,53.2z M156,41.8C156,41.8,156,41.8,156,41.8L156,41.8z"/>
	<path class="st0" d="M196.7,53.7c-0.2,1.2-1.5,1.7-2.5,1.5c-3-0.6-5.4-2.6-7.8-4.5c-0.6-0.4-1.2-0.9-1.9-1.3
		c-0.3-0.2-0.7-0.4-1-0.6c-0.1-0.1-0.3-0.2-0.4-0.2c-0.1,0-0.3-0.1-0.3-0.1c-0.3-0.1-0.6-0.2-1-0.3c-0.1,0-0.1-0.1-0.1-0.1
		c-1.9,2.5-3.9,5-5.9,7.3c-0.7,0.8-1.9,0.8-2.6,0.2c-0.8-0.7-1-1.8-0.5-2.7L173,52c0.2-0.5,0.6-0.8,1.1-0.9c1.1-1.2,2.1-2.5,3.1-3.7
		c-0.1-0.2-0.2-0.4-0.3-0.7c-0.3-1.1,0.4-2.3,1.4-2.6c0.5-0.1,1-0.2,1.6-0.3l0.3-0.5c0.4-0.7,0.9-1.3,1.3-2c0.9-1.3,1.7-2.7,2.5-4.1
		c0.5-0.8,1.4-1.2,2.2-1c0.1-0.5,0.4-0.9,0.9-1.2c0.9-0.6,2.2-0.2,2.7,0.8c0.8,1.6,1.7,3.1,2.1,4.8c0.4,1.5,0.6,3.1,1.1,4.6
		c0.1,0.3,0.3,0.6,0.3,0.9c0-0.1,0-0.1,0-0.1c0,0.1,0.1,0.3,0.1,0.3c0.1,0.2,0.1,0.4,0.3,0.5c0.3,0.6,0.6,1.2,1,1.8l0.1,0.2
		c0.1,0.2,0.3,0.3,0.4,0.4l0.8,1.1C196.7,51.5,196.9,52.5,196.7,53.7z M183.1,48.6l-0.1,0C183,48.6,183,48.6,183.1,48.6z M189.7,48
		c-0.2-0.6-0.4-1.1-0.6-1.7c-0.4-1.5-0.6-3-1.1-4.5c-0.1-0.4-0.2-0.8-0.4-1.1c0,0,0-0.1,0-0.1c-0.1-0.2-0.2-0.4-0.3-0.6
		c-0.1-0.1-0.1-0.2-0.1-0.3c-1,1.6-2,3.2-3,4.8C186.2,45.4,187.9,46.7,189.7,48L189.7,48z"/>
	<path class="st0" d="M217.4,57.5c-1.7,0.9-3.6,0.8-5.4,0.4s-3.6-0.9-5.4-1.4c-1.9-0.5-3.9-1-5.8-1.6c-1.1-0.3-1.7-1.4-1.4-2.5
		c0.3-1.1,1.5-1.7,2.5-1.4c2.2,0.6,4.5,1.2,6.7,1.8c1.1,0.3,2.2,0.6,3.3,0.9c0.4,0.1,0.8,0.2,1.2,0.3c0.2,0,0.4,0,0.6,0.1
		c0.1,0,0.2,0,0.3,0c0.2,0,0.4,0,0.6,0h0.2c0.1,0,0.1,0,0.1,0c0.1,0,0.1,0,0.1-0.1c0.1,0,0.1,0,0.1,0c0.1,0,0.1,0,0.2-0.1
		c0.1,0,0.1-0.1,0.1-0.1v0c0,0,0,0,0,0h0c0.1-0.1,0.1-0.1,0.1-0.1l-0.1,0.1c0,0,0,0,0,0c0.2-0.1,0.1-0.1,0.1-0.1
		c0.1,0,0.1-0.1,0.1-0.1c0,0,0.1-0.1,0.1-0.1l0.1-0.1c0,0,0,0,0-0.1l0.1-0.1c0,0,0,0,0-0.1v-0.1c0,0,0-0.1,0-0.1c0,0,0,0.1,0,0.1
		v-0.1c0-0.1,0-0.3,0-0.4c0,0,0,0,0-0.1c0-0.2-0.1-0.4-0.1-0.5c0,0-0.1-0.1-0.1-0.1l-0.5-0.8c0,0-0.1-0.1-0.1-0.1l-0.3-0.4
		c-0.1-0.1-0.2-0.2-0.3-0.3l-0.1-0.1c0,0,0,0,0,0c-0.7-0.5-1.4-0.8-2.2-1.2c-1.5-0.7-3.1-1.2-4.4-2.2c-1.5-1-2.5-2.3-3.1-4
		c-0.6-1.5-0.5-3.3,0.2-4.8c0.3-0.7,1-1.5,1.7-1.8c0.1-0.1,0.2-0.1,0.3-0.2L207,36c0.1-0.1,0.3-0.1,0.4-0.2c0.4-0.2,0.8-0.3,1.2-0.4
		c0.9-0.1,1.9-0.1,2.8,0.2c1,0.4,1.8,1,2.5,1.9c0.6,0.9,0.1,2.2-0.7,2.7c-0.4,0.3-1.1,0.3-1.5,0.2c-0.5-0.1-0.9-0.5-1.2-0.9
		c0.3,0.4,0.1,0.1-0.1,0l-0.2-0.1c0,0-0.1,0-0.1,0c-0.1,0-0.1,0-0.2,0h-0.4c0,0-0.1,0-0.1,0c0,0,0,0,0,0h-0.1
		c-0.1,0-0.1,0.1-0.1,0.1l-0.4,0.3c0,0-0.1,0-0.1,0.1c-0.1,0-0.1,0.1-0.1,0.1h0c0,0,0.1-0.1,0.2-0.1l-0.2,0.2c0,0,0,0,0,0.1v0
		c0,0,0,0.1,0,0.1l0,0c0,0.1,0,0.1-0.1,0.2c0,0,0-0.1,0-0.1c0,0-0.1,0.1-0.1,0.1c0,0,0,0.1,0,0.2v0.1c0,0.1,0,0.1,0,0.1
		c0,0.1,0,0.3,0,0.4l0,0.1c0,0.2,0.1,0.3,0.1,0.5c0,0.1,0.1,0.2,0.1,0.3c0,0.1,0.1,0.1,0.1,0.2c0.1,0.1,0.1,0.2,0.2,0.4l0.3,0.4
		c-0.1-0.1-0.1-0.2-0.1-0.2l0.2,0.3c0.1,0.1,0.2,0.2,0.3,0.3l0.1,0.1c1.3,0.9,2.8,1.5,4.3,2.2c1.5,0.7,3,1.5,4,2.7
		c1.1,1.3,1.9,2.9,2,4.7C220,54.8,219,56.6,217.4,57.5z M208.3,40.5c0-0.1,0-0.1,0-0.2C208.4,40.3,208.4,40.4,208.3,40.5z
		 M208.4,40.2C208.4,40.3,208.4,40.3,208.4,40.2L208.4,40.2C208.4,40.2,208.4,40.2,208.4,40.2z M209.6,43.3
		C209.6,43.3,209.7,43.4,209.6,43.3C209.6,43.3,209.4,43.1,209.6,43.3z M215,54.2c-0.1,0-0.2,0-0.3,0.1
		C214.8,54.2,214.9,54.2,215,54.2z M215.9,53.4C215.9,53.4,215.9,53.4,215.9,53.4C215.9,53.4,215.9,53.4,215.9,53.4z M215.9,53.2
		L215.9,53.2c0,0.1,0,0.1,0,0.2C215.9,53.4,215.9,53.3,215.9,53.2z M215.9,53.5C215.9,53.5,215.9,53.5,215.9,53.5
		C215.9,53.5,215.9,53.5,215.9,53.5z"/>
	<path class="st0" d="M247.2,53.7c-0.2,1.2-1.5,1.7-2.5,1.5c-3-0.6-5.4-2.6-7.8-4.5c-0.6-0.4-1.2-0.9-1.9-1.3
		c-0.3-0.2-0.7-0.4-1-0.6c-0.1-0.1-0.3-0.2-0.4-0.2c-0.1,0-0.3-0.1-0.3-0.1c-0.3-0.1-0.6-0.2-1-0.3c-0.1,0-0.1-0.1-0.1-0.1
		c-1.9,2.5-3.9,5-5.9,7.3c-0.7,0.8-1.9,0.8-2.6,0.2c-0.8-0.7-1-1.8-0.5-2.7l0.4-0.8c0.2-0.5,0.6-0.8,1.1-0.9
		c1.1-1.2,2.1-2.5,3.1-3.7c-0.1-0.2-0.2-0.4-0.3-0.7c-0.3-1.1,0.4-2.3,1.4-2.6c0.5-0.1,1-0.2,1.6-0.3l0.3-0.5c0.4-0.7,0.9-1.3,1.3-2
		c0.9-1.3,1.7-2.7,2.5-4.1c0.5-0.8,1.4-1.2,2.2-1c0.1-0.5,0.4-0.9,0.9-1.2c0.9-0.6,2.2-0.2,2.7,0.8c0.8,1.6,1.7,3.1,2.1,4.8
		c0.4,1.5,0.6,3.1,1.1,4.6c0.1,0.3,0.3,0.6,0.3,0.9c0-0.1,0-0.1,0-0.1c0,0.1,0.1,0.3,0.1,0.3c0.1,0.2,0.1,0.4,0.3,0.5
		c0.3,0.6,0.6,1.2,1,1.8l0.1,0.2c0.1,0.2,0.3,0.3,0.4,0.4l0.8,1.1C247.2,51.5,247.3,52.5,247.2,53.7z M233.5,48.6l-0.1,0
		C233.5,48.6,233.5,48.6,233.5,48.6z M240.2,48c-0.2-0.6-0.4-1.1-0.6-1.7c-0.4-1.5-0.6-3-1.1-4.5c-0.1-0.4-0.2-0.8-0.4-1.1
		c0,0,0-0.1,0-0.1c-0.1-0.2-0.2-0.4-0.3-0.6c-0.1-0.1-0.1-0.2-0.1-0.3c-1,1.6-2,3.2-3,4.8C236.6,45.4,238.4,46.7,240.2,48L240.2,48z
		"/>
	<path class="st0" d="M277.2,57.7c-0.3,0.2-0.6,0.3-1,0.4c-0.5,0.1-1-0.1-1.4-0.3c-1.8,0.1-3.8,0.1-5.4-1c-1-0.6-1.3-1.7-0.7-2.7
		c0.5-0.9,1.9-1.3,2.7-0.7c0.1,0.1,0.2,0.1,0.3,0.2c0.2,0.1,0.4,0.1,0.6,0.2l0.3,0.1c0.2,0,0.4,0,0.6,0h0c-1.3-5.1-2-10.4-2.3-15.6
		c-0.1-1,0.8-1.8,1.7-2c0-0.2,0-0.5,0.1-0.8c0.2-1,1.5-1.7,2.5-1.4c4.1,1.2,8.2,2.9,12,5.1c3,1.7,5.8,3.7,7.7,6.6
		c1,1.6,1.9,3.6,1.7,5.5c-0.2,2.1-1.5,3.9-3.5,4.9c-1.8,0.9-3.9,1.1-6,1.2c-2,0.1-3.9,0.2-5.9,0.3C279.9,57.6,278.6,57.6,277.2,57.7
		z M275,38.1c0.1,1.5,0.2,3,0.3,4.5c0.1,0.4,0.1,0.8,0.1,1.1l0.1,0.6c0,0,0,0.1,0,0.1v0.1c0.1,0.8,0.2,1.5,0.3,2.2
		c0.4,2.3,0.9,4.6,1.5,6.9c1.7-0.1,3.3-0.1,5-0.1c1.8-0.1,3.7-0.1,5.5-0.3c0.4,0,0.8-0.1,1.2-0.1c0.1,0,0.2,0,0.3-0.1
		c0.2,0,0.4-0.1,0.6-0.1c0.2-0.1,0.5-0.1,0.7-0.2l0.3-0.1c0.3-0.1,0.5-0.3,0.8-0.5c0,0,0.1-0.1,0.1-0.1c0.1-0.1,0.2-0.2,0.3-0.3
		l0.1-0.2c0.1-0.1,0.1-0.1,0.1-0.2c0-0.1,0.1-0.2,0.1-0.3V51c0-0.1,0-0.2,0-0.3v-0.2c-0.1-0.1-0.1-0.5-0.1-0.6
		c-0.1-0.3-0.1-0.5-0.2-0.7l-0.1-0.2c-0.1-0.3-0.3-0.6-0.4-0.9c-0.2-0.3-0.4-0.6-0.6-1c0,0,0,0,0-0.1l-0.1-0.1
		c-0.1-0.1-0.2-0.3-0.3-0.4c-0.5-0.6-1-1.1-1.6-1.5l-0.5-0.4l0,0l-0.1-0.1c-0.3-0.2-0.6-0.4-0.9-0.6c-1.3-0.9-2.7-1.7-4.1-2.4
		c-0.8-0.4-1.5-0.8-2.3-1.1c-0.4-0.2-0.8-0.4-1.3-0.6l-0.2-0.1c0,0,0,0-0.1,0c-0.2-0.1-0.4-0.2-0.6-0.2
		C277.7,39.1,276.4,38.6,275,38.1z M292.5,50.4L292.5,50.4C292.5,50.1,292.5,50.3,292.5,50.4z"/>
	<path class="st0" d="M307.6,40.1c-0.1,1.3-0.2,2.5-0.4,3.8c-0.6,5.7-0.6,4.8-1,10.5c-0.1,1.1-0.9,2-2,2c-1,0.1-2.1-1-2-2
		c0.1-1.3,0.3-2.5,0.4-3.8l1-10.5c0.1-1.1,0.8-1.9,2-2C306.6,38,307.7,39.1,307.6,40.1z"/>
	<path class="st0" d="M335.1,32.2c0.6,1,0.1,2.2-0.7,2.7c-2.2,1.6-4.6,2.9-7.3,3.8c-2.1,0.7-4.3,1-6.5,1.4c-0.1,0-0.1,0-0.2,0
		c-0.1,1.2-0.3,2.4-0.4,3.6c2.3-0.5,4.6-0.9,6.9-1.1c1.1-0.1,2,1,2,2c0.1,1.1-1,1.9-2,2c-0.7,0.1-1.3,0.1-2,0.2h-0.1
		c0,0-0.1,0-0.1,0l-0.5,0.1c-0.3,0.1-0.6,0.1-1,0.2c-1.3,0.2-2.5,0.5-3.7,0.9c-0.3,2.1-0.5,4.3-0.8,6.4c1.2-0.4,2.5-0.8,3.7-1.3
		c0.3-0.1,0.6-0.2,0.9-0.4c0.1-0.1,0.3-0.1,0.4-0.2c0.4-0.2,0.8-0.4,1.2-0.6c-0.2-0.3-0.4-0.6-0.6-1c-0.6-1-0.2-2.2,0.7-2.7
		c0.9-0.6,2.2-0.2,2.7,0.7c0.4,0.7,0.9,1.5,1.3,2.2c0.4,0.8,0.5,1.7,0.1,2.5c-0.3,0.5-0.8,0.9-1.2,1.2c-1.1,0.7-2.4,1.3-3.7,1.8
		c-2.4,1-5,1.7-7.5,2.5c-0.7,0.2-1.5,0-1.9-0.5c-0.6-0.5-0.6-1.2-0.5-1.9c0.1-0.8,0.2-1.5,0.3-2.3v0.1c0-0.1,0-0.3,0-0.3l0.1-0.6
		c0.1-0.4,0.1-0.8,0.1-1.1c0.2-1.5,0.4-3,0.6-4.5c0.4-3,0.7-6,1-9c0.1-1.1,0.8-2,2-2c0.3-0.3,0.6-0.6,1-0.7c2.2-0.4,4.3-0.7,6.4-1.4
		c0.5-0.2,1-0.3,1.5-0.5c0,0,0,0,0.1,0c0.1-0.1,0.3-0.1,0.4-0.2c0.3-0.1,0.5-0.3,0.8-0.4c1.3-0.7,2.5-1.4,3.7-2.3
		C333.3,30.8,334.5,31.4,335.1,32.2z M326.1,51.4c0.1-0.1,0.1-0.1,0.1-0.1C326.1,51.3,326.1,51.3,326.1,51.4z"/>
	<path class="st0" d="M356.1,38.7L356.1,38.7c-0.2,0-0.4,0.1-0.6,0.1c-0.5,0.1-0.9,0.2-1.4,0.3c-0.4,0.1-0.9,0.3-1.3,0.4l-0.7,0.3
		c0,0-0.2,0.1-0.2,0.1c0,0,0,0-0.1,0c-0.8,0.4-1.7,0.8-2.5,1.3c-0.3,0.2-0.6,0.4-0.9,0.6l-0.1,0.1c0,0,0,0,0,0c0,0,0,0-0.1,0
		l-0.1,0.1c-0.1,0.1-0.3,0.2-0.4,0.4c-0.6,0.5-1.1,1-1.6,1.6l-0.7,0.8c0,0.1-0.1,0.1-0.1,0.2c-0.1,0.1-0.2,0.3-0.3,0.4
		c-0.4,0.6-0.8,1.3-1.1,1.9c-0.2,0.3-0.3,0.6-0.5,1v0c0,0,0,0,0,0c0,0,0,0,0,0.1c0,0.1,0,0.1-0.1,0.2c-0.1,0.2-0.1,0.3-0.2,0.5
		c-0.1,0.3-0.2,0.7-0.3,1l-0.1,0.5c0,0.1,0,0.1,0,0.2c0,0.2,0,0.4,0,0.6c0,0.1,0,0.1,0,0.2l0.1,0.4c0,0,0,0.1,0,0.1l0.1,0.2
		c0.1,0.1,0.1,0.2,0.2,0.3c0.1,0,0.1,0.1,0.1,0.1l0.2,0.1c0.3,0.1,0.6,0.2,1,0.3c0.2,0,0.3,0,0.2,0c0,0-0.1,0-0.1,0c0,0,0.1,0,0.1,0
		h0.1c0,0,0,0,0,0c0.2,0,0.4,0,0.5,0c0.3,0,0.7,0,1.1,0c0.2,0,0.3,0,0.5,0c0.1,0,0.6-0.1,0.3,0l0,0c0.1,0,0.1,0,0.1,0
		c0.1,0,0.2,0,0.3-0.1l0.5-0.1c0.3-0.1,0.6-0.2,1-0.3l1-0.3c0,0,0,0,0,0l0,0h0l0,0c0.2-0.1,0.2-0.1,0.2-0.1c0.1-0.1,0.3-0.1,0.4-0.2
		c0.6-0.3,1.3-0.7,1.8-1.1l0.2-0.2c0.1-0.1,0.2-0.2,0.3-0.3c0.3-0.2,0.5-0.4,0.7-0.7l0.7-0.7h0h-0.1h0l-0.5,0.1
		c-0.3,0.1-0.7,0.1-1,0.2c-0.7,0.1-1.3,0.3-2,0.5c-1.1,0.3-2.2-0.4-2.5-1.4c-0.3-1.1,0.4-2.2,1.4-2.5c1.7-0.5,3.4-0.8,5.2-1
		c0.8-0.1,1.5-0.1,2.2,0.1c1,0.2,1.8,0.8,2.4,1.7c0.4,0.6,0.3,1.4,0,2.1c-1.7,3.5-4.8,6.1-8.5,7.5c-1.5,0.6-3.2,0.9-4.9,0.9
		c-2,0.1-4-0.3-5.6-1.7c-1.7-1.4-1.9-3.7-1.7-5.7c0.3-1.7,1-3.4,1.8-4.9c3.7-6.6,11-10.8,18.6-10.4c1.2,0.1,2,0.9,2.1,2.1
		c0,1.1-1,2.1-2.1,2c-0.9-0.1-1.8,0-2.8,0.1C356.4,38.6,356.3,38.6,356.1,38.7L356.1,38.7L356.1,38.7z M343.5,48.3L343.5,48.3
		L343.5,48.3z M348.4,41.9L348.4,41.9C348.4,41.9,348.3,42,348.4,41.9z M349.9,52.1L349.9,52.1L349.9,52.1z M354.5,48.6
		c0.1-0.1,0.1-0.1,0.1-0.1C354.6,48.5,354.5,48.6,354.5,48.6z"/>
	<path class="st0" d="M391.6,43.3c-0.5,2.5-1.8,4.7-3.4,6.6c-1.6,1.8-3.6,3.2-5.8,4.2c-2.3,1-4.9,1.7-7.4,1.4
		c-2.6-0.3-5.3-1.3-6.6-3.9c-1.1-2.3-1.1-5-0.3-7.3c0.9-2.4,2.4-4.4,4.5-5.8c1.1-0.7,2.5-1.3,3.9-1.5c0.8-0.6,1.7-1.3,2.6-1.8
		c1-0.5,2.1-1,3.2-1.3c2.6-0.8,5.9-0.9,7.8,1.4C391.9,37.5,392.1,40.6,391.6,43.3z M387.7,42c0.1-0.2,0.1-0.5,0.1-0.7v-0.9
		c0-0.1,0-0.2,0-0.3v0c-0.1-0.4-0.2-1-0.3-1.4c0-0.1,0-0.1,0-0.1c0,0,0,0.1,0,0.1c0,0,0-0.1-0.1-0.1c0,0,0,0,0-0.1
		c0-0.1-0.1-0.1-0.1-0.2c-0.1-0.1-0.1-0.1-0.1-0.2h0c-0.1-0.1-0.1-0.2-0.2-0.2c-0.1-0.1-0.3-0.1-0.4-0.2c0,0-0.1,0-0.1,0l-0.3-0.1
		c0.2,0.1-0.1,0-0.2,0h-0.6c-0.1,0-0.2,0-0.3,0h-0.1c-0.2,0-0.1,0.1,0,0.1c-0.2,0.1-0.5,0.1-0.6,0.1c-0.3,0.1-0.5,0.1-0.7,0.2
		c-0.4,0.1-0.8,0.2-1.2,0.4c-0.1,0.1-0.2,0.1-0.3,0.1l-0.2,0.1c0.1,0.2,0.1,0.3,0.1,0.5c0,0.5-0.3,1.1-0.6,1.5
		c-0.3,0.3-1,0.6-1.4,0.6c-0.6-0.1-1.1-0.1-1.7-0.1h-0.3c0.1,0,0.1,0,0,0c-0.1,0-0.2,0-0.2,0.1c-0.2,0.1-0.4,0.1-0.7,0.1l-0.8,0.3
		c-0.1,0-0.6,0.3-0.3,0.1c0.3-0.2-0.1,0.1-0.1,0.1c-0.3,0.1-0.5,0.3-0.7,0.4c-0.2,0.1-0.6,0.3-0.7,0.4c0.2-0.2,0.3-0.2,0.1-0.1
		l-0.2,0.1c-0.1,0.1-0.2,0.2-0.3,0.3c-0.2,0.2-0.4,0.4-0.6,0.6c-0.1,0.1-0.2,0.2-0.3,0.3c-0.1,0-0.4,0.5-0.4,0.6l-0.4,0.7
		c-0.1,0.1-0.1,0.3-0.2,0.4c-0.1,0.3-0.4,1.3-0.4,1.4c0,0.1,0,0.4-0.1,0.5c0,0.2,0,0.3,0,0.5c0,0.2,0,0.4,0,0.7v0.1
		c0,0.1,0,0.1,0,0.1c0.1,0.3,0.1,0.5,0.2,0.8c0,0,0,0.1,0.1,0.1c0,0,0,0,0,0.1c0,0,0,0.1,0,0.1c0,0,0,0.1,0,0.1c0,0,0,0,0,0
		c0.1,0.2,0.2,0.3,0.3,0.5c0.1,0.1,0.1,0.1,0.2,0.2c0.1,0.1,0.3,0.3,0.3,0.3c-0.2-0.2-0.3-0.2-0.1-0.1c0,0,0,0,0.1,0
		c0.2,0.1,0.4,0.3,0.6,0.3l0.2,0.1c-0.1,0-0.1-0.1-0.2-0.1c0,0,0.1,0.1,0.2,0.1c0.1,0,0.1,0.1,0.2,0.1c0.2,0.1,0.4,0.1,0.7,0.2
		l0.4,0.1c0.1,0,0.2,0,0.3,0.1c-0.1,0-0.2,0-0.3,0c0.2,0.1,0.5,0.1,0.7,0.1c0.5,0,1,0,1.5,0c0.1,0,0.3,0,0.4-0.1h0
		c0.3-0.1,0.5-0.1,0.7-0.1c0.5-0.1,1-0.2,1.4-0.4c0.3-0.1,0.5-0.2,0.8-0.3c0.1,0,0.2-0.1,0.3-0.1c0.4-0.2,0.9-0.4,1.3-0.7
		c0.4-0.3,0.9-0.6,1.3-0.9c0,0,0.1-0.1,0.1-0.1c0,0,0.1-0.1,0.1-0.1c0.2-0.1,0.3-0.3,0.5-0.4c0.4-0.3,0.7-0.7,1.1-1.1l0.4-0.5
		c0,0,0.1-0.1,0.1-0.1c0.1-0.1,0.1-0.1,0.1-0.2c0.3-0.4,0.6-0.8,0.8-1.3c0.1-0.2,0.2-0.4,0.3-0.6l0.1-0.1c0.1-0.1,0.1-0.2,0.1-0.3
		c0.2-0.5,0.3-1,0.4-1.6C387.6,42.2,387.6,42.1,387.7,42L387.7,42z M371.6,48.4c0,0,0-0.1,0-0.1L371.6,48.4z M371.9,49.4
		C371.9,49.4,371.9,49.4,371.9,49.4L371.9,49.4z M371.9,49.4c0,0,0.1,0.1,0.1,0.2l0,0C371.9,49.5,371.9,49.5,371.9,49.4z
		 M377.6,40.9c0.1,0,0.1,0,0.1,0c0,0,0.1,0,0.1,0C377.7,40.9,377.6,40.9,377.6,40.9z M387.3,38.5L387.3,38.5
		C387.3,38.5,387.3,38.5,387.3,38.5L387.3,38.5z M387.7,41.7c0,0.1,0,0.2,0,0.3C387.7,41.9,387.7,41.8,387.7,41.7z"/>
	<g>
		<path class="st0" d="M153.6,81.4v-8.2l-3.6,6.3h-0.6l-3.6-6.3v8.2h-1v-9.9h1l3.9,6.8l3.9-6.8h1v9.9H153.6z"/>
		<path class="st0" d="M164,71.5h0.8l4.1,9.9h-1l-1.3-3.1h-4.5l-1.3,3.1h-1L164,71.5z M166.4,77.5l-2-4.9l-2,4.9H166.4z"/>
		<path class="st0" d="M174.3,81.4v-9.9h4.2c0.4,0,0.8,0.1,1.2,0.3s0.7,0.4,0.9,0.7c0.3,0.3,0.5,0.6,0.6,1c0.1,0.4,0.2,0.8,0.2,1.1
			c0,0.4-0.1,0.7-0.2,1c-0.1,0.3-0.3,0.6-0.4,0.9s-0.4,0.5-0.7,0.7c-0.3,0.2-0.6,0.3-0.9,0.4l2.4,3.8h-1.1l-2.3-3.7h-2.9v3.7H174.3z
			 M175.3,76.9h3.2c0.3,0,0.6-0.1,0.8-0.2s0.4-0.3,0.6-0.5c0.2-0.2,0.3-0.5,0.4-0.7s0.1-0.6,0.1-0.9c0-0.3-0.1-0.6-0.2-0.9
			c-0.1-0.3-0.3-0.5-0.4-0.7c-0.2-0.2-0.4-0.4-0.6-0.5c-0.2-0.1-0.5-0.2-0.8-0.2h-3.2V76.9z"/>
		<path class="st0" d="M190.3,71.5h0.8l4.1,9.9h-1l-1.3-3.1h-4.5l-1.3,3.1h-1L190.3,71.5z M192.7,77.5l-2-4.9l-2,4.9H192.7z"/>
		<path class="st0" d="M200.6,81.4v-9.9h3.4c0.8,0,1.5,0.1,2.1,0.4c0.6,0.3,1.1,0.6,1.5,1.1c0.4,0.4,0.7,1,0.9,1.6
			c0.2,0.6,0.3,1.2,0.3,1.9c0,0.8-0.1,1.4-0.3,2.1c-0.2,0.6-0.5,1.1-1,1.6c-0.4,0.4-0.9,0.8-1.5,1c-0.6,0.2-1.2,0.4-2,0.4H200.6z
			 M207.8,76.4c0-0.6-0.1-1.1-0.3-1.6s-0.4-0.9-0.7-1.3c-0.3-0.4-0.7-0.6-1.2-0.8c-0.5-0.2-1-0.3-1.6-0.3h-2.4v8.2h2.4
			c0.6,0,1.2-0.1,1.6-0.3c0.5-0.2,0.9-0.5,1.2-0.9c0.3-0.4,0.6-0.8,0.7-1.3C207.7,77.6,207.8,77,207.8,76.4z"/>
		<path class="st0" d="M218.6,81.5c-0.7,0-1.3-0.1-1.9-0.4c-0.6-0.3-1.1-0.7-1.5-1.1c-0.4-0.5-0.7-1-1-1.6c-0.2-0.6-0.3-1.2-0.3-1.9
			c0-0.7,0.1-1.3,0.4-1.9s0.6-1.1,1-1.6c0.4-0.5,0.9-0.8,1.5-1.1s1.2-0.4,1.8-0.4c0.7,0,1.3,0.1,1.9,0.4s1.1,0.7,1.5,1.2
			c0.4,0.5,0.7,1,0.9,1.6c0.2,0.6,0.3,1.2,0.3,1.8c0,0.7-0.1,1.3-0.4,1.9c-0.2,0.6-0.6,1.1-1,1.6s-0.9,0.8-1.5,1.1
			C219.8,81.4,219.2,81.5,218.6,81.5z M214.9,76.4c0,0.5,0.1,1.1,0.3,1.6c0.2,0.5,0.4,0.9,0.8,1.3c0.3,0.4,0.7,0.7,1.2,0.9
			c0.4,0.2,0.9,0.3,1.5,0.3c0.6,0,1.1-0.1,1.5-0.4c0.5-0.2,0.8-0.6,1.2-1s0.6-0.8,0.7-1.3c0.2-0.5,0.3-1,0.3-1.5
			c0-0.5-0.1-1.1-0.3-1.6c-0.2-0.5-0.4-0.9-0.8-1.3c-0.3-0.4-0.7-0.7-1.2-0.9c-0.4-0.2-0.9-0.3-1.5-0.3c-0.6,0-1.1,0.1-1.5,0.4
			c-0.5,0.2-0.8,0.6-1.2,0.9c-0.3,0.4-0.6,0.8-0.7,1.3C215,75.4,214.9,75.9,214.9,76.4z"/>
		<path class="st0" d="M230,73.3v8.1h-1v-9.9h0.8l6.6,8.3v-8.3h1v9.9h-0.9L230,73.3z"/>
		<path class="st0" d="M246.8,71.5h0.8l4.1,9.9h-1l-1.3-3.1H245l-1.3,3.1h-1L246.8,71.5z M249.2,77.5l-2-4.9l-2,4.9H249.2z"/>
		<path class="st0" d="M264.2,81.4v-9.9h6.5v0.9h-5.5V76h4.7v0.8h-4.7v4.6H264.2z"/>
		<path class="st0" d="M278.3,71.5h0.8l4.1,9.9h-1l-1.3-3.1h-4.5l-1.3,3.1h-1L278.3,71.5z M280.7,77.5l-2-4.9l-2,4.9H280.7z"/>
		<path class="st0" d="M297.4,81.4v-8.2l-3.6,6.3h-0.6l-3.6-6.3v8.2h-1v-9.9h1l3.9,6.8l3.9-6.8h1v9.9H297.4z"/>
		<path class="st0" d="M304.8,81.4v-9.9h1v9.9H304.8z"/>
		<path class="st0" d="M312.2,81.4v-9.9h1v9.1h5.7v0.9H312.2z"/>
		<path class="st0" d="M322.7,71.5l3.2,5.3l3.3-5.3h1.1l-3.9,6.2v3.7h-1v-3.7l-3.8-6.2H322.7z"/>
		<path class="st0" d="M350.5,71.5v9.9h-1v-4.6h-5.9v4.6h-1v-9.9h1v4.4h5.9v-4.4H350.5z"/>
		<path class="st0" d="M360.9,81.5c-0.7,0-1.3-0.1-1.9-0.4c-0.6-0.3-1.1-0.7-1.5-1.1c-0.4-0.5-0.7-1-1-1.6c-0.2-0.6-0.3-1.2-0.3-1.9
			c0-0.7,0.1-1.3,0.4-1.9s0.6-1.1,1-1.6c0.4-0.5,0.9-0.8,1.5-1.1s1.2-0.4,1.8-0.4c0.7,0,1.3,0.1,1.9,0.4s1.1,0.7,1.5,1.2
			c0.4,0.5,0.7,1,0.9,1.6c0.2,0.6,0.3,1.2,0.3,1.8c0,0.7-0.1,1.3-0.4,1.9c-0.2,0.6-0.6,1.1-1,1.6s-0.9,0.8-1.5,1.1
			C362.2,81.4,361.6,81.5,360.9,81.5z M357.2,76.4c0,0.5,0.1,1.1,0.3,1.6c0.2,0.5,0.4,0.9,0.8,1.3c0.3,0.4,0.7,0.7,1.2,0.9
			c0.4,0.2,0.9,0.3,1.5,0.3c0.6,0,1.1-0.1,1.5-0.4c0.5-0.2,0.8-0.6,1.2-1s0.6-0.8,0.7-1.3c0.2-0.5,0.3-1,0.3-1.5
			c0-0.5-0.1-1.1-0.3-1.6c-0.2-0.5-0.4-0.9-0.8-1.3c-0.3-0.4-0.7-0.7-1.2-0.9c-0.4-0.2-0.9-0.3-1.5-0.3c-0.6,0-1.1,0.1-1.5,0.4
			c-0.5,0.2-0.8,0.6-1.2,0.9c-0.3,0.4-0.6,0.8-0.7,1.3C357.3,75.4,357.2,75.9,357.2,76.4z"/>
		<path class="st0" d="M380.1,81.4v-8.2l-3.6,6.3h-0.6l-3.6-6.3v8.2h-1v-9.9h1l3.9,6.8l3.9-6.8h1v9.9H380.1z"/>
		<path class="st0" d="M394.2,80.6v0.9h-6.7v-9.9h6.6v0.9h-5.6v3.6h4.9v0.8h-4.9v3.8H394.2z"/>
	</g>
</g>
<g>
	<g>
		<path class="st0" d="M107.7,61.3c0.3-0.4,0.3-0.5-0.4-0.8l0,0c-0.4-1.3-1.1-2.5-1.1-4c0-0.7-0.1-1.4-0.4-2.1
			c-0.2-0.5-0.4-0.9-0.7-1.4c-0.2-0.4,0-0.5,0.3-0.5c0.4-0.1,0.7-0.3,0.3-0.7c-0.2-0.2-0.3-0.4-0.5-0.6c-0.2-0.2-0.4-0.4-0.4-0.7
			c-0.1-0.2-0.3-0.5,0.1-0.6c0.3,0,0.5,0.2,0.8,0.2c0.4,0,0.7,0,0.4-0.5c-0.5-0.8-1.5-1.2-2.1-1.9c-0.3-0.4-0.6-0.7-0.5-1.2
			c0.1-0.8-0.3-1.1-1-0.7c-0.6,0.3-1.2,0.2-1.7-0.1l0-0.1l0,0.1c-0.1-0.4,0.2-0.4,0.4-0.5c0.3-0.2,0.9-0.1,0.9-0.6
			c0-0.4-0.6-0.5-0.8-0.7c-0.1-0.1-0.2-0.1-0.3-0.2c-0.4-0.4-0.5-1-0.6-1.5c-0.4-1.8-1.2-3.2-3.2-3.4c-0.4-0.4-0.9-0.1-1.3-0.4
			c0.4-0.4,0.8-0.8,1.1-1.3c0.5-0.2,0.6-0.6,0.4-1.1c-0.2-0.5-0.1-1.1-0.1-1.6c0.1-0.9-0.2-1.7-0.6-2.4c-0.2-1.2-1.1-1.7-2.1-2.1
			c-0.5-0.3-0.7,0.2-1,0.4c-0.1,0.1-0.2,0.2-0.3,0.2c-0.1,0.1-0.3,0.2-0.4,0.4c-0.2,0.1-0.5,0.1-0.6-0.1c-0.1-0.2,0.1-0.5,0.2-0.6
			l0,0c0.1-0.1,0.1-0.2,0-0.3c-0.2,0-0.4,0.1-0.6,0.1c-0.3,0.1-0.6,0.2-0.8,0.3c-0.1,0-0.2,0-0.4,0c-0.4-0.4-0.4-1.1-0.9-1.4
			c0.2,0,0.2-0.1,0.3-0.3c0-1.3-0.9-2-1.9-2.5c-0.5-0.4-1.1-0.5-1.7-0.5c-0.8,0-2,0.5-2-1c0-0.1-0.1-0.1-0.1-0.1
			c-1.1-0.4-1.4-1.4-1.9-2.3c-0.8-1.3-0.7-2.4-0.6-3.7c-0.6-1.8-1.9-3.2-3-4.7c-0.4-0.8-1.2-1.1-2-1.3c-0.9-0.2-1.8-0.2-2.6-0.7
			c-0.1-0.1-0.2-0.3-0.4-0.4c-0.4-0.4-0.9-0.9-1.3-1.3c-0.2-0.2-0.5-0.5-0.7-0.7C71.5,9.1,71.2,9,71,8.9c-0.9-0.4-1.9-0.9-2.9-1
			c-0.3,0-0.7,0-1,0.1c-0.5,0.1-1.1,0.3-1.6,0.4c-0.4,0.3-0.8,0.2-1.3,0.3c-0.8-0.1-1.3-0.6-2-1c-0.1,0.1,0.1-0.1-0.1-0.1
			c-0.1,0.1-0.1,0,0.1,0c0.2,0,0.3,0.1,0.4,0.1c0.2,0.1,0.5,0.2,0.7,0.1c0.3-0.2,0.8-0.3,0.8-0.8c-0.2-0.4-0.7-0.2-1-0.4
			c-0.2-0.1-0.4-0.2-0.6-0.4c0-0.3-0.2-0.4-0.4-0.5c-0.2-0.1-0.3-0.2-0.4-0.4c-0.3-0.7-0.7-1.1-1.5-1.1c-0.9-0.1-1.8-0.1-2.5-0.6
			c-1.1-0.8-2.3-1-3.6-0.9c-0.9,0-1.9-0.1-2.9-0.2c-0.2,0-0.4-0.1-0.4-0.3c-0.1-0.6-0.2-1.2-0.8-1.6c-0.6-0.7-1.4-0.8-2.3-0.6
			c-0.6,0.2-1.3,0.2-2,0.3c-1.4,0.2-2.8,0.3-3.6,1.7c-0.1,0.2-0.4,0.3-0.6,0.4c-1.6,0.2-2.9,1.1-4,2.1C37.4,4.8,37,5,36.7,5.2
			c-1,0.4-2,0.1-3.1,0.2c-0.5,0-1.1-0.1-1.4,0.5c-0.3,0.1-0.6,0.2-0.9,0.4l0,0c-0.3,0-0.5,0.3-0.7,0.6c-0.2,0.2-0.3,0.3-0.5,0.5
			c-0.4,0.5-1.1,0.7-1.4,1.4c-0.4,0.8-0.7,1.6-1.1,2.4c-0.1,0.3-0.2,0.7-0.6,0.7c-2.2,0.3-4.3,1.4-6.4,2c-0.9,0.2-1.7,0.4-2.4,1
			c-0.1,0.2,0,0.3,0.2,0.4c0.7,0,1.5-0.1,2.2,0c0.7,0.1,0.9,0.3,0.4,0.9c-0.5,0.3-1,0.3-1.5,0.5c-1.2,0.3-2.2,1-3.1,1.8
			c-0.2,0.3-0.5,0.3-0.8,0.1c-0.1-0.1-0.2-0.3-0.3-0.4c-0.4-0.9-0.7-0.3-1,0.1c-0.2,0.7-0.1,1.4,0.1,2.1c0.4,1.1,0.4,1.2-0.8,1.7
			c-0.5,0.3-0.9,0.7-1.3,1c-0.1,0.1-0.1,0.2-0.2,0.3c-0.2,0.4-0.5,0.5-0.9,0.6c-0.2,0-0.4-0.1-0.6,0.1c-0.3,0.4-1,0.2-1.3,0.5
			c-0.3,0.3,0.2,0.3,0.3,0.5c0,0,0,0,0,0c0.4,0.2,0.8,0.1,1,0.4l0,0c0.2,0.2,0.6,0.2,0.7,0.5c0.1,0.2,0.4,0.4,0.6,0.5l0,0
			c0.4,0.5,0,0.8-0.2,1.3c0,0,0,0,0,0c-0.2-0.2-0.2-0.4-0.4-0.5c-0.5-0.1-0.3,0.6-0.8,0.6c-0.1,0-0.2-0.1-0.4-0.1
			c-0.3,0-0.6-0.2-0.8,0C9.4,28,9.9,28.2,10,28.5c0.1,0.5,0.8,0.8,0.4,1.4c-0.6,0.4-0.7,1-0.6,1.6c0.1,0.7-0.1,1.4-0.5,2
			c-0.6,0.8-0.7,1.6-0.4,2.6c0.4,1.3,0,1.9-1.4,1.5c-1.8-0.4-2.9,0.2-3.9,1.6c-1,1.4-2.2,2.7-3.3,4c-0.7,0.5-0.3,1.1,0,1.7
			c0.2,0.4,0.4,0.9,0.6,1.3c0,0,0,0,0,0c0.1,1.1,0.7,2,1.3,2.9c0.3,0.6,0.7,1,1,1.5C3.6,51.1,3.8,51.5,4,52c0.2,0.3,0.1,0.7,0.1,1.1
			c0,0.4-0.3,0.3-0.5,0.2c-0.3-0.1-0.5-0.3-0.6-0.6c-0.3-0.3-0.4-0.1-0.5,0.1c-0.1,0.5-0.1,1,0.3,1.5c0.2,0.4-0.1,0.5-0.3,0.7
			c-0.6,0.5-1.6,0.8-1.8,1.7c-0.3,1.7-0.6,3.4,0.5,5c0.6,0.8,1.4,1.2,2.2,1.8c0.5,0.4,0.6,0.6,0,0.9c-0.8,0.4-1.4,0.8-0.9,1.8
			c0.1,0.2-0.1,0.3-0.3,0.3c-0.4,0.2-0.6,0.4-0.7,0.8c-0.1,0.4-0.3,0.7-0.8,0.5l0,0c-0.5,0-0.6,0.2-0.5,0.6c0.2,0.7,0.3,1.5,0.6,2.2
			c0.1,0.3,0.2,0.5,0.5,0.6c0,0.2,0.2,0.3,0.4,0.4c0.6,0.3,1.1,0.6,1.4,1.1C3,72.9,3.2,72.9,3.3,73c0.4,0.7,0.8,1.5,1.5,1.8
			C5.5,75,6,75.5,6.4,76.1c0,0,0.1,0,0.1,0c0,0,0,0,0,0.1c0.3,0.5,0.6,1,0.7,1.6c0.1,0.8,0.4,1.5,1.4,1.5c0.2,0,0.1,0.3,0,0.4
			c-0.8,0.9-0.8,2.2-1.3,3.2c-0.6,1.2-0.1,2.6-0.5,3.8c-0.1,0.3,0,0.5,0.4,0.6c0.5,0.1,0.4,0.5,0.3,0.8c-0.2,0.5-0.4,0.7-0.8,0.2
			c-0.3-0.2-0.4-0.6-0.9-0.5c-0.3,0.6,0.2,1,0.2,1.5c0.2,0.3,0.6,0.2,0.8,0.4c0.2,0.1,0.6,0,0.6,0.5c-0.1,0.8,0.1,1.5-0.1,2.3
			c0,0,0,0,0,0c0.1,1.1,0.3,2.3,0.4,3.4c0.1,0.8,0,1.6,0.5,2.4c1,1.3,2.3,2.3,2.9,3.8c0.2,0.2,0.3,0.5,0.5,0.7
			c0.4,0.5,1,0.7,1.3,1.3c-0.8,0.1-0.9-0.7-1.5-0.7c-0.2,0.2-0.2,0.5-0.1,0.7c0.2,0.3,0.5,0.6,0.7,1c0.1,0.1,0.1,0.2,0.2,0.2
			c0.5,0.2,1.1,0.2,1.7,0.2c0.8-0.1,0.3,1,0.9,1.2c1.3,0.5,2.5,1.3,3.8,1.8l0,0c0.1,0.1,0.2,0.2,0.3,0.4c0.3,0.3,0.6,0.6,0.9,1
			c0.5,0.6,1,1,1.4,1.6c0.3,0.3,0.6,0.5,1,0.7c0.2,0.2,0.4,0.2,0.7,0.3c0.9,0.3,1.1,0.2,1.1-0.8c0-0.1,0-0.2,0-0.3
			c0-4.3,0-8.6,0-12.9c0-0.3-0.2-0.8,0.2-1c0.8,0.2,0.9-0.2,0.6-0.8c-0.1-0.3-0.3-0.5-0.5-0.8c-0.3-0.4-0.5-0.8-0.7-1.2
			c-0.8-1.3-1.4-2.7-1.7-4.2c-0.5-0.8-0.1-1.9-0.7-2.7c-0.1-0.1-0.2-0.1-0.3-0.1c-0.3-0.1-0.6-0.1-1,0c-0.7,0.1-1.3-0.2-1.9-0.4
			c-1.3-0.5-2.2-1.3-2.7-2.6c-0.5-1.3-0.8-2.6-1.2-3.9c0-0.3,0.2-0.4,0.4-0.3c0.3,0,0.6,0.1,0.7-0.3c0-0.5-0.1-0.9-0.1-1.4
			c0-0.1,0-0.2,0-0.3c0-1-0.1-2,0.2-3c0.2-0.7,0.6-1.4,1.4-1.5c0.9-0.1,0.8,0.8,1.1,1.4c0,0.1,0,0.1,0.1,0.2
			c0.1,0.3,0.1,0.8,0.5,0.8c0.4,0,0.6-0.4,0.7-0.7c0.1-0.3,0.1-0.7,0.1-1c0.1-0.8-0.2-1.7-0.2-2.5c0-1.1,0-2.2-0.2-3.4
			c-0.1-0.7-0.1-1.5,0.3-2.1c0.3-0.5,0.6-1,0.9-1.5c0.3-0.4,0.5-0.8,0.7-1.2c0.2-0.4,0.3-0.9,0.3-1.3c0.1-1-0.2-2.1,0.2-3
			c0.4-1.1,0.4-2.3,0.1-3.4c-0.2-0.8-0.4-1.6-0.6-2.4c-0.1-0.6-0.7-1.2-0.2-1.8c0.5-0.7,1.1-1.4,2-1.6c0.2,0.2,0.4,0.4,0.7,0.3
			c0.4-0.3,0.6-0.7,1-1c0.1-0.2,0.2-0.3,0.3-0.5c0.2-0.3,0.5-0.7,0.8-1c0.2-0.2,0.4-0.3,0.6-0.4c0.7-0.5,1.4-0.8,2.1-1.3
			c0.3-0.2,0.5-0.4,0.8-0.7c0.2-0.2,0.4-0.3,0.5-0.5c1.1-1.4,2.2-3,3.6-4.2c0.1-0.1,0.1-0.1,0.2-0.2c0.7-0.4,0.5,0.3,0.7,0.5
			c0,0.1,0.1,0.2,0.2,0.2c0.2,0.2,0.4,0.3,0.7,0.2c0.4-0.1,0.7-0.4,0.9-0.6c0.2-0.1,0.3-0.2,0.5-0.3c0.4-0.3,0.6-0.8,1.2-1.1
			c0.2,0.3,0.3,0.8,0.7,1c0.6,0.5,1.4,0.8,2,1.3c0.4,0.2,0.7,0.4,1.2,0.5c2.7-0.1,5.4,0.5,7.9-1.1c0.2-0.1,0.5-0.4,0.8-0.3
			c-0.1,1.1-0.1,1.1,1.1,0.9c0.1,0,0.2-0.1,0.3-0.1c0.5-0.2,1-0.3,1.5-0.3c0.3-0.1,1.7-1.3,2.4-1.4c2.2-0.3,4.3,0,6.4,0.6
			c0.5,0.2,1,0.2,1.5,0.1c0.6-0.1,0.9,0.2,1,0.7c0.2,0.5,0.3,1,0.1,1.5c-0.2,0.5,0,0.9,0.3,1.3c0.4,0.3,0.6,1,1.1,0.8
			c0.5-0.2,0.7,0,1,0.3c1.5,1.2,2.9,2.6,4.9,3c0.1,0.1,0.3,0.2,0.4,0.3c0.6,1.6,1.8,2.9,2.5,4.4c0.1,0.2,0.2,0.4,0.3,0.5
			c0.7,2.2,0.8,4.5,1.8,6.6c0.1,0.5,0.3,0.9,0.5,1.4c0.4,1.1,0.9,2.1,1.3,3.2c0.3,0.5,0.3,1,0.4,1.5c0.3,0.7,0.4,1.5,0.8,2.1
			c0.6,1.2,0.4,2.5,1,3.8c0.5,1.1,0.7,2.3,2,2.7c0.1,0,0.2,0.1,0.3,0.2c0.3,0.2,0.7,0.2,1,0.2c0.3,0.1,0.5,0.2,0.5,0.6
			c-0.2,0.9,0.1,2-0.8,2.8c-0.4,0.4-0.4,0.9,0.3,1.1c1.2,0,2.2-0.5,3.3-0.9c0.3-0.1,0.5-0.5,0.9-0.5c0.1,0-0.2,0.6-0.2,0.8
			c0,0.3-0.3,0.6-0.3,0.8c0.2,0.4,0.6,0.2,0.9,0.1c0.2,0,0.4-0.4,0.7-0.1c0.1,0.2,0,0.4-0.1,0.6c-0.5,0.9-0.7,1.9-1.4,2.6
			c-0.9,1.3-2,2.3-3.6,2.7c-0.2,0.1-0.4,0.2-0.6,0.2c-0.9,0.2-1.9,0.3-2.8,0.3c-1.7,0-2.2,0.6-1.8,2.3c0.1,0.3,0.2,0.5,0.3,0.8
			c0,0.1,0.1,0.1,0.1,0.2c-0.1,0.3-0.1,0.7-0.1,1.1c0,0.5,0,1-0.2,1.5c-0.3,2.8-0.4,5.5-0.7,8.3c0,1.5,0,3,0,4.5
			c0,0.5-0.1,1,0.4,1.4c0.3,0.5,0.1,1,0.2,1.5c0.1,0,0.1,0,0.2,0c0,0,0,0.1-0.1,0.1c0,0.2,0,0.3,0,0.5c0.2,0.2,0.1,0.4,0.1,0.6
			c0,1,0.4,1.4,1.3,1.7c-0.1,0.1-0.1,0.3-0.1,0.3c-0.2,0.5,0.4,1.1,0.6,1.2c0.4,0.1,1.2-1,1.1-1.8c0-0.2-0.1-0.4,0-0.7
			c0.1-0.3,0.5-0.4,0.8-0.5c0.9,0.3,1.6,1,2.6,1c0.5,0.3,1.2,0.5,1.6,0.9c0.8,0.3,1.5,0.6,2.2,0.6c0,0,0,0,0,0c0.2,0,0.4,0,0.6,0
			c0,0,0,0,0,0c0,0,0,0,0,0c0.3,0,0.7-0.1,1.1-0.2c1.2-0.4,2.1-1.2,3.1-1.8c-0.1-0.3-0.3-0.5-0.4-0.8l0,0c-0.3-0.3-0.4-0.7-0.7-0.9
			l0.1-0.1c0.3,0.1,0.7,0.2,1-0.1c0.3-0.6,0.8-1,1.3-1.4c0.3-0.3,0.3-0.6-0.1-0.9c-0.3-0.3-1.1-0.5-0.7-1.2c0-0.1,0.1-0.2,0.1-0.3
			c0.2-1.1,0.2-2.1,0-3.2c-0.2-0.9-0.1-1.6,0.3-2.4c0.1-0.2,0.3-0.5,0.2-0.8c-0.2-0.3-0.5-0.5-0.6-0.8c-0.1-0.7,0.2-1.5-0.3-2.2
			c-0.3-0.1-0.6,0-0.9,0.1c-0.3,0.1-0.5,0.1-0.6-0.2c-0.1-0.3,0.1-0.5,0.3-0.6c0.4-0.2,0.7-0.2,1.1-0.4c0.1,0,0.2-0.2,0.3,0
			c-0.1,0.2-0.1,0.4,0,0.6c0.2,0.3,0.4,0.1,0.6-0.1c0.2-0.2,0.4-0.4,0.6-0.7c0.3-0.2,0.5-0.5,0.9-0.6c0.3-0.1,0.6-0.3,0.8-0.6
			c0.1-0.1,0.2-0.2,0.3-0.1c0.1-0.2,0.3-0.3,0.5-0.5c-0.1-0.4-0.1-0.8-0.2-1.2c-0.1-0.9,1.2-1.2,1.5-2.1c-0.7-0.1-1.5-0.1-1.5-1.1
			c-0.1-0.4-0.3-0.8-0.5-1.2c-0.5-0.7-0.4-1.2,0.3-1.7c0.4-0.1,0.5-0.4,0.3-0.7c-0.6-0.8-0.3-1.6-0.1-2.5c0.2-0.6,0.9-0.7,1.2-1.3
			c0.9-2,2.4-3.5,3.7-5.1c0,0,0,0,0,0c0.1,0.1,0.1,0.2,0.2,0.2c0.2-0.1,0.4-0.3,0.6-0.2c0,0.1,0,0.2,0,0.2c0.3,0.1,0.6,0.2,0.8,0
			c0.5-0.1,0.8-0.5,1.1-0.9c0.2-0.2,0.2-0.6,0.5-0.8c0.1-0.1,0.2-0.2,0.3-0.3c0.9-1.3,0.7-3,1.1-4.4c0.2-0.7,0.2-1.4-0.2-2
			C106.3,65.1,106.7,63.2,107.7,61.3z M2.8,65.9c0,0.1,0,0.1,0,0.2C2.8,66,2.8,65.9,2.8,65.9z M4,63C4,63,3.9,63,3.9,63c0,0,0,0,0,0
			C3.9,62.9,4,62.9,4,63z M4.7,72.7c0.4,0.1,0.4,0.5,0.7,0.6c0,0,0,0,0,0.1c0,0,0,0.1,0,0.1c-0.2-0.2-0.4-0.4-0.5-0.7
			c0,0.1,0,0.1,0.1,0.2l0.5,0.5c0,0.1,0,0.1,0,0.2C5,73.4,4.6,73.2,4.7,72.7z M89.2,31c-0.8-0.5-0.4-1.2-0.3-1.8
			c0.1-0.4,0.2-0.4,0.5-0.4c-0.2,0.1-0.2,0.2-0.3,0.3c0,0,0,0,0,0c-0.1,0.1-0.1,0.3,0,0.5l0-0.1c0,0.4,0.1,0.8,0.4,1.1
			c0.1,0.1,0.3,0.3,0.2,0.4C89.4,31.3,89.3,31.1,89.2,31z M79,102.5c-0.1,0.2-0.1,0.5-0.1,0.7C78.8,102.9,78.8,102.7,79,102.5z
			 M89.8,112c0-0.1,0-0.1,0-0.2c0.1,0,0.2,0.1,0.3,0.1C90,112,89.9,112,89.8,112z M93,108.5C92.9,108.5,92.9,108.5,93,108.5
			c-0.1,0-0.1,0-0.2-0.1c0,0,0,0,0-0.1c0,0,0,0,0,0.1c0,0-0.1,0-0.1,0c0,0.1-0.1-0.1,0,0c0,0,0.1,0,0.1,0c0,0,0,0,0,0c0,0,0,0,0,0
			c0.1,0,0.2,0,0.3,0C93.1,108.4,93,108.5,93,108.5z M105,73.9c-0.1,0.3-0.3,0.5-0.5,0.7c-0.2,0.2-0.4,0.3-0.6,0.6
			c0-0.1,0-0.1,0-0.2c0.4-0.4,0.1-1.2,0.7-1.4C104.8,73.6,105.3,73.3,105,73.9z"/>
	</g>
	<g>
		<path class="st0" d="M89.6,31c-0.3-0.4-0.5-0.8-0.6-1.3c0,0,0,0,0-0.1l-0.2,0.7C89,30.5,89.3,30.7,89.6,31z"/>
	</g>
</g>
</svg>
