<svg width="46" height="99" viewBox="0 0 46 99" fill="none" xmlns="http://www.w3.org/2000/svg">
<g clip-path="url(#clip0_239_494)">
<path d="M45.5801 97.5099C45.5801 96.81 45.5801 96.0999 45.5801 95.3999C45.5801 93.8299 45.5801 92.1999 45.5201 90.6099C45.4401 88.7599 44.2101 87.2599 42.3001 86.6999C41.9501 86.5999 41.5601 86.4799 41.2501 86.2199C37.2301 82.8699 34.43 79.1999 32.6701 74.9999C30.3901 69.5599 29.9801 63.7099 31.4201 57.1099C32.9401 50.1199 36.1201 43.3299 41.1201 36.3499C44.8701 31.1199 46.2701 25.3299 45.2701 19.1199C44.2701 12.8699 40.8401 7.47994 35.6101 3.93994C30.3201 0.359945 23.9501 -0.830055 17.6901 0.579945C10.2901 2.24994 4.24005 7.55994 1.52005 14.7899C-1.18995 21.9899 -0.159946 29.9399 4.27005 36.0399C8.53005 41.8999 11.5301 47.8299 13.4401 54.1699C14.8801 58.9399 15.3301 63.3899 14.8001 67.7499C14.0401 74.0799 11.3501 79.5799 6.80005 84.0799L6.68005 84.1999C5.79005 85.0799 4.79005 86.0699 3.60005 86.5499C1.00005 87.6 0.0300532 88.9299 0.0100532 91.4599C0.0100532 92.2999 0.0100532 93.14 0.0100532 93.9799C0.0100532 95.02 0.0100532 96.0699 0.0100532 97.1099C5.32391e-05 97.9999 0.250053 98.4899 0.880053 98.7899H44.7201C45.3201 98.4699 45.5901 98.0699 45.5901 97.4899L45.5801 97.5099ZM28.0401 3.10994C34.4601 4.56994 41.6401 10.6399 42.9301 19.4399L43.0101 19.9999L42.4501 20.0199C42.3201 20.0199 42.1901 20.0199 42.0601 20.0199C38.4101 20.0199 36.2801 18.5699 35.3601 15.4799C35.2401 15.0599 35.0801 14.6499 34.9201 14.2399C34.84 14.0299 34.7501 13.8099 34.6701 13.5899C33.9701 11.6599 32.9101 10.5099 31.3501 9.94994C30.1701 9.52994 29.2601 8.62994 28.7101 7.32994C28.3701 6.53994 28.1101 5.73994 27.8301 4.88994C27.7101 4.51994 27.5901 4.13994 27.4501 3.74994L27.1601 2.89994L28.0401 3.09994V3.10994ZM3.02005 17.6799C4.64005 11.8399 8.07005 7.53994 13.5001 4.54994L14.1201 4.20994L14.2301 4.90994C14.3101 5.41994 14.4001 5.90995 14.4901 6.37994C14.6801 7.42994 14.8601 8.41994 14.9401 9.42994C15.1001 11.3399 14.1901 12.0999 12.7901 12.6499C12.5401 12.7499 12.2901 12.8299 12.0301 12.9199C11.3601 13.1499 10.7401 13.3699 10.2601 13.7399C9.36005 14.4499 8.57005 15.3499 8.05005 16.2499C7.12005 17.8799 6.62005 18.4299 5.04005 18.4299C4.77005 18.4299 4.47005 18.4099 4.14005 18.3899C4.01005 18.3799 3.88005 18.3599 3.72005 18.3399L2.85005 18.2299L3.01005 17.6699L3.02005 17.6799ZM8.78005 85.3699C8.91005 85.1899 9.03005 85.0299 9.17005 84.8899C14.4001 79.3799 17.1101 72.7499 17.2201 65.1699C17.2901 60.4199 17.2901 55.5799 17.2901 50.8999V46.4599C17.2901 45.4699 16.9201 44.9499 16.1801 44.9299C15.1901 44.8699 14.9901 45.7499 14.9701 46.4799C14.9701 46.6499 14.9701 46.8299 14.9701 46.9999C14.9701 47.1499 14.9701 47.2999 14.9701 47.4399C14.9701 47.6399 14.9601 47.8399 14.9501 48.0099L14.8501 49.9699L14.0001 48.3699C13.4801 47.3999 12.9801 46.4299 12.4701 45.4499C11.3201 43.2499 10.1301 40.9699 8.88005 38.7799C8.26005 37.6899 7.54005 36.6199 6.85005 35.5799C6.09005 34.4399 5.30005 33.2499 4.62005 32.0299C2.85005 28.8299 2.12005 25.1899 2.44005 21.2199L2.48005 20.7599H3.72005C4.26005 20.7599 4.77005 20.7599 5.29005 20.7599C7.50005 20.7099 8.99005 19.7799 9.74005 18.0099C10.4101 16.4099 11.5401 15.4299 13.3001 14.9299C15.1001 14.4099 16.3701 13.2899 17.0601 11.6099C17.4901 10.5599 17.5301 9.40994 17.2001 7.87994C17.0101 6.98994 16.8101 6.10994 16.6101 5.18994L16.2201 3.44994L16.6401 3.30994C19.1401 2.44994 21.7801 2.12994 24.4501 2.36994L24.8001 2.39994L24.8901 2.72994C25.0301 3.22994 25.1601 3.72994 25.2801 4.21994C25.5601 5.28994 25.8201 6.28994 26.1601 7.26994C27.0201 9.69994 28.5101 11.3299 30.7301 12.2499C31.5201 12.5799 32.0301 13.4199 32.1601 13.6699C32.4801 14.2599 32.6901 14.8899 32.8901 15.4999L33.0601 16.0099C34.5001 20.1599 37.2201 22.1799 41.6301 22.3599C41.8501 22.3599 42.0701 22.3799 42.3701 22.3999L43.4001 22.4599L43.3301 22.9899C43.2701 23.4499 43.2201 23.9099 43.1701 24.3599C43.0601 25.3399 42.9501 26.3599 42.7401 27.3499C42.2001 29.9199 41.1601 32.2699 39.6601 34.3499C36.5001 38.7399 33.8801 43.4099 31.8801 48.2299C31.6501 48.7699 31.3401 49.3299 30.9201 49.9299C26.5101 56.2299 23.7401 62.3699 22.4601 68.6899C22.0901 70.5299 21.9301 72.4699 21.7801 74.3399L21.6701 75.6899C21.6301 76.1499 21.7201 76.5199 21.9401 76.7799C22.1201 76.9899 22.4001 77.1199 22.7301 77.1399C23.0401 77.1599 23.3201 77.0699 23.5301 76.8799C23.7901 76.6499 23.9401 76.2899 23.9501 75.8299C24.1101 72.1099 24.5801 69.0499 25.4401 66.2099C25.9301 64.5999 26.5401 62.9199 27.4201 60.7799L28.6701 57.7599L28.3801 61.0199C27.5301 70.5999 30.3601 78.6399 37.0301 85.5899L37.8401 86.4399H7.95005L8.78005 85.3699ZM43.2601 96.4399H2.40005V95.9399C2.40005 95.4299 2.40005 94.91 2.40005 94.41C2.40005 93.1799 2.38005 91.9099 2.43005 90.6699C2.47005 89.7399 3.15005 89.0499 4.21005 88.8799C4.51005 88.8299 4.79005 88.8399 5.07005 88.8399H5.26005H40.3601C42.5801 88.8399 43.2601 89.5199 43.2701 91.7499C43.2701 92.6999 43.2701 93.6499 43.2701 94.6299V96.4399H43.2601Z" fill="#756F6F"/>
<path d="M36.91 28.6399C37.16 28.2399 37.2799 27.7999 37.2299 27.6499C37.1 27.2699 36.7 26.8499 36.33 26.6799C35.75 26.4199 35.32 26.8999 35.1199 27.2099C33.8899 29.0899 32.53 30.3799 30.83 31.2599L29.79 31.7999L30.12 30.6799C31.26 26.7399 30.3899 23.7499 27.4599 21.5099C24.8599 19.5299 22.0099 19.3099 19.2099 20.8599C15.5399 22.8999 14.29 26.1999 15.49 30.6899L15.79 31.8199L14.77 31.2599C13.12 30.3599 11.82 29.1599 10.6899 27.4699C10.37 26.9899 9.99995 26.6999 9.62995 26.6299C9.56995 26.6199 9.51995 26.6099 9.45995 26.6099C9.25995 26.6099 9.04995 26.6799 8.84995 26.8199C8.07995 27.3499 8.37995 28.1899 8.77995 28.7999C9.84995 30.4499 11.2 31.7999 12.81 32.7999C17.51 35.7399 22.68 36.3699 28.62 34.7299C32.19 33.7499 34.9799 31.6999 36.91 28.6399ZM22.86 33.2599C22.8 33.2599 22.75 33.2599 22.69 33.2599C21.2 33.2099 19.77 32.5499 18.76 31.4599C17.77 30.3899 17.26 29.0099 17.33 27.5899C17.4799 24.5199 19.9099 22.2199 22.9599 22.3199C24.4499 22.3699 25.83 22.9999 26.84 24.0899C27.82 25.1399 28.33 26.4999 28.27 27.9199C28.16 30.8999 25.74 33.2699 22.85 33.2699L22.86 33.2599Z" fill="#756F6F"/>
<path d="M26.1799 91.51C25.4499 91.53 24.9999 91.97 25.0099 92.68C25.0199 93.61 25.7899 93.78 26.2399 93.79C26.9699 93.82 27.7099 93.81 28.4399 93.81H29.4399H30.3899C31.1399 93.81 31.8899 93.82 32.6399 93.8C33.4199 93.77 33.8999 93.37 33.9299 92.71C33.9399 92.4 33.8399 92.12 33.6399 91.9C33.4299 91.67 33.1299 91.54 32.7799 91.53C30.6099 91.47 28.3899 91.46 26.1799 91.53V91.51Z" fill="#756F6F"/>
<path d="M15.7698 91.61C15.0198 91.67 15.0098 92.47 15.0198 92.71C15.0598 93.33 15.3698 93.68 15.9498 93.74C16.3398 93.78 16.7398 93.77 17.1498 93.76C17.3498 93.76 17.5598 93.74 17.7398 93.76C17.9398 93.76 18.1498 93.76 18.3598 93.77C18.7998 93.78 19.2298 93.79 19.6398 93.75C20.2298 93.69 20.5398 93.35 20.5798 92.73C20.5898 92.49 20.5798 91.69 19.8498 91.62C18.5298 91.5 17.1598 91.5 15.7698 91.62V91.61Z" fill="#756F6F"/>
</g>
<defs>
<clipPath id="clip0_239_494">
<rect width="45.58" height="98.81" fill="white"/>
</clipPath>
</defs>
</svg>
