<svg width="36" height="36" viewBox="0 0 36 36" fill="none" xmlns="http://www.w3.org/2000/svg">
<g clip-path="url(#clip0_311_26)">
<path d="M35.9996 18.1096C35.9996 8.10607 27.9401 -0.00292969 17.9996 -0.00292969C8.05462 -0.000679688 -0.00488281 8.10607 -0.00488281 18.1118C-0.00488281 27.1501 6.57862 34.6426 15.1826 36.0016V23.3453H10.6151V18.1118H15.1871V14.1181C15.1871 9.57982 17.8759 7.07332 21.9866 7.07332C23.9576 7.07332 26.0164 7.42657 26.0164 7.42657V11.8816H23.7461C21.5119 11.8816 20.8144 13.2788 20.8144 14.7121V18.1096H25.8049L25.0084 23.3431H20.8121V35.9993C29.4161 34.6403 35.9996 27.1478 35.9996 18.1096Z" fill="white"/>
</g>
<defs>
<clipPath id="clip0_311_26">
<rect width="36" height="36" fill="white"/>
</clipPath>
</defs>
</svg>
