<?xml version="1.0" encoding="utf-8"?>
<!-- Generator: Adobe Illustrator 28.0.0, SVG Export Plug-In . SVG Version: 6.00 Build 0)  -->
<svg version="1.1" id="Capa_1" xmlns="http://www.w3.org/2000/svg" xmlns:xlink="http://www.w3.org/1999/xlink" x="0px" y="0px"
	 viewBox="0 0 33.3 20.9" style="enable-background:new 0 0 33.3 20.9;" xml:space="preserve">
<style type="text/css">
	.st0{fill:#2E4593;}
	.st1{fill:#FCF5FF;}
	.st2{fill:#F42525;}
	.st3{fill:#FFFFFF;}
	.st4{fill:#CD002A;}
</style>
<g>
	<g>
		<g>
			<polygon class="st0" points="33.3,0 33.3,20.9 33.3,20.9 0,20.9 0,0 			"/>
		</g>
	</g>
	<g>
		<g>
			<g>
				<polygon class="st1" points="33.3,18.7 33.3,20.9 33.3,20.9 29.8,20.9 19.6,14.5 18.6,13.8 17.4,13.1 17,12.8 15.7,12.1 
					15.3,11.8 14.9,11.5 14.1,11 13.9,10.9 13.5,10.7 9.9,8.4 8.2,7.4 0,2.2 0,0 0,0 0.1,0 3.5,0 13.9,6.5 14.9,7.2 15.2,7.4 
					16.8,8.4 17,8.5 17.6,8.9 18.6,9.5 18.7,9.6 19.6,10.1 20.4,10.7 22.7,12.1 24.3,13.1 				"/>
			</g>
		</g>
		<g>
			<g>
				<polygon class="st2" points="33.3,20.8 33.3,20.9 31.1,20.9 19.6,13.7 18.6,13.1 18.6,13 17.6,12.4 17,12.1 15.9,11.4 
					14.9,10.7 14.8,10.7 14.1,10.3 13.9,10.1 11.1,8.4 9.5,7.4 0,1.4 0,0 0,0 0.1,0 11.8,7.4 13.4,8.4 13.9,8.7 14.9,9.3 15.3,9.5 
					15.9,9.9 17.1,10.7 18.6,11.6 18.7,11.7 19.3,12.1 19.6,12.2 20.9,13.1 				"/>
			</g>
		</g>
	</g>
	<g>
		<g>
			<g>
				<polygon class="st1" points="33.3,0.4 33.3,2.6 25.7,7.4 24.1,8.4 20.4,10.7 19.6,11.2 18.7,11.7 18.6,11.8 18.2,12.1 
					17.6,12.4 17,12.8 16.6,13.1 14.9,14.1 13.9,14.8 4.1,20.9 0,20.9 0,19.1 9.6,13.1 11.3,12.1 13.5,10.7 13.9,10.4 14.1,10.3 
					14.9,9.8 15.3,9.5 17,8.5 17.1,8.4 18.6,7.5 18.8,7.4 19.6,6.8 30.5,0 33,0 				"/>
			</g>
		</g>
		<g>
			<g>
				<polygon class="st2" points="33.2,0.5 22.3,7.4 20.7,8.4 19.6,9.1 18.7,9.6 18.6,9.7 17.1,10.7 15.9,11.4 15.3,11.8 14.9,12 
					14.8,12.1 13.9,12.6 13.2,13.1 0.8,20.9 0,20.9 0,19.9 10.9,13.1 12.5,12.1 13.9,11.2 14.1,11 14.8,10.7 14.9,10.6 15.9,9.9 
					17.6,8.9 18.4,8.4 18.6,8.3 19.6,7.6 20,7.4 31.7,0 32.9,0 33.3,0 33.3,0.5 				"/>
			</g>
		</g>
	</g>
	<g>
		<g>
			<rect x="0" y="7.4" class="st3" width="33.3" height="5.7"/>
		</g>
	</g>
	<g>
		<g>
			<rect x="0" y="8.4" class="st2" width="33.3" height="3.7"/>
		</g>
	</g>
	<g>
		<g>
			<rect x="14.9" y="0" class="st4" width="3.7" height="20.9"/>
		</g>
	</g>
	<g>
		<g>
			<g>
				<polygon class="st3" points="18.6,13.1 19.6,13.1 19.6,20.9 13.9,20.9 13.9,13.1 14.9,13.1 14.9,7.4 13.9,7.4 13.9,0 19.6,0 
					19.6,7.4 18.6,7.4 				"/>
			</g>
		</g>
		<g>
			<g>
				<rect x="14.9" y="0" class="st2" width="3.7" height="20.9"/>
			</g>
		</g>
	</g>
</g>
</svg>
