<svg width="105" height="89" viewBox="0 0 105 89" fill="none" xmlns="http://www.w3.org/2000/svg">
<g clip-path="url(#clip0_239_419)">
<path d="M4.89333 12.9895C4.89333 14.7483 4.89333 16.507 4.89333 18.2782C4.89333 19.0337 4.85608 19.8635 3.83774 19.8264C2.91876 19.7892 2.88151 19.0089 2.88151 18.3029C2.88151 16.0859 2.84425 13.8813 2.89392 11.6642C2.91876 10.6858 2.67039 9.93024 2.0122 9.17471C0.186651 7.08154 0.261163 4.29477 2.08671 2.52362C2.55862 2.06535 3.06779 1.73094 3.66388 2.26352C4.24756 2.78372 4.01161 3.30392 3.57695 3.8365C2.3475 5.35993 2.38476 6.5985 3.71356 8.1467C10.9661 16.5813 18.2186 25.0036 25.4835 33.4258C27.5078 35.7791 29.5196 38.1447 31.5687 40.4608C32.5373 41.5508 34.0524 41.749 35.1949 41.0554C36.2878 40.3989 36.8715 39.0365 36.4368 37.8103C36.2133 37.191 35.7786 36.6213 35.3315 36.1135C27.2718 26.7376 19.1997 17.3616 11.1275 7.98569C10.817 7.61412 10.3824 7.27971 10.2458 6.8586C10.134 6.48703 10.2458 5.89252 10.4942 5.62003C10.6804 5.42186 11.3014 5.52095 11.6615 5.66958C11.9596 5.79343 12.1707 6.165 12.4066 6.43749C20.6402 15.9868 28.8614 25.5485 37.095 35.0979C39.1441 37.4759 39.0447 40.4237 36.859 42.2815C34.6982 44.127 31.755 43.743 29.7059 41.3526C29.1594 40.7209 28.613 40.1017 27.8927 39.2718V63.3867C29.5817 63.2257 31.2706 63.0647 33.1086 62.8913C33.1086 61.1696 33.0465 59.3985 33.1458 57.6521C33.1831 57.0452 33.506 56.364 33.9034 55.881C34.5492 55.1131 35.3812 54.5186 36.0891 53.8002C36.8466 53.0199 37.4179 53.2304 38.2623 53.8126C40.6219 55.4351 41.6154 57.5283 41.1683 60.3646C41.0069 61.343 41.1559 62.3711 41.1435 63.3743C41.1311 64.7863 40.9324 64.9968 39.529 64.9968C36.5858 64.9968 33.6426 64.9968 30.6869 64.9968C29.0849 64.9968 28.2156 65.7152 28.2156 67.0033C28.2156 68.2666 29.1098 69.0469 30.6869 69.0469C40.0134 69.0469 49.3274 69.0469 58.6538 69.0469C60.1813 69.0469 61.15 68.2171 61.1376 66.9909C61.1376 65.7647 60.1689 64.9968 58.6166 64.9968C54.2949 64.9968 49.9856 64.9968 45.6639 64.9968C45.341 64.9968 44.9436 65.1083 44.7076 64.9597C44.3227 64.7243 44.037 64.3156 43.7017 63.9688C44.0495 63.6592 44.3723 63.1018 44.7325 63.077C46.0861 62.9656 47.4646 63.0399 49.0293 63.0399C49.0293 61.244 49.0666 59.5347 49.0169 57.8131C48.9797 56.8966 49.2156 56.203 49.9732 55.6209C50.7307 55.0264 51.4137 54.3328 52.1092 53.6639C52.7053 53.0818 53.289 53.0447 53.9099 53.6268C54.7916 54.4566 55.7354 55.2245 56.5427 56.1163C56.8531 56.4507 57.0146 57.0328 57.027 57.5159C57.0767 59.3118 57.0518 61.1201 57.0518 63.0399C57.8218 63.0399 58.4551 63.0275 59.0885 63.0399C61.3487 63.1018 63.05 64.7243 63.1121 66.8794C63.1866 69.0841 61.5225 70.8676 59.2499 71.0162C58.5669 71.0658 57.8839 71.0162 57.1387 71.0162V74.4842C57.7224 74.4842 58.3061 74.4718 58.8898 74.4842C61.3735 74.5585 63.1245 76.243 63.1121 78.5219C63.1121 80.8009 61.3487 82.4358 58.8401 82.4853C58.2813 82.4977 57.7224 82.4853 57.1139 82.4853V85.9162H65.5214C65.571 84.8882 65.571 83.8478 65.6952 82.8321C66.0429 80.033 67.5456 78.0265 70.0293 76.6765C70.3895 76.4783 70.8117 75.9581 70.8117 75.5742C70.8614 68.5763 70.849 61.566 70.8366 54.5681C70.8366 54.4195 70.7869 54.2585 70.7496 53.9488C68.7751 53.9488 66.8129 53.924 64.8508 53.9488C62.2056 53.9984 59.6349 53.6392 57.1512 52.6855C45.8998 48.3629 41.367 34.7139 47.8496 24.632C47.8744 24.5948 47.8868 24.5577 47.9117 24.5329C48.3215 23.9384 48.7065 23.1457 49.6006 23.7031C50.4823 24.248 49.9483 24.9045 49.6254 25.5733C48.8927 27.0472 48.0607 28.4963 47.5888 30.0569C44.3351 40.9315 52.4693 51.868 63.8573 51.9671C66.1423 51.9919 68.4398 51.9671 70.8614 51.9671C70.8614 48.4 70.8862 44.9568 70.8366 41.5012C70.8366 41.1421 70.464 40.7333 70.1784 40.4361C68.2535 38.4791 66.3037 36.5594 64.3664 34.6148C62.7023 32.9428 62.6154 30.7133 64.118 29.2518C65.5959 27.8151 67.7443 27.939 69.396 29.5615C69.8182 29.9702 70.1908 30.4285 70.5882 30.862C70.6875 30.8 70.7869 30.7505 70.8862 30.6886C70.8862 29.9454 70.8614 29.1899 70.8862 28.4468C70.9607 26.5146 72.5131 25.016 74.4007 24.9912C76.2884 24.9664 77.9028 26.4279 77.9525 28.3848C78.027 31.1221 77.9773 33.8593 77.9897 36.5965C77.9897 37.03 77.9897 37.4635 77.9897 38.2686C78.6976 37.5626 79.1943 37.0796 79.6911 36.5965C81.3179 35.0359 83.4415 34.9369 84.8945 36.3488C86.3723 37.7979 86.3227 40.0274 84.7455 41.6251C82.9572 43.4334 81.2186 45.2789 79.3309 46.9881C78.2754 47.9418 77.791 48.9574 77.9773 50.357C78.0394 50.8276 77.9773 51.3107 77.9773 51.9795C79.778 51.9795 81.4918 51.9795 83.2056 51.9795C83.9755 51.9795 84.7579 51.8928 85.4906 52.0538C85.8383 52.1281 86.3102 52.6607 86.3227 52.9951C86.3227 53.3048 85.7887 53.8869 85.4782 53.8993C82.6591 53.9736 79.8277 53.986 77.0086 53.8993C76.6609 53.8993 76.0772 53.2181 76.0524 52.8217C75.9406 51.2611 75.9531 49.6882 76.0524 48.1152C76.0772 47.6693 76.4498 47.1615 76.7851 46.8147C78.9335 44.6224 81.1068 42.4673 83.2801 40.3122C83.9507 39.6434 84.2736 38.925 83.7023 38.058C83.1435 37.2034 82.0382 37.1291 81.1937 37.9342C80.1133 38.9622 79.1074 40.0645 78.0021 41.0677C77.6668 41.365 76.9962 41.6499 76.6609 41.5012C76.3256 41.365 76.04 40.6838 76.0276 40.2379C75.9779 36.5346 76.0027 32.8313 76.0027 29.128C76.0027 27.716 75.4687 27.0224 74.4256 27.0224C73.3824 27.0224 72.8484 27.7284 72.8484 29.1404C72.8484 30.4285 72.8981 31.7166 72.8111 33.0047C72.7863 33.4506 72.5131 34.1318 72.1778 34.2556C71.8301 34.3795 71.1843 34.0946 70.8366 33.785C69.8927 32.9675 69.0483 32.0386 68.1665 31.1592C67.0985 30.1064 66.192 29.9702 65.4593 30.7381C64.7762 31.4565 64.9253 32.3854 65.8939 33.3639C67.9182 35.3827 69.9176 37.4264 71.9915 39.4081C72.6248 40.0274 72.8484 40.659 72.8484 41.526C72.8235 52.5121 72.836 63.4981 72.836 74.4842C72.836 74.9177 72.836 75.3512 72.836 75.8343H76.0027V74.5585C76.0027 70.2483 76.0027 65.9505 76.0027 61.6403C76.0027 61.2811 75.9034 60.8352 76.0772 60.5751C76.3132 60.2283 76.7354 59.8444 77.1204 59.8072C77.3812 59.7825 77.7786 60.2903 77.94 60.6494C78.0767 60.9467 77.9897 61.3554 77.9897 61.727C77.9897 66.2725 78.0021 70.8181 77.9897 75.376C77.9897 76.0572 78.176 76.4288 78.8218 76.7632C81.7029 78.2371 83.1186 80.6523 83.2304 83.8601C83.2552 84.7024 83.2428 85.5446 83.2304 86.3992C83.218 87.7616 82.9945 87.9722 81.5787 87.9846C81.4173 87.9846 81.2558 87.9846 81.0944 87.9846C54.7419 87.9846 28.3895 87.9846 2.02462 87.9846C1.20498 87.9846 -0.0244669 88.3437 0.000370503 86.9813C0.0252079 85.7304 1.19256 86.1019 1.98736 86.04C2.22332 86.0276 2.45927 86.04 2.91876 86.04C2.91876 85.4827 2.91876 84.9872 2.91876 84.4794C2.91876 70.9543 2.91876 57.4292 2.91876 43.9164C2.91876 43.1114 2.68281 41.9719 3.89984 41.9471C5.14171 41.9224 4.91817 43.0618 4.91817 43.8793C4.91817 57.3673 4.91817 70.8428 4.91817 84.3308C4.91817 84.851 4.91817 85.3712 4.91817 85.9657H25.8561V84.7271C25.8561 69.1584 25.8561 53.5772 25.8312 38.0085C25.8312 37.4511 25.6946 36.7699 25.3469 36.3736C18.7774 28.6821 12.1707 21.0278 5.57636 13.3611C5.45217 13.2124 5.36524 13.0266 5.26589 12.8532C5.14171 12.9152 5.02994 12.9771 4.90575 13.039L4.89333 12.9895ZM49.0418 85.9905C49.0418 84.6404 49.0418 83.3895 49.0418 82.1509C49.0418 80.7637 49.2777 80.5284 50.6438 80.516C53.2269 80.516 55.8099 80.516 58.393 80.516C60.1813 80.516 61.1376 79.81 61.1251 78.5096C61.1251 77.2091 60.1689 76.5155 58.3806 76.5031C58.2564 76.5031 58.1447 76.5031 58.0205 76.5031C49.1039 76.5031 40.1872 76.5031 31.2582 76.5031C30.7739 76.5031 30.2771 76.4907 29.8052 76.5774C28.5634 76.8003 27.8555 78.1008 28.3274 79.2527C28.7372 80.2435 29.5568 80.5284 30.5752 80.5284C35.2943 80.516 40.0134 80.5284 44.7449 80.5284C45.4776 80.5284 46.3469 80.4541 46.3842 81.4821C46.4214 82.634 45.4776 82.4977 44.7201 82.5101C43.5651 82.5225 42.4102 82.5101 41.2304 82.5101V85.9905H49.0169H49.0418ZM81.1441 85.9781C81.4545 82.9064 80.9826 80.2931 78.176 78.6582C75.9158 77.3453 71.8549 77.6054 69.9052 79.1288C67.9182 80.677 67.0985 83.3276 67.8188 85.9781H81.1565H81.1441ZM52.8667 55.5837C52.2706 56.2649 51.2275 56.909 51.1033 57.6893C50.8301 59.3985 51.0163 61.1696 51.0163 62.9408H55.0897C55.0897 61.8013 54.9779 60.7361 55.1145 59.7205C55.3753 57.8627 54.6923 56.5498 52.8667 55.5837ZM39.1689 62.978C39.1689 61.7394 39.0447 60.5627 39.1937 59.4357C39.4545 57.6026 38.5976 56.5003 37.0081 55.5837C36.3995 56.2525 35.344 56.8966 35.2198 57.6769C34.9466 59.3861 35.1328 61.1696 35.1328 62.9903H39.1689V62.978ZM48.9797 71.1029H41.218V74.4099H48.9797V71.1029ZM27.8927 82.1633V85.9286H33.0589V82.6587C31.3079 82.4853 29.6314 82.3243 27.8927 82.1633ZM33.0713 71.202C31.2458 71.0038 29.5568 70.8305 27.93 70.6571V74.8806C29.7059 74.6948 31.3824 74.5214 33.0713 74.3356V71.202ZM35.1825 82.572V85.9533H39.082V82.572H35.1825ZM51.1033 82.5968V85.9409H55.04V82.5968H51.1033ZM35.1949 74.4223H39.1068V71.1153H35.1949V74.4223ZM51.0908 71.1153V74.4347H55.0276V71.1153H51.0908Z" fill="#756F6F"/>
<path d="M91.3647 16.928C91.0542 10.6237 84.9442 2.1148 74.6491 2.01572C63.7579 1.91663 57.797 10.9581 57.5859 16.928C59.014 16.928 60.5167 16.6679 61.8703 16.99C63.5965 17.3987 65.2358 18.2285 66.8378 19.0212C67.1855 19.1946 67.496 20.0988 67.3469 20.4703C67.0737 21.1515 66.3783 21.0401 65.807 20.6437C63.0501 18.6744 60.0696 18.2781 56.8407 19.3185C55.7479 19.6776 55.3008 19.1698 55.3381 17.857C55.5368 10.6733 60.8147 3.68778 68.0051 1.12395C79.3558 -2.93854 91.6876 4.4433 93.3765 16.3211C93.4883 17.151 93.8857 17.5349 94.5935 17.9065C101.175 21.4612 104.777 27.0099 104.938 34.4413C105.1 41.9346 101.697 47.632 95.2393 51.4964C94.9661 51.6574 94.6556 51.9299 94.3824 51.9051C93.9974 51.8679 93.451 51.7069 93.2896 51.422C93.1406 51.1496 93.2896 50.5674 93.5255 50.2826C93.7739 49.9605 94.2582 49.7995 94.6308 49.5766C105.845 42.9007 105.683 26.6384 94.4942 20.0121C90.6941 17.7579 84.8821 20.0244 83.2305 23.0218C82.8951 23.641 82.535 24.2232 81.765 23.8268C80.8833 23.3562 81.1565 22.5883 81.5663 21.9566C83.3671 19.1822 86.0246 17.7331 89.2287 17.1881C89.9365 17.0643 90.6568 17.0147 91.3647 16.928Z" fill="#756F6F"/>
<path d="M10.047 48.3504C10.047 45.3407 10.0843 42.3186 10.0346 39.3089C10.0098 38.1447 10.4941 37.7359 11.6242 37.7483C14.1203 37.7855 16.6289 37.7855 19.1251 37.7483C20.2428 37.7359 20.7395 38.157 20.7271 39.3089C20.7023 45.3779 20.7271 51.4468 20.7147 57.5282C20.7147 58.8535 20.4166 59.1383 19.063 59.1383C16.6041 59.1507 14.1452 59.1507 11.6863 59.1383C10.3078 59.1383 10.0719 58.8906 10.0594 57.5282C10.0594 54.4689 10.0594 51.4221 10.0594 48.3628L10.047 48.3504ZM12.1085 49.1679V57.0204H18.6283V49.1679H12.1085ZM18.6407 47.1119V39.8291H12.0837V47.1119H18.6407Z" fill="#756F6F"/>
<path d="M89.9738 87.972C89.1294 87.972 88.2601 88.0711 87.4404 87.9348C87.0554 87.8729 86.7574 87.3279 86.4097 87.0059C86.745 86.6839 87.0803 86.1018 87.4404 86.077C89.1666 85.9779 90.9052 85.9779 92.6314 86.077C92.9667 86.1018 93.4511 86.6839 93.5256 87.0802C93.5752 87.3156 92.9792 87.8729 92.619 87.9348C91.7497 88.0587 90.8556 87.972 89.9614 87.972H89.9738Z" fill="#756F6F"/>
</g>
<defs>
<clipPath id="clip0_239_419">
<rect width="104.944" height="88.0273" fill="white"/>
</clipPath>
</defs>
</svg>
