<svg width="96" height="76" viewBox="0 0 96 76" fill="none" xmlns="http://www.w3.org/2000/svg">
<g clip-path="url(#clip0_239_443)">
<path d="M36.2803 72.4764C36.2503 72.5964 36.2203 72.6964 36.2103 72.7864C36.0903 75.0764 36.0503 75.1164 33.7903 75.1164C31.3503 75.1164 28.9203 75.1164 26.4803 75.1164C25.1103 75.1164 24.7703 74.7564 24.7603 73.3664C24.7603 69.4364 24.7603 65.5064 24.7603 61.5764C24.7603 57.4364 25.9303 55.8364 29.9503 54.6164C29.9503 52.3164 29.9403 49.9864 29.9503 47.6564C29.9503 47.0164 29.9603 46.3464 30.1203 45.7264C30.6803 43.5564 32.5503 42.0864 34.8403 42.0764C42.0203 42.0464 49.2002 42.0664 56.3802 42.0764C57.8802 42.0764 59.1302 42.7064 60.2402 43.7964C61.5802 42.2964 63.2803 42.0464 65.1302 42.0564C71.6903 42.0964 78.2603 42.0664 84.8203 42.0764C88.3803 42.0764 90.3803 44.0664 90.3903 47.6164C90.3903 49.9464 90.3903 52.2864 90.3903 54.6364C90.9603 54.7664 91.4703 54.8364 91.9603 54.9864C94.2302 55.6964 95.8703 57.8264 95.8903 60.2564C95.9303 64.7364 95.9103 69.2264 95.8903 73.7064C95.8903 74.7064 95.4802 75.1364 94.4603 75.1364C91.6003 75.1564 88.7402 75.1464 85.8802 75.1364C84.9802 75.1364 84.4903 74.6864 84.4803 73.7664C84.4803 73.3764 84.4803 72.9864 84.4803 72.5064H36.2603L36.2803 72.4764ZM84.4803 60.7064C84.5103 58.2064 85.5303 56.3864 87.6903 55.2264C87.9103 55.1064 88.0402 54.6464 88.0502 54.3464C88.0802 52.0764 88.0703 49.7964 88.0603 47.5264C88.0603 45.3564 87.0703 44.3864 84.8903 44.3864C78.1003 44.3864 71.3203 44.3864 64.5303 44.3864C62.3703 44.3864 61.4003 45.3764 61.4003 47.5564C61.4003 51.6464 61.4003 55.7364 61.4003 59.8264C61.4003 60.1064 61.4303 60.3864 61.4503 60.7064H84.4803ZM59.0603 60.6964C59.0603 56.2264 59.0603 51.8464 59.0603 47.4664C59.0603 45.3664 58.0703 44.3864 55.9403 44.3864C51.4603 44.3864 46.9802 44.3864 42.4902 44.3864C40.0202 44.3864 37.5503 44.3664 35.0803 44.3864C33.4303 44.3964 32.3503 45.3664 32.3103 46.8964C32.2603 49.3964 32.2803 51.8964 32.3103 54.3964C32.3103 54.6264 32.4803 54.9864 32.6703 55.0764C35.0603 56.1664 36.1502 58.0864 36.2402 60.6864H59.0502L59.0603 60.6964ZM36.2503 69.9964H84.4403V63.1464H36.2503V69.9964ZM93.5403 72.7164C93.5403 68.3864 93.6003 64.1164 93.5103 59.8464C93.4803 58.4664 92.2103 57.3364 90.8703 57.0764C88.7203 56.6564 86.8803 58.2264 86.8603 60.5764C86.8303 64.4064 86.8503 68.2264 86.8603 72.0564C86.8603 72.2764 86.9202 72.4864 86.9603 72.7164H93.5502H93.5403ZM33.8603 72.7164C33.8603 68.4764 33.8903 64.3564 33.8303 60.2464C33.8203 59.5864 33.4703 58.8564 33.0803 58.2964C32.2603 57.1364 30.7603 56.7564 29.4203 57.2064C28.0103 57.6864 27.1303 58.8864 27.1203 60.4764C27.1003 64.3364 27.1203 68.1964 27.1203 72.0564C27.1203 72.2664 27.1703 72.4864 27.2003 72.7164H33.8603Z" fill="#756F6F"/>
<path d="M10.9202 72.7766C13.4002 72.7766 15.8002 72.7766 18.2002 72.7766C20.0002 72.7766 20.5802 73.0465 20.6002 73.9165C20.6202 74.8065 19.9802 75.1166 18.1402 75.1166C12.7802 75.1166 7.42017 75.1166 2.06017 75.1166C1.74017 75.1166 1.41017 75.1366 1.09017 75.0866C0.430171 74.9966 -0.00983302 74.6165 0.000166982 73.9365C0.010167 73.2065 0.460169 72.7966 1.19017 72.7966C3.20017 72.7766 5.22017 72.7865 7.23017 72.7865C7.61017 72.7865 8.00017 72.7865 8.53017 72.7865C8.53017 72.2865 8.53017 71.8866 8.53017 71.4765C8.53017 54.1565 8.53017 36.8466 8.53017 19.5266C8.53017 12.9666 10.9602 7.53655 16.2102 3.56655C25.7402 -3.62345 39.2802 0.506562 43.6302 11.9266C44.3602 13.8466 44.7002 15.9166 45.2602 18.0766C47.1602 18.3766 49.0802 19.1666 50.7002 20.6166C53.5802 23.2066 54.4202 26.5266 54.1402 30.2366C54.0802 31.0066 53.5102 31.3165 52.7602 31.3165C51.4602 31.3165 50.1602 31.2866 48.8602 31.3366C48.5702 31.3466 48.1502 31.6066 48.0202 31.8666C47.1902 33.5266 45.9302 34.5365 44.0502 34.5365C42.1702 34.5365 40.9102 33.5166 40.0902 31.8566C39.9602 31.5966 39.5402 31.3466 39.2402 31.3366C37.8102 31.2866 36.3802 31.3065 34.9502 31.3165C34.1602 31.3165 33.6002 30.9865 33.5402 30.1565C33.2502 25.8465 34.4602 22.1465 38.2402 19.7165C39.5202 18.8965 41.0502 18.4566 42.7202 17.7366C42.4202 16.4266 42.2202 14.8365 41.6702 13.3765C39.2602 7.00654 34.7802 3.10655 27.8502 2.42655C21.1902 1.77655 14.6302 6.01655 12.1202 12.6966C11.4102 14.5766 10.9402 16.6665 10.9202 18.6565C10.8302 36.4565 10.8602 54.2565 10.8602 72.0665C10.8602 72.2565 10.8902 72.4466 10.9102 72.7966L10.9202 72.7766ZM51.8302 28.9166C51.8502 25.5666 50.6202 22.9765 47.7502 21.3765C44.9002 19.7865 41.9902 19.9266 39.3002 21.7766C36.8502 23.4566 35.8002 25.8965 35.8802 28.9065H51.8302V28.9166ZM42.5302 31.3366C43.6202 32.4866 44.8102 32.4366 45.4402 31.3366H42.5302Z" fill="#756F6F"/>
<path d="M37.6504 26.1865C37.8004 25.7865 37.8304 25.5265 37.9604 25.3765C38.8104 24.4565 39.6404 23.5165 40.5604 22.6665C41.0804 22.1865 41.7304 22.2965 42.1804 22.8665C42.6404 23.4565 42.4704 23.9965 41.9704 24.5065C41.2404 25.2365 40.5804 26.0365 39.8104 26.7065C39.5004 26.9765 38.9204 27.1765 38.5404 27.0765C38.1804 26.9865 37.9204 26.4765 37.6504 26.1865Z" fill="#756F6F"/>
</g>
<defs>
<clipPath id="clip0_239_443">
<rect width="95.9133" height="75.148" fill="white"/>
</clipPath>
</defs>
</svg>
