<svg width="100" height="100" viewBox="0 0 100 100" fill="none" xmlns="http://www.w3.org/2000/svg">
<g clip-path="url(#clip0_239_474)">
<path d="M1.43156 67.05C0.43156 67.06 0.021547 67.48 0.011547 68.48C-0.00845299 70.36 0.00154701 72.24 0.011547 74.13C0.011547 75.26 0.401546 75.65 1.54155 75.65C4.04155 75.65 6.54154 75.65 9.10154 75.65H12.1116H12.4916V97.25C12.4916 98.72 12.8016 99.04 14.2416 99.04H84.8816C86.2616 99.04 86.5915 98.7 86.5915 97.31V75.65H90.5716C92.7416 75.65 94.9816 75.64 97.1916 75.67C98.0916 75.66 98.6516 75.47 99.0716 74.93V67.77C98.6516 67.23 98.1216 67.02 97.1916 67.03C94.9816 67.07 92.7415 67.06 90.5815 67.05H86.6515V27.42L87.9115 27.99C88.3815 28.2 88.8315 28.41 89.2815 28.61C89.7815 28.83 90.2316 28.88 90.5616 28.75C90.8216 28.65 91.0215 28.44 91.1615 28.13C91.5215 27.29 90.8716 26.76 90.2616 26.46C82.5216 22.71 74.1815 20.03 65.4515 18.5C65.3815 18.49 65.3115 18.47 65.2215 18.44L64.8115 18.33V6.19L65.6216 6.62C65.7616 6.69 65.8716 6.75999 65.9916 6.81999C66.7416 7.17999 67.3615 7.04 67.7015 6.44C67.8715 6.14 67.9215 5.81999 67.8415 5.53999C67.7515 5.23999 67.5316 4.99 67.1916 4.81C66.7816 4.6 66.3715 4.36999 65.9615 4.14999C64.4915 3.34999 62.9716 2.52999 61.3916 2.01999C59.6016 1.43999 57.7016 1.04999 55.8616 0.679993C55.0416 0.509993 54.2216 0.339988 53.4016 0.159988C53.2416 0.119988 53.0816 0.0799933 52.9316 0.0399933L52.7915 0H47.8115C47.1915 0.12 46.5816 0.229996 45.9616 0.339996C44.5816 0.589996 43.1515 0.839993 41.7815 1.17999C39.0415 1.85999 36.4016 2.99 33.6816 4.64C32.7916 5.18 32.5316 5.79 32.9216 6.45C33.0616 6.68 33.4716 7.39 34.8016 6.73C34.9016 6.68 35.0016 6.63 35.1216 6.58L35.8215 6.25V18.05L35.5216 18.11C34.6416 18.3 33.7615 18.47 32.8815 18.65C30.9815 19.04 29.0216 19.43 27.1216 19.89C21.0416 21.33 14.8615 23.56 8.75154 26.49C8.26154 26.73 7.49155 27.26 7.92155 28.18C8.33155 29.05 9.14156 28.92 9.74156 28.64C10.2016 28.43 10.6616 28.22 11.1516 27.98L12.3916 27.4V67.05H4.73155C3.63155 67.05 2.53156 67.05 1.43156 67.05ZM18.6516 96.61H14.9016V92.85H18.6516V96.61ZM14.9115 90.36V86.58H18.6416V90.36H14.9115ZM18.6516 84.17H14.9216V80.39H18.6516V84.17ZM18.7015 77.87H14.9216V75.7H18.7015V77.87ZM77.9316 96.59H21.1315V88.16H77.9316V96.59ZM21.1516 85.7V75.69H77.9215V85.7H21.1516ZM80.4015 77.88V75.69H84.1715V77.88H80.4015ZM84.1515 80.39V84.17H80.4215V80.39H84.1515ZM84.1515 86.64V90.37H80.3716V86.64H84.1515ZM84.1816 96.61H80.4015V92.87H84.1816V96.61ZM80.4215 24.86L81.6916 25.35C82.3416 25.6 82.9616 25.83 83.5616 26.11C83.9316 26.28 84.1915 26.79 84.2015 27.15C84.2315 28 84.2315 28.86 84.2215 29.74V31.09H80.4215V24.86ZM80.4215 62.31V58.56H84.1715V62.31H80.4215ZM84.1615 64.77V66.96H80.4215V64.77H84.1615ZM80.4015 43.59V39.86H84.1816V43.59H80.4015ZM84.1615 46.09V49.84H80.3915V46.09H84.1615ZM80.3915 33.61H84.1715V37.35H80.3915V33.61ZM80.3915 52.33H84.1715V56.09H80.3915V52.33ZM38.2815 5.64C38.3415 5.26 38.6515 4.74999 39.0415 4.59999C46.5215 1.61999 54.1115 1.61999 61.5915 4.59999C62.0415 4.77999 62.2916 5.38 62.3616 5.7C62.4416 6.04 62.4216 6.39 62.4016 6.72C62.4016 6.83 62.3916 6.94 62.3916 7.05C62.3916 7.16 62.3615 7.25 62.3415 7.33L62.2416 7.73999H38.2515V7.36C38.2515 7.19 38.2516 7.01999 38.2416 6.84999C38.2316 6.44999 38.2215 6.03999 38.2815 5.62999V5.64ZM62.3415 10.2V18.02L61.9216 17.97C54.0215 16.94 46.4315 16.88 38.7315 17.79L38.3115 17.84V10.21H62.3415V10.2ZM21.3215 24.27C23.2915 22.3 41.1915 19.52 49.4815 19.52H49.5216C59.3616 19.53 68.8115 21.1 77.6115 24.18L79.6916 24.91H20.6716L21.3115 24.27H21.3215ZM77.9115 36.74V56.07H75.9015L75.8615 55.74C75.7815 55.09 75.7115 54.45 75.6415 53.8C75.4815 52.32 75.3316 50.93 75.0516 49.53C74.7116 47.84 73.8915 46.19 72.4615 44.32C72.0315 43.75 71.6315 43.56 71.1015 43.68C70.5915 43.8 70.3015 44.16 70.1415 44.86C69.9515 45.7 69.7216 46.54 69.4916 47.36C69.3916 47.71 69.2915 48.07 69.2015 48.42L68.9916 49.22L67.4115 46.84C66.5115 45.47 65.6316 44.15 64.7416 42.84C64.1116 41.92 63.5516 42 63.1216 42.18C62.5116 42.43 62.3216 42.86 62.4016 43.83C62.5416 45.66 61.9115 47.01 60.5315 47.85C59.7715 48.31 59.1215 48.21 58.5315 47.55C56.7015 45.49 55.6516 43.09 55.4016 40.42C55.3216 39.62 55.1015 39.24 54.5715 39.04C54.0415 38.84 53.6116 38.99 53.0816 39.56C52.5116 40.18 51.9516 40.8 51.4316 41.37L50.6516 42.23L50.3916 42.07C49.9116 41.77 49.4316 41.47 48.9616 41.17C47.8816 40.48 46.8515 39.83 45.7515 39.27C45.2915 39.04 44.6515 38.82 44.2215 39.08C43.8615 39.3 43.6616 39.85 43.6516 40.65C43.6216 43.47 42.6016 45.79 40.5216 47.73L40.2416 47.99L39.9916 47.7C38.8416 46.41 38.2116 44.82 38.0516 42.84C38.0016 42.16 38.0815 41.48 38.1615 40.82L38.1915 40.55C38.2715 39.81 38.0915 39.38 37.5715 39.1C37.0515 38.82 36.5915 38.92 36.0715 39.42C33.7815 41.61 32.2115 44.28 31.3815 47.35C31.3415 47.51 31.2915 47.67 31.2515 47.83L31.2215 47.92L30.5415 48.62L30.3215 48.1C30.1815 47.77 30.0416 47.45 29.9016 47.13C29.5916 46.43 29.2915 45.76 29.0415 45.07C28.7215 44.19 28.3216 43.69 27.8716 43.6C27.3316 43.51 26.7416 44.03 26.3316 44.49C23.4916 47.74 22.7215 51.16 23.9715 54.96C24.0115 55.08 24.0516 55.21 24.0816 55.36L24.2716 56.05H21.1116V36.71H77.8816L77.9115 36.74ZM21.1615 34.26V27.38H77.9215V34.26H21.1615ZM52.5415 45.73C52.0715 44.79 52.2115 44.1 53.0115 43.41L53.4316 43.04L53.6116 43.57C54.3516 45.8 55.5315 47.78 57.2315 49.63C58.1715 50.66 59.1815 50.9 60.6015 50.42C62.2315 49.87 63.4116 48.85 64.2116 47.33L64.3016 47.16L65.1115 47.04L65.2115 47.33C65.3815 47.83 65.5616 48.33 65.7416 48.82C66.1816 50.05 66.6316 51.31 67.0016 52.58C67.2416 53.4 67.5015 53.7 68.0215 53.8C68.6415 53.91 69.0916 53.66 69.4416 53C69.9316 52.08 70.4216 51.15 70.9416 50.19L72.0315 48.16L72.3415 48.88C73.2815 51.08 73.5315 53.33 73.1015 55.74L73.0516 56.05H53.1615L53.4016 54.85C53.5116 54.34 53.6115 53.84 53.6915 53.34C54.1315 50.66 53.7415 48.09 52.5415 45.71V45.73ZM33.5115 52.14C33.1015 49.61 33.6016 47.18 35.0816 44.49L35.4916 43.75L35.9916 45.22C36.1316 45.64 36.2616 46.02 36.4016 46.39C36.9616 47.88 37.8916 49.17 39.1516 50.22C39.9316 50.87 40.3016 50.89 41.1416 50.29C43.7215 48.43 45.2716 45.94 45.9016 42.67L46.0015 42.17L46.4515 42.41C49.7115 44.17 51.8716 48.57 51.3916 52.43C50.9416 56 50.7816 56.14 47.2416 56.14H42.9316C38.0716 56.14 33.2115 56.14 28.3515 56.16H28.3316C27.4616 56.16 26.9616 55.85 26.5816 55.1C25.4016 52.74 25.5116 50.03 26.8716 47.87L27.2015 47.35L27.5115 47.89C27.6515 48.13 27.7916 48.38 27.9216 48.62C28.2016 49.14 28.4716 49.63 28.8016 50.08C29.6016 51.18 30.4815 52.26 31.3115 53.26C31.9415 54.02 32.4915 53.88 32.8415 53.71C33.4315 53.43 33.6315 52.96 33.5015 52.14H33.5115ZM21.1615 58.57H77.9316V67H21.1615V58.57ZM18.6516 46.1V49.85H14.8916V46.1H18.6516ZM14.8916 43.6V39.84H18.6416V43.6H14.8916ZM18.6416 52.34V56.05H14.8616V52.34H18.6416ZM14.8916 64.81H18.6416V67H14.8916V64.81ZM14.9216 62.32V58.57H18.6716V62.32H14.9216ZM14.9216 37.34V33.61H18.7015V37.34H14.9216ZM14.8716 26.83C14.8716 26.51 15.1815 26.24 15.3815 26.16C16.0515 25.89 16.7316 25.63 17.4515 25.35L18.6716 24.88V31.12H14.8616V29.92C14.8616 28.9 14.8616 27.86 14.8716 26.83ZM96.6415 69.48V73.24H2.45155V69.48H96.6415Z" fill="#756F6F"/>
<path d="M43.9001 62.01C43.2701 62.01 42.7301 62.54 42.7101 63.16C42.7001 63.78 43.2301 64.34 43.8501 64.36C44.1801 64.39 44.4701 64.26 44.7001 64.03C44.9301 63.8 45.0601 63.5 45.0601 63.17C45.0601 62.52 44.5401 62.01 43.9001 62V62.01Z" fill="#756F6F"/>
<path d="M53.2499 64.36H53.2699C53.9099 64.35 54.4199 63.83 54.4199 63.18C54.4199 62.53 53.9099 62.01 53.2699 62H53.2499C52.9399 62 52.6299 62.13 52.4099 62.37C52.1799 62.6 52.0599 62.91 52.0699 63.22C52.0899 63.84 52.6299 64.36 53.2599 64.36H53.2499Z" fill="#756F6F"/>
<path d="M62.6002 64.36H62.6102C63.2502 64.36 63.7602 63.86 63.7802 63.21C63.7902 62.56 63.3002 62.03 62.6602 62C62.6402 62 62.6302 62 62.6202 62C62.3202 62 62.0202 62.12 61.8002 62.34C61.5602 62.57 61.4302 62.88 61.4302 63.18C61.4302 63.8 61.9802 64.35 62.6002 64.35V64.36Z" fill="#756F6F"/>
<path d="M71.9 64.36C72.23 64.38 72.52 64.27 72.76 64.05C73 63.83 73.13 63.52 73.14 63.19C73.14 62.54 72.65 62.02 72 62C71.99 62 71.98 62 71.97 62C71.35 62 70.81 62.51 70.78 63.13C70.75 63.75 71.27 64.32 71.9 64.36Z" fill="#756F6F"/>
<path d="M25.18 62.0098C24.56 62.0098 24.01 62.5598 24 63.1798C24 63.7998 24.54 64.3498 25.16 64.3698C25.48 64.3698 25.78 64.2598 26.01 64.0298C26.24 63.7998 26.36 63.4898 26.35 63.1598C26.34 62.5198 25.82 62.0098 25.18 62.0098Z" fill="#756F6F"/>
<path d="M34.5399 64.36C35.1799 64.36 35.6999 63.84 35.6999 63.19C35.6999 62.54 35.2099 62.02 34.5599 62C34.5599 62 34.5399 62 34.5299 62C34.2199 62 33.9199 62.13 33.6899 62.35C33.4599 62.58 33.3299 62.89 33.3399 63.2C33.3499 63.83 33.8999 64.35 34.5299 64.35L34.5399 64.36Z" fill="#756F6F"/>
</g>
<defs>
<clipPath id="clip0_239_474">
<rect width="99.0716" height="99.04" fill="white"/>
</clipPath>
</defs>
</svg>
