<svg width="94" height="100" viewBox="0 0 94 100" fill="none" xmlns="http://www.w3.org/2000/svg">
<g clip-path="url(#clip0_239_485)">
<path d="M86.4511 83.155C88.5111 83.105 90.4911 82.155 91.8911 80.545C93.3111 78.915 93.9811 76.775 93.7411 74.675C93.1811 69.845 92.6211 65.005 92.0511 60.175L91.5211 55.605C91.4211 54.725 91.3211 53.805 91.1711 52.925C91.0511 52.235 90.5111 51.805 89.8511 51.885C89.201 51.965 88.8011 52.475 88.8111 53.215C88.8111 53.445 88.8311 53.695 88.8611 53.965L89.5111 59.575C90.0711 64.425 90.6511 69.445 91.2611 74.375C91.4811 76.195 91.041 77.835 90.031 78.985C89.011 80.135 87.5211 80.745 85.7111 80.755C83.1611 80.755 80.6111 80.755 78.0611 80.755H76.2611C76.0611 80.755 75.861 80.735 75.661 80.725L75.161 80.695V76.545H78.0211C80.0511 76.545 82.0511 76.555 84.0511 76.545C84.9311 76.545 85.711 76.195 86.251 75.595C86.791 74.985 87.041 74.175 86.941 73.305C86.801 72.065 86.6611 70.815 86.5111 69.575L85.161 58.205C84.3511 51.375 83.5411 44.545 82.7311 37.715L81.441 26.755C80.771 21.095 80.1111 15.425 79.4311 9.765C79.1611 7.485 78.2211 6.675 75.8611 6.675C67.5811 6.675 59.2911 6.675 51.0111 6.675H50.7711C50.5311 6.675 50.3011 6.665 50.0911 6.705C49.6311 6.815 49.0811 7.105 49.1011 7.905C49.1211 8.715 49.6711 8.985 50.1311 9.065C50.341 9.105 50.5611 9.095 50.8011 9.095C50.8911 9.095 50.9711 9.095 51.0611 9.095H76.9211L76.9511 9.315L84.5811 74.065H75.0911V72.375C75.0911 71.355 75.0911 70.365 75.0911 69.365C75.0211 63.275 71.0311 58.075 65.161 56.445C59.441 54.855 53.2511 57.335 50.1111 62.475L49.3711 63.695L48.941 62.975C48.821 62.765 48.7111 62.575 48.5911 62.405C45.4311 57.635 41.1111 55.505 35.7411 56.095C30.0211 56.715 26.0611 59.975 24.2911 65.535C23.9011 66.775 23.8211 68.165 23.7611 69.505C23.7411 69.995 23.7111 70.475 23.6711 70.955C23.6211 71.605 23.6311 72.265 23.6411 72.915C23.6411 73.215 23.6511 73.515 23.6511 73.815V74.065H9.19106L10.0711 66.585L16.8411 9.085H24.5511C30.7411 9.085 36.9311 9.085 43.1211 9.085C43.6111 9.085 44.0211 8.965 44.2911 8.745C44.5511 8.535 44.6811 8.245 44.6811 7.875C44.6811 7.115 44.1011 6.665 43.1211 6.665C34.5811 6.665 26.0311 6.665 17.4911 6.665C15.6711 6.665 14.5911 7.645 14.3711 9.495L11.4511 34.185C10.8711 39.045 10.3011 43.895 9.72106 48.755C9.35106 51.905 8.98106 55.065 8.61106 58.215C8.05106 63.055 7.48105 67.895 6.90105 72.745C6.75105 74.015 6.96107 74.975 7.52107 75.605C8.07106 76.225 8.98106 76.545 10.2311 76.545H40.971V80.755H27.5411C20.9911 80.755 14.4511 80.755 7.90105 80.755C6.22106 80.755 4.73106 80.115 3.69106 78.945C2.71106 77.845 2.27106 76.405 2.44106 74.895C2.93106 70.575 3.44106 66.255 3.95106 61.935L7.44106 32.235C7.76106 29.515 8.08106 26.795 8.39106 24.065C9.03106 18.565 9.67106 13.065 10.3311 7.565C10.7411 4.165 12.7211 2.435 16.2111 2.435H53.1311C61.3911 2.435 69.651 2.435 77.911 2.435C80.951 2.435 83.0611 4.305 83.4311 7.315C83.5811 8.575 83.731 9.825 83.8811 11.085L86.8211 36.205C87.201 39.505 87.5911 42.805 87.9811 46.095C88.0911 47.015 88.5911 47.515 89.3311 47.435C89.6611 47.405 89.9211 47.275 90.1011 47.055C90.3311 46.765 90.4311 46.325 90.3711 45.775C90.0911 43.195 89.8011 40.615 89.4911 38.035C89.0511 34.295 88.6111 30.555 88.1711 26.815C87.3911 20.205 86.6111 13.595 85.8511 6.985C85.3811 2.945 82.1811 0.015 78.2411 0.015C57.4511 -0.005 36.3611 -0.005 15.5711 0.015C11.6211 0.015 8.41105 2.955 7.96105 6.985C7.59105 10.285 7.19106 13.585 6.80106 16.885C6.56106 18.875 6.33105 20.855 6.10105 22.845C5.69105 26.315 5.29106 29.775 4.89106 33.245C4.49106 36.715 4.09105 40.175 3.68105 43.645C3.24105 47.385 2.80106 51.135 2.36106 54.875L1.42106 62.895C1.29106 64.035 1.15106 65.175 1.01106 66.315C0.681056 69.095 0.331054 71.965 0.0410543 74.785C-0.178946 76.925 0.491065 78.965 1.91106 80.535C3.40106 82.195 5.61106 83.145 7.97106 83.145C15.4311 83.155 22.8811 83.155 30.3411 83.145H41.0911V84.615C41.0911 85.715 41.0911 86.815 41.0911 87.915C41.1011 90.605 41.1111 93.385 41.0611 96.125C41.0311 97.715 41.521 98.665 42.691 99.295H48.8211C50.0211 98.805 50.6211 97.965 50.6411 96.735V96.485H65.5411V96.735C65.5211 97.865 66.081 98.705 67.251 99.285H73.3811C74.621 98.735 75.1711 97.785 75.1411 96.205C75.1011 93.425 75.1011 90.585 75.1111 87.855C75.1111 86.735 75.1111 85.625 75.1111 84.505V83.145H76.5511C77.5711 83.145 78.5811 83.145 79.6011 83.145C81.8611 83.155 84.1911 83.165 86.4811 83.105L86.4511 83.155ZM41.0511 72.815V74.095H33.3211V73.845C33.3211 73.305 33.301 72.765 33.281 72.235C33.241 71.035 33.2011 69.795 33.3711 68.595C33.6411 66.695 35.3311 65.385 37.3711 65.535C39.2911 65.655 40.751 67.075 41.001 69.055C41.041 69.415 41.0411 69.785 41.0411 70.135V70.445C41.0411 71.225 41.0411 72.005 41.0411 72.815H41.0511ZM48.1411 88.085C48.1411 90.775 48.1311 93.465 48.1311 96.155C48.1311 96.245 48.1211 96.335 48.1011 96.455L48.0511 96.875H43.471V88.055C43.471 81.985 43.471 75.925 43.471 69.855C43.471 66.685 41.7311 64.195 38.9311 63.355C37.0211 62.785 35.0011 63.125 33.3911 64.295C31.7811 65.455 30.8311 67.255 30.7711 69.225C30.7411 70.255 30.7511 71.275 30.7611 72.345C30.7611 72.835 30.7611 73.325 30.7611 73.815V74.065H26.2711L26.221 73.875C24.761 67.765 27.511 61.645 32.781 59.315C36.121 57.835 39.9811 58.155 43.1111 60.165C46.1711 62.135 48.0311 65.425 48.0711 68.975C48.1511 75.345 48.1411 81.825 48.1211 88.085H48.1411ZM50.5911 87.335V83.255H65.441V87.335H50.5911ZM57.721 72.275C57.701 71.115 57.6811 70.015 57.7711 68.895C57.9211 67.035 59.6611 65.505 61.6111 65.505C61.6511 65.505 61.6911 65.505 61.7411 65.505C63.7811 65.575 65.3911 67.125 65.4911 69.105C65.5411 70.175 65.5311 71.225 65.5211 72.335C65.5211 72.825 65.5111 73.305 65.5111 73.805V74.055H57.7611V73.805C57.7611 73.285 57.7611 72.775 57.7411 72.275H57.721ZM65.5811 76.535H65.6711C65.8411 76.535 66.021 76.535 66.191 76.555C67.361 76.705 68.1711 77.575 68.161 78.685C68.151 79.865 67.2411 80.725 66.0211 80.745C64.6011 80.755 63.1811 80.755 61.7711 80.755C61.0211 80.755 60.281 80.755 59.531 80.755H50.6111V76.615L51.1211 76.575C51.3111 76.555 51.481 76.545 51.661 76.545C56.301 76.545 60.9411 76.545 65.5811 76.545V76.535ZM66.4011 93.995C66.2911 94.015 66.1811 94.025 66.0711 94.025C61.1111 94.025 56.1511 94.025 51.1811 94.025C51.0711 94.025 50.9811 93.985 50.9011 93.955C50.8711 93.945 50.831 93.925 50.781 93.915L50.6111 93.855V89.905L51.1211 89.865C51.3211 89.845 51.521 89.825 51.721 89.825C56.331 89.825 60.9311 89.825 65.5411 89.825C65.8611 89.825 66.2811 89.845 66.6711 89.955C67.6411 90.245 68.1711 90.975 68.1711 92.015C68.1711 92.995 67.431 93.825 66.411 93.995H66.4011ZM72.6711 85.725C72.6711 87.995 72.661 90.265 72.661 92.545V96.865H67.441L67.8511 96.445C67.9611 96.325 68.051 96.235 68.1311 96.145C68.2811 95.975 68.4011 95.845 68.5511 95.735C69.8711 94.745 70.6011 93.405 70.6111 91.945C70.6111 90.505 69.8611 89.115 68.5611 88.135C68.2311 87.885 68.0311 87.405 67.9811 87.035C67.9311 86.705 67.9411 86.365 67.9511 86.035C67.9511 85.765 67.9711 85.515 67.9511 85.265C67.8511 84.115 67.9511 82.895 69.3111 81.715C70.2211 80.925 70.7011 79.795 70.6411 78.535C70.5811 77.165 69.8811 75.875 68.7711 75.065C68.1511 74.615 67.9211 74.155 67.941 73.425C67.971 72.015 67.9911 70.495 67.911 68.965C67.7411 65.655 64.981 63.085 61.6311 63.085H61.5711C58.1611 63.115 55.4111 65.775 55.3011 69.145C55.2711 70.175 55.281 71.205 55.281 72.285C55.281 72.785 55.281 73.285 55.281 73.785V74.035H50.661L50.6411 73.805C50.1911 68.395 50.7011 64.135 54.6811 60.925C58.1811 58.095 62.151 57.575 66.161 59.415C70.341 61.335 72.5711 64.805 72.6211 69.455C72.6811 74.885 72.6711 80.395 72.661 85.735L72.6711 85.725Z" fill="#756F6F"/>
<path d="M22.9409 47.1348C23.1109 47.3648 23.3909 47.5048 23.7309 47.5548C24.5409 47.6648 25.3909 47.6748 26.1909 47.5848C28.3809 47.3448 30.3709 46.3548 32.0909 44.6348L32.2609 44.4648L32.4409 44.6348C36.6509 48.6748 42.6509 48.6648 46.7309 44.6148L46.9109 44.4348L47.0909 44.6148C49.1409 46.6648 51.4609 47.6548 54.1909 47.6648H54.2209C56.8809 47.6648 59.2609 46.6548 61.2909 44.6448L61.4509 44.4848L61.6209 44.6248C61.8209 44.7848 62.0209 44.9448 62.2009 45.1048C62.5909 45.4248 62.9609 45.7348 63.3509 45.9948C65.3109 47.3248 67.4909 47.8648 69.8409 47.6048C70.6809 47.5148 71.1209 47.0148 71.0409 46.2448C70.9709 45.5548 70.5109 45.2048 69.6709 45.2048C69.5509 45.2048 69.4409 45.2048 69.3209 45.2148C69.1909 45.2148 69.0509 45.2248 68.9209 45.2248C66.8009 45.2248 64.9909 44.4748 63.5309 42.9848C62.7209 42.1548 62.0909 41.7848 61.4909 41.7848C60.9009 41.7848 60.2809 42.1548 59.4809 42.9648C58.0609 44.4248 56.1809 45.2348 54.2009 45.2348C52.2209 45.2348 50.3509 44.4348 48.9409 42.9848C48.1309 42.1548 47.5109 41.7948 46.9209 41.7848C46.3309 41.7848 45.7009 42.1448 44.8909 42.9648C42.9809 44.8748 40.6909 45.5748 38.0809 45.0448C36.5609 44.7348 35.2209 43.9448 34.0009 42.6148C33.4809 42.0548 32.8809 41.7348 32.2409 41.7548C31.7209 41.7548 31.2409 41.9848 30.8609 42.4148C28.9809 44.5048 26.7309 45.4248 23.9809 45.2048C23.2909 45.1548 22.8809 45.5148 22.7809 46.2248C22.7309 46.5748 22.8009 46.8848 22.9809 47.1148L22.9409 47.1348Z" fill="#756F6F"/>
<path d="M68.2112 33.2149C66.2812 33.0649 64.6712 32.2649 63.2912 30.7749C62.6912 30.1349 62.0911 29.8049 61.5011 29.7949C60.9011 29.7949 60.2812 30.1249 59.6612 30.7849C58.1412 32.3849 56.2012 33.2649 54.2012 33.2649C52.1912 33.2649 50.2411 32.3749 48.7211 30.7749C47.5311 29.5249 46.4311 29.5249 45.0311 30.7749C43.8011 31.8749 42.6812 32.5749 41.6212 32.9049C38.8312 33.7749 36.2412 33.0349 34.1212 30.7749C33.5312 30.1449 32.8612 29.8049 32.2312 29.8049H32.2211C31.6911 29.8049 31.1812 30.0549 30.7612 30.5149C29.2312 32.2049 27.4712 33.0949 25.3612 33.2449C24.9312 33.2749 24.5912 33.4249 24.3812 33.6649C24.1912 33.8849 24.1012 34.1949 24.1312 34.5649C24.2012 35.5449 25.0712 35.6649 25.5812 35.6349C27.5812 35.5449 29.4312 34.8449 31.0712 33.5449C31.3212 33.3449 31.5612 33.1449 31.8112 32.9449L32.3612 32.4949L32.5212 32.6549C34.5812 34.6849 36.9012 35.6649 39.6112 35.6649H39.6412C42.3012 35.6649 44.6712 34.6549 46.6712 32.6649L46.8412 32.4949L47.0212 32.6549C51.8812 37.2149 57.9012 36.1049 61.3412 32.6449L61.5112 32.4749L61.6912 32.6449C63.6311 34.5049 65.7212 35.4749 68.0512 35.6249C69.0912 35.6949 69.6312 35.3249 69.6812 34.5549C69.7312 33.7549 69.2412 33.3049 68.2312 33.2249L68.2112 33.2149Z" fill="#756F6F"/>
<path d="M68.1708 22.4849C68.2508 22.1649 68.2308 21.8849 68.0908 21.6549C67.9008 21.3349 67.5108 21.0849 66.9608 20.9449C65.5308 20.5649 64.3208 19.8249 63.2508 18.6649C62.6908 18.0549 62.1008 17.7349 61.5108 17.7349H61.5008C60.9008 17.7349 60.2808 18.0549 59.6808 18.6849C58.1508 20.3049 56.2008 21.1949 54.2108 21.1949C52.2008 21.1949 50.2308 20.2949 48.6708 18.6549C47.5108 17.4349 46.3608 17.4449 45.0608 18.6749C44.0908 19.5949 43.2008 20.2249 42.3208 20.6149C39.5508 21.8449 36.4108 21.1149 34.1408 18.7249C33.5308 18.0849 32.8508 17.7349 32.2108 17.7349H32.1908C31.6708 17.7349 31.1808 17.9749 30.7808 18.4249C29.5608 19.7649 28.1608 20.6249 26.5108 21.0649C25.8208 21.2449 25.4608 21.8049 25.6108 22.4549C25.7708 23.1649 26.3308 23.4949 27.1008 23.3549C28.7008 23.0549 30.1508 22.3249 31.5308 21.1149C31.6708 20.9849 31.8208 20.8649 31.9708 20.7449L32.3708 20.4149L32.5308 20.5749C34.5908 22.6049 36.9108 23.5949 39.6208 23.5949H39.6608C42.3208 23.5949 44.6808 22.5749 46.6908 20.5949L46.8608 20.4249L47.0408 20.5949C51.2308 24.6049 57.2508 24.6149 61.3308 20.6149L61.4908 20.4549L61.6608 20.5949C63.6308 22.2349 64.7908 22.9149 66.2908 23.2849C67.3408 23.5449 67.9808 23.2849 68.1908 22.4949L68.1708 22.4849Z" fill="#756F6F"/>
</g>
<defs>
<clipPath id="clip0_239_485">
<rect width="93.7889" height="99.295" fill="white"/>
</clipPath>
</defs>
</svg>
