<svg width="100" height="100" viewBox="0 0 100 100" fill="none" xmlns="http://www.w3.org/2000/svg">
<g clip-path="url(#clip0_239_413)">
<path d="M99.0862 95.9152V91.3552C98.4662 89.5952 97.5662 88.6452 96.1662 88.2952C95.6262 88.1652 95.0362 88.1452 94.4562 88.1352C93.5862 88.1152 92.7562 88.1152 91.8862 88.1252H90.3762V34.5852L90.7362 34.5652C90.9562 34.5552 91.1762 34.5452 91.3862 34.5352C91.8462 34.5152 92.2962 34.5052 92.7462 34.4552C95.8862 34.1052 98.1362 32.1352 98.9162 29.0452C98.9462 28.9152 99.0062 28.7952 99.0562 28.6752L99.0862 28.6152V23.4952L99.0362 23.3552C98.9862 23.2052 98.9362 23.0452 98.8862 22.8852C98.2762 20.6152 96.9162 19.0152 94.8362 18.1352C81.4062 12.4252 67.9762 6.71521 54.5362 1.03521C51.2162 -0.364789 47.8162 -0.344789 44.4162 1.09521L36.8662 4.30521C26.0762 8.89521 15.2762 13.4752 4.48622 18.0652C1.54622 19.3152 0.0562211 21.5752 0.0362211 24.8052C0.0362211 25.0852 0.0362211 25.3652 0.0262211 25.6552C0.00622113 26.5852 -0.0137789 27.5452 0.106221 28.4552C0.566221 31.9252 3.31622 34.3652 6.96622 34.5252C7.26622 34.5352 7.56622 34.5252 7.88622 34.5252H8.75622V88.1452H4.52622C1.59622 88.1452 0.0462211 89.7152 0.0362211 92.6752C0.0362211 92.8152 0.0362211 92.9652 0.0362211 93.1052C0.0362211 93.4252 0.0462211 93.7452 0.0262211 94.0652C-0.183779 96.6352 0.866221 98.2852 3.22622 99.1152H95.8962C97.5062 98.5752 98.5562 97.5352 99.0862 95.9252V95.9152ZM8.52622 32.2052C6.78622 32.5652 5.17622 32.2352 3.99622 31.2852C2.84622 30.3552 2.20622 28.9152 2.20622 27.2252C2.20622 26.6852 2.20622 26.1452 2.20622 25.5952V25.2652C2.20622 22.4052 3.12622 20.9952 5.73622 19.8952L27.5762 10.6452C33.2162 8.25521 39.0462 5.79521 44.7662 3.32521C47.9762 1.93521 51.0962 1.92521 54.2862 3.28521C63.2062 7.09521 72.1462 10.8852 81.0762 14.6752L92.2562 19.4152C92.8562 19.6652 93.4562 19.9152 94.0462 20.1952C95.8962 21.0552 96.8562 22.5452 96.9062 24.6152C96.9162 25.1752 96.9162 25.7352 96.9062 26.2952V26.9652C96.9062 28.7752 96.3462 30.2252 95.2862 31.1552C94.1862 32.1252 92.5662 32.5052 90.6062 32.2652L90.2762 32.2252V30.7152C90.2762 29.7852 90.2762 28.8752 90.2762 27.9652C90.2762 25.8752 89.3562 24.4852 87.4362 23.7152C85.6062 22.9752 83.7862 22.2352 81.9562 21.4952C80.4762 20.8952 78.9962 20.2852 77.5162 19.6952C76.9962 19.4852 76.5562 19.4452 76.2462 19.5752C76.0162 19.6752 75.8462 19.8752 75.7262 20.1852C75.4162 20.9852 76.0862 21.4552 76.6962 21.7052L78.4662 22.4352C81.1162 23.5152 83.7562 24.6052 86.4262 25.6552C87.6162 26.1252 88.1262 26.8852 88.1062 28.1452C88.0762 29.7152 88.0762 31.2952 88.0862 32.8852V35.2652H10.9862V32.7952C10.9862 31.0052 10.9762 29.2252 11.0062 27.4552C11.0262 26.3252 12.0262 25.9152 12.6362 25.6752C18.3062 23.3752 23.9662 21.0652 29.6362 18.7552L36.9562 15.7652C38.0462 15.3252 39.1362 14.8852 40.2262 14.4452C42.5962 13.4852 44.9562 12.5352 47.3062 11.5452C48.7962 10.9152 50.2462 10.9152 51.7362 11.5252C55.9562 13.2652 60.1762 14.9752 64.3962 16.6952L69.4962 18.7752C70.5162 19.1852 71.1362 19.0452 71.4062 18.4052C71.5262 18.1252 71.5362 17.8652 71.4462 17.6452C71.3162 17.3252 70.9662 17.0352 70.4362 16.8152C68.3962 15.9752 66.3562 15.1352 64.3162 14.3052C63.1062 13.8152 61.8962 13.3252 60.6862 12.8352C58.0162 11.7552 55.3462 10.6752 52.6862 9.56521C50.5662 8.67521 48.5562 8.67521 46.3762 9.56521C37.7262 13.1152 29.0662 16.6452 20.3962 20.1652L11.8762 23.6352C9.60622 24.5552 8.79622 25.7552 8.79622 28.2052V32.1752L8.49622 32.2352L8.52622 32.2052ZM96.9062 94.9152C96.8762 96.1752 96.1862 96.8752 94.9262 96.9352C94.8162 96.9352 94.7062 96.9352 94.5962 96.9352C94.5162 96.9352 94.4362 96.9352 94.3562 96.9352H94.1262H4.95622C2.71622 96.9352 2.19622 96.4252 2.19622 94.2052V93.6052C2.19622 93.1152 2.18622 92.6252 2.19622 92.1352C2.25622 91.0452 2.92622 90.3752 4.03622 90.3152C4.27622 90.2952 4.51622 90.3052 4.75622 90.3152H5.02622H67.3962H67.5662C67.9162 90.3152 68.2562 90.3152 68.5562 90.2452C68.9662 90.1452 69.4362 89.8652 69.3762 89.1352C69.3262 88.5452 68.9962 88.2152 68.3862 88.1552C68.1362 88.1352 67.8862 88.1352 67.6262 88.1352H67.3462H11.0462V63.8552H15.6962C16.2862 63.8552 16.8862 63.8652 17.4762 63.8452C18.1962 63.8152 18.5962 63.4252 18.5862 62.7652C18.5862 62.1152 18.1462 61.7152 17.4362 61.6952C16.2662 61.6652 15.0862 61.6752 13.9062 61.6752H11.0062V37.5152H88.0162V61.6752H78.7262C60.8962 61.6752 43.0862 61.6752 25.2562 61.6752H25.2262C24.7962 61.6752 24.3662 61.6752 24.0062 61.7752C23.3462 61.9552 23.2562 62.4652 23.2862 62.8652C23.3362 63.4252 23.6462 63.7452 24.1962 63.8152C24.4762 63.8552 24.7662 63.8452 25.0562 63.8452H25.3162H88.0062V88.0652L87.3462 88.0952C87.1162 88.1052 86.8762 88.1252 86.6362 88.1252H75.9162H75.6962C75.4862 88.1252 75.2762 88.1252 75.0762 88.1352C74.4562 88.1852 74.1262 88.5052 74.0662 89.0852C74.0062 89.7052 74.2862 90.0852 74.9362 90.2452C75.1662 90.3052 75.4362 90.2952 75.7062 90.2952H75.9062H94.4262C96.2762 90.2952 96.8662 90.8952 96.8662 92.7452V93.2952C96.8662 93.8352 96.8662 94.3652 96.8662 94.9052L96.9062 94.9152Z" fill="#756F6F"/>
<path d="M46.7661 57.9953C48.0861 57.9853 49.406 57.9953 50.726 57.9953H53.1961C53.7661 57.9953 54.196 57.8653 54.436 57.6253C54.606 57.4553 54.6861 57.2153 54.6761 56.8953C54.6761 56.6353 54.6561 55.8353 53.2261 55.8253C52.2961 55.8253 51.3661 55.8253 50.3761 55.8253H48.256L49.2661 54.2953C49.6561 53.7253 50.046 53.1553 50.436 52.5853C51.336 51.2853 52.2661 49.9353 53.1061 48.5653C53.9261 47.2253 54.156 45.7753 53.756 44.3653C53.226 42.4953 51.3661 41.1753 49.2361 41.1653H49.206C47.086 41.1653 45.236 42.5153 44.596 44.5353C44.426 45.0553 44.2761 45.9853 45.1261 46.2853C45.5961 46.4553 46.206 46.4953 46.666 45.2353C46.706 45.0753 46.7361 45.0053 46.7661 44.9353C47.2161 43.9253 48.176 43.3453 49.206 43.3453C49.556 43.3453 49.916 43.4153 50.276 43.5553C51.656 44.1153 52.116 45.2853 51.526 46.7553C51.236 47.5053 50.8061 48.2753 50.2361 49.1253C48.7361 51.3153 47.1861 53.5253 45.6761 55.6553L45.596 55.7653C45.176 56.3553 45.1161 56.8553 45.3961 57.3653C45.6461 57.8353 46.066 58.0153 46.796 58.0153L46.7661 57.9953Z" fill="#756F6F"/>
<path d="M49.9364 83.1653C49.9364 83.9253 50.3564 84.4153 51.0064 84.4253C51.3164 84.4453 51.5664 84.3253 51.7664 84.1253C51.9764 83.9153 52.0964 83.6253 52.0964 83.2953C52.1164 78.4253 52.1164 73.5553 52.0964 68.6753C52.0964 68.0053 51.7364 67.6253 51.0664 67.5853C50.0464 67.5253 49.0164 67.5253 47.9964 67.5853C47.6864 67.6053 47.4164 67.7353 47.2364 67.9453C47.0664 68.1453 46.9864 68.4053 47.0164 68.6853C47.0764 69.3253 47.4164 69.6553 48.0564 69.7053C48.3664 69.7253 48.6864 69.7253 49.0264 69.7153H49.5564H49.9364V74.7253C49.9364 77.5353 49.9364 80.3453 49.9364 83.1653Z" fill="#756F6F"/>
<path d="M47.8762 31.2452C49.7362 31.9352 51.4362 31.5952 52.9062 30.2152C54.9162 28.3352 54.9362 25.6852 52.9562 23.1352L52.7762 22.9052L53.1862 22.3852C53.3262 22.2152 53.4462 22.0552 53.5562 21.8852C54.7062 20.1052 54.7562 18.3252 53.6962 16.5952C52.6162 14.8352 50.9662 14.0352 48.9362 14.3152C46.9162 14.5752 45.5562 15.7352 44.8962 17.7452C44.7462 18.2152 44.7462 18.6252 44.8962 18.9252C45.0162 19.1652 45.2362 19.3252 45.5362 19.4152C46.0062 19.5452 46.5462 19.5452 46.9562 18.4352C47.4962 16.9852 48.7162 16.2152 50.0662 16.4852C51.3062 16.7352 52.2662 17.9052 52.2562 19.1552C52.2462 20.5252 51.2462 21.5752 49.7262 21.8252C48.5962 22.0152 48.4762 22.4952 48.4962 22.9452C48.5362 23.6052 48.8962 23.9252 49.7162 24.0352C51.2962 24.2452 52.3062 25.3652 52.2462 26.8052C52.1862 28.1852 51.0962 29.2952 49.7062 29.3852C48.2462 29.4852 47.0862 28.4552 46.8562 26.8252C46.7462 26.0552 46.3562 25.6152 45.7962 25.6152C45.7462 25.6152 45.6962 25.6152 45.6362 25.6252C44.9562 25.7252 44.5962 26.2852 44.6962 27.0952C44.9362 29.1652 46.0062 30.5552 47.8662 31.2552L47.8762 31.2452Z" fill="#756F6F"/>
</g>
<defs>
<clipPath id="clip0_239_413">
<rect width="99.0862" height="99.1152" fill="white"/>
</clipPath>
</defs>
</svg>
