<?xml version="1.0" encoding="utf-8"?>
<!-- Generator: Adobe Illustrator 28.1.0, SVG Export Plug-In . SVG Version: 6.00 Build 0)  -->
<svg version="1.1" id="Capa_1" xmlns="http://www.w3.org/2000/svg" xmlns:xlink="http://www.w3.org/1999/xlink" x="0px" y="0px"
	 viewBox="0 0 36 36" style="enable-background:new 0 0 36 36;" xml:space="preserve">
<style type="text/css">
	.st0{fill:#FFFFFF;}
</style>
<g>
	<path class="st0" d="M3.5,36c-1,0-2.1,0-3.1,0c0.1-0.1,0.2-0.2,0.3-0.4c4.1-4.8,8.2-9.6,12.4-14.4c0.4-0.4,0.7-0.8,1.1-1.3
		c-0.1-0.1-0.1-0.2-0.2-0.2C9.6,13.3,5.1,6.9,0.7,0.4C0.6,0.3,0.5,0.1,0.4,0c3.5,0,7,0,10.5,0c0,0.1,0.1,0.1,0.1,0.2
		c2.9,4.3,5.9,8.6,8.9,12.9c0,0.1,0.1,0.1,0.1,0.2C23.8,8.8,27.6,4.4,31.4,0c1,0,2.1,0,3.1,0c0,0,0,0.1-0.1,0.1
		c-3.6,4.2-7.3,8.5-10.9,12.7c-0.7,0.8-1.4,1.6-2.1,2.4c0.1,0.1,0.1,0.2,0.2,0.3c4,5.8,8,11.7,12.1,17.5c0.7,1,1.3,2,2,3
		c-3.5,0-7,0-10.5,0c0-0.1-0.1-0.1-0.1-0.2c-3.1-4.5-6.2-9-9.3-13.5c-0.1-0.1-0.1-0.1-0.2-0.2c-0.1,0.1-0.2,0.2-0.3,0.3
		c-2.5,2.9-5,5.8-7.5,8.7C6.3,32.7,4.9,34.4,3.5,36z M31.3,33.7c-0.1-0.1-0.1-0.2-0.2-0.3C23.9,23.2,16.8,12.9,9.6,2.6
		C9.4,2.4,9.3,2.3,9.1,2.3c-1.4,0-2.8,0-4.1,0c-0.1,0-0.2,0-0.3,0c0.1,0.1,0.2,0.2,0.2,0.4C9.6,9.5,14.3,16.2,19,23
		c2.5,3.5,4.9,7,7.4,10.5c0.1,0.1,0.3,0.3,0.4,0.3c1.5,0,2.9,0,4.4,0C31.2,33.8,31.2,33.7,31.3,33.7z"/>
</g>
</svg>
